<svg xmlns="http://www.w3.org/2000/svg" width="63" height="63" viewBox="0 0 63 63"><g id="sr-B2B_Leads_Search" data-name="sr-B2B Leads Search" transform="translate(-151 -178.059)"><circle id="Ellipse_33" data-name="Ellipse 33" cx="31.5" cy="31.5" r="31.5" transform="translate(151 178.059)" fill="#2dce89"></circle><g id="b2b" transform="translate(167.003 196.255)"><g id="Group_52" data-name="Group 52" transform="translate(8.765 6.826)"><path id="Path_246" data-name="Path 246" d="M29,28.9H18.7a1.49,1.49,0,0,1-1.4-1.3V21a1.49,1.49,0,0,1,1.3-1.4H29a1.49,1.49,0,0,1,1.4,1.3h0v6.5A1.7,1.7,0,0,1,29,28.9ZM18.7,20.2a.86.86,0,0,0-.8.8v6.5a.86.86,0,0,0,.8.8H29a.86.86,0,0,0,.8-.8V21a.86.86,0,0,0-.8-.8Z" transform="translate(-17.3 -18.1)" fill="#fff" stroke="#fff" stroke-width="0.8"></path><path id="Path_247" data-name="Path 247" d="M25.7,20.2c-.1,0-.3-.1-.3-.2V18.9c0-.1-.1-.3-.2-.3H22.5c-.1,0-.3.1-.3.2V20a.32.32,0,0,1-.3.3.27.27,0,0,1-.3-.3V18.9a.86.86,0,0,1,.8-.8h2.7a.86.86,0,0,1,.8.8V20C26,20.1,25.9,20.2,25.7,20.2Z" transform="translate(-17.3 -18.1)" fill="#fff" stroke="#fff" stroke-width="0.8"></path><path id="Path_248" data-name="Path 248" d="M23.8,24.5h-.1l-6.2-2.2a.52.52,0,0,1-.2-.4.52.52,0,0,1,.4-.2l6.1,2.2,6.1-2.2c.1,0,.3,0,.3.2s0,.3-.2.3l-6.2,2.3Z" transform="translate(-17.3 -18.1)" fill="#fff" stroke="#fff" stroke-width="0.8"></path></g><path id="Path_249" data-name="Path 249" d="M12.2,25.6a.76.76,0,0,1-.4.2h-.1a.52.52,0,0,1-.4-.2h0L8.7,22.9a.71.71,0,0,1,1-1h0L11,23.3a13,13,0,0,1,24.8-4.4.78.78,0,0,1-.3,1h0a.69.69,0,0,1-1-.3h0v-.1a11.56,11.56,0,0,0-22.1,3.9L13.9,22a.71.71,0,0,1,1,1Zm27.2-.2-2.7-2.7a1.42,1.42,0,0,0-.6-.2h0a.52.52,0,0,0-.4.2L33,25.3a.71.71,0,0,0,1,1h0l1.4-1.4A11.4,11.4,0,0,1,23.1,35.6a11.56,11.56,0,0,1-9.8-6.9.63.63,0,0,0-.9-.4.63.63,0,0,0-.4.9v.1A12.95,12.95,0,0,0,36.8,25l1.4,1.4a.67.67,0,0,0,1,0,.7.7,0,0,0,.2-1Z" transform="translate(-8.535 -11.274)" fill="#fff"></path></g></g></svg>