<svg xmlns="http://www.w3.org/2000/svg" width="63" height="63" viewBox="0 0 63 63"><g id="sr-Blog_Author_Finder" data-name="sr-Blog Author Finder" transform="translate(-633 -173.059)"><circle id="Ellipse_39" data-name="Ellipse 39" cx="31.5" cy="31.5" r="31.5" transform="translate(633 173.059)" fill="#2dce89"></circle><g id="blog_author_finder" transform="translate(653.091 190.514)"><g id="Layer_2" data-name="Layer 2"><path id="Path_231" data-name="Path 231" d="M34.6,30.4A6.83,6.83,0,0,0,31.2,25a.55.55,0,0,1-.3-.5V22.9a.37.37,0,0,0-.1-.3c0-.1-.2-.2-.3-.2a.76.76,0,0,0-.4.2c-.1.1-.1.2-.1.4v2.4a2.57,2.57,0,0,1-2.1,2.5c-.2,0-.4.1-.6.1V22.1a.37.37,0,0,1,.1-.3,4.07,4.07,0,0,0,1.5-2.5c0-.2.2-.3.4-.4a2.35,2.35,0,0,0,.8-.2v2.4a.46.46,0,0,0,.5.4c.1,0,.3-.1.3-.2v-5a5.93,5.93,0,0,0-5-5.9c-.2,0-.5-.1-.7-.1h-.5c-.2,0-.4.1-.7.1a6.13,6.13,0,0,0-4.9,4.5,9.85,9.85,0,0,0-.2,1.7V20a5,5,0,0,0,1,3.1,4.74,4.74,0,0,0,1,1c.1.1.2.1.3.2a6.18,6.18,0,0,0-2.7.9l.6.6c.1,0,.2-.1.3-.1l.8-.3c.2-.1.2-.1.3.1a5.7,5.7,0,0,0,3,2.3,4.93,4.93,0,0,0,2.7-.1h.2v.8a1,1,0,0,0,.8.7,3.53,3.53,0,0,0,3.4-2.9v-.1h0c.2.1.3.2.5.3a5.81,5.81,0,0,1,2.4,5v1.4a.67.67,0,0,1-.6.7H31.3V32.1a.55.55,0,0,0-.3-.5.44.44,0,0,0-.5.1h0v1.7H25.2c-.2,0-.2,0-.3-.1l.3.9h7.7a1.5,1.5,0,0,0,1.4-1.1.37.37,0,0,1,.1-.3V31a.59.59,0,0,0,.2-.6ZM30.1,17.6a1.46,1.46,0,0,1-.9.6V16.4a1.33,1.33,0,0,1,.8.3,1.41,1.41,0,0,1,.1.9ZM21.3,23a3.54,3.54,0,0,1-1.4-2.4V16.5a5.14,5.14,0,0,1,4.5-5.3,4.66,4.66,0,0,1,4,1.4A4.7,4.7,0,0,1,30,15.7v.1h0c-.3-.1-.6-.1-.9-.2a.22.22,0,0,1-.2-.2,1.55,1.55,0,0,0-.8-1.1,2.13,2.13,0,0,0-2.8.1,1.83,1.83,0,0,1-1.7.6H22a1.49,1.49,0,0,0-1.3,1.4V19a3.76,3.76,0,0,0,1.4,2.6.52.52,0,0,1,.2.4v1.5c-.3.1-.7-.2-1-.5Zm5.2,3.6a4.37,4.37,0,0,1-4.9-1.5.1.1,0,0,0-.1-.1c.2,0,.4-.1.6-.1a1.62,1.62,0,0,0,1.3-1.6v-.9a3.82,3.82,0,0,0,3.3,0v3.9a.77.77,0,0,1-.2.3ZM25.2,22a3.42,3.42,0,0,1-3.4-2.4,6.75,6.75,0,0,1-.2-1.4V16.8a.89.89,0,0,1,.6-1H24a2.87,2.87,0,0,0,1.8-.7,1.39,1.39,0,0,1,1-.5A1.45,1.45,0,0,1,28.3,16v2.8A3.43,3.43,0,0,1,25.2,22Z" transform="translate(-11.8 -10.3)" fill="#fff"></path><path id="Path_232" data-name="Path 232" d="M26.6,37.6h0l-.8-.4-3.1-1.3a5.72,5.72,0,0,1-1.6-1.5l-.1-.1-2.5-3.1c-.1-.2-.2-.5,0-.6a.77.77,0,0,0,.3-.2h0c.1,0,.2.1.4.2,1,1.1,1.9,2.3,2.7,3.3,0,.1.1.1.1.2l.1.1.1-.1.6-.5.1-.1-8.1-9.7-.8.6.2.2.1.1,3.4,4.1c0,.1.1.1.1.2s.1.4-.1.5a.37.37,0,0,1-.3.1c-.1,0-.2,0-.2-.1s-.1-.2-.1-.3-.3-.4-.4-.6h-.3l-.7-.8h0l-.1-.1-.1-.1c-.1-.1-.2-.2-.2-.3h0l-.4-.5c-.8-1-1.2-1.6-2.1-2.6h0a2.34,2.34,0,0,1-1-1.6V22h0a1.44,1.44,0,0,1,.7-1.1,1.83,1.83,0,0,1,1.7-.6,3,3,0,0,1,1.6.8c.6.8,1.2,1.4,1.8,2.2a11.32,11.32,0,0,1,1,1.3c.1.1.2.3.3.4l.1.2.7.9.1.1.2.2,1.9,2.4c1,1.2,2,2.4,2.9,3.6.3.4.5.8.8,1.2.2.8.5,1.5.7,2.3a6.371,6.371,0,0,1,.2.7c0,.1,0,.1.1.2v.8ZM23.8,34l-1,.8-.1.1.4.2,2.3,1.1.2.1-.8-3ZM16,23c-.1.1-.3.2-.4.3l-.3.1,8.1,9.7.2-.2a1.38,1.38,0,0,1,.4-.3l.1-.1H24C21.4,29.2,18.7,26.1,16,23Zm-2-2.1a1.93,1.93,0,0,0-1,.3,1.38,1.38,0,0,0-.3,1.8,2.65,2.65,0,0,0,.5.6c.1.1.1.2.2.2v.1l2.2-1.8-.6-.7a2.35,2.35,0,0,0-1-.5Z" transform="translate(-11.8 -10.3)" fill="#fff"></path><line id="Line_1" data-name="Line 1" transform="translate(13.7 23.7)" fill="none"></line></g></g></g></svg>