<svg xmlns="http://www.w3.org/2000/svg" width="63" height="63" viewBox="0 0 63 63"><g id="sr-Bulk_Blog_Author_Finder" data-name="sr-Bulk Blog Author Finder" transform="translate(-129 -173.059)"><circle id="Ellipse_38" data-name="Ellipse 38" cx="31.5" cy="31.5" r="31.5" transform="translate(129 173.059)" fill="#2dce89"></circle><g id="bulk_blog_author_finder" transform="translate(144.703 190.923)"><g id="Group_39" data-name="Group 39" transform="translate(0 0)"><g id="Group_34" data-name="Group 34" transform="translate(0 5.653)"><g id="Group_30" data-name="Group 30"><path id="Path_219" data-name="Path 219" d="M61.511,174.195l-5.129-1.709-4.462-5.008.593-.563,4.318,4.846,3.522,1.173-.922-3.57L47.7,155.249a1.874,1.874,0,0,0-1.415-.488,1.647,1.647,0,0,0-1.165.6,1.922,1.922,0,0,0,.059,2.286L51.1,164.54l-.6.552-5.941-6.912-.008-.01a2.754,2.754,0,0,1-.057-3.335,2.452,2.452,0,0,1,1.727-.9,2.7,2.7,0,0,1,2.035.714l.02.019.018.021,11.87,14.28Z" transform="translate(-43.736 -153.703)" fill="#fff"></path><path id="Path_219_-_Outline" data-name="Path 219 - Outline" d="M60.048,172.754,54.477,170.9l-.039-.044-4.6-5.168.914-.868,4.43,4.973,3.08,1.026-.808-3.129L45.76,153.625a1.647,1.647,0,0,0-1.1-.427c-.044,0-.089,0-.134.005a1.425,1.425,0,0,0-1.01.516,1.7,1.7,0,0,0,.058,2.01l6.059,7.05-.929.851-6.1-7.093-.009-.012a3.107,3.107,0,0,1-.637-1.827,2.907,2.907,0,0,1,.136-.939,2.615,2.615,0,0,1,2.328-1.826c.074-.006.15-.009.225-.009a2.863,2.863,0,0,1,1.056.2,2.954,2.954,0,0,1,.921.579l.031.029.027.032,11.9,14.318Zm-5.319-2.239,4.688,1.562-1.236-4.786L46.334,153.039l-.01-.009a2.471,2.471,0,0,0-1.676-.663c-.063,0-.127,0-.19.008a2.231,2.231,0,0,0-1.572.819,2.531,2.531,0,0,0,.059,3.063l0,0L48.738,163l.276-.253-5.789-6.736,0-.006a2.271,2.271,0,0,1-.451-1.3,1.945,1.945,0,0,1,.4-1.258,1.868,1.868,0,0,1,1.321-.683c.056,0,.113-.007.17-.007a2.059,2.059,0,0,1,.752.142,2.158,2.158,0,0,1,.659.409l.012.011.01.012,11.763,14.153,1.036,4.012-3.963-1.32-.039-.044-4.166-4.676-.272.258Z" transform="translate(-41.958 -151.924)" fill="#fff"></path></g><g id="Group_31" data-name="Group 31" transform="translate(1.686 2.009)"><path id="Path_220" data-name="Path 220" d="M60.526,176.471l-.536-.62,3.136-2.89.536.62Z" transform="translate(-59.683 -172.643)" fill="#fff"></path><path id="Path_220_-_Outline" data-name="Path 220 - Outline" d="M58.036,174.235l-.826-.955,3.461-3.19.826.955Zm-.211-.92.247.286,2.81-2.59-.247-.286Z" transform="translate(-57.21 -170.09)" fill="#fff"></path></g><g id="Group_32" data-name="Group 32" transform="translate(3.217 3.494)"><path id="Path_221" data-name="Path 221" d="M83.6,198.7,73.83,186.931l.611-.541,9.77,11.774Z" transform="translate(-73.523 -186.073)" fill="#fff"></path><path id="Path_221_-_Outline" data-name="Path 221 - Outline" d="M81.1,196.472,71.053,184.358l.943-.834,10.053,12.114Zm-9.437-12.067,9.487,11.433.281-.248-9.487-11.433Z" transform="translate(-71.053 -183.525)" fill="#fff"></path></g><g id="Group_33" data-name="Group 33" transform="translate(11.849 14.168)"><path id="Path_222" data-name="Path 222" d="M152.471,286.678l-.571-.587,3.05-3.161.571.587Z" transform="translate(-151.592 -282.612)" fill="#fff"></path><path id="Path_222_-_Outline" data-name="Path 222 - Outline" d="M150,284.439l-.879-.9,3.357-3.48.879.9Zm-.263-.906.262.27,2.742-2.843-.262-.27Z" transform="translate(-149.116 -280.055)" fill="#fff"></path></g></g><path id="Path_223" data-name="Path 223" d="M107.358,168.675a5.231,5.231,0,0,0-4.755-4.307,5.1,5.1,0,0,0-4.664,2.848q.342.373.684.747a4.291,4.291,0,0,1,3.736-2.758,4.48,4.48,0,0,1,4.243,4.258v.181l.007-.012C106.881,169.3,107.131,169.015,107.358,168.675Z" transform="translate(-91.75 -157.336)" fill="#fefdfd"></path><path id="Path_223_-_Outline" data-name="Path 223 - Outline" d="M104.231,168.8V167.7a4.261,4.261,0,0,0-3.962-4.048h-.056a4.056,4.056,0,0,0-3.536,2.623l-.135.318-.233-.255-.449-.491-.235-.256-.1-.114.071-.137a5.65,5.65,0,0,1,1.968-2.168,5.029,5.029,0,0,1,2.7-.8c.067,0,.134,0,.2,0a4.88,4.88,0,0,1,1.7.386,5.275,5.275,0,0,1,1.473.942,5.65,5.65,0,0,1,1.125,1.4,5.9,5.9,0,0,1,.659,1.757l.018.09-.051.077a9.561,9.561,0,0,1-.6.785l-.143.174Zm-3.962-5.6a3.88,3.88,0,0,1,1.569.337,4.488,4.488,0,0,1,1.355.931,5.136,5.136,0,0,1,1.433,2.829c.121-.148.236-.3.345-.453a5.036,5.036,0,0,0-4.528-4.039c-.06,0-.122,0-.182,0a4.858,4.858,0,0,0-4.2,2.6l.128.14.226.246a4.937,4.937,0,0,1,1.47-1.766,4.023,4.023,0,0,1,2.324-.818Z" transform="translate(-89.598 -155.557)" fill="#fefdfd"></path><g id="Group_35" data-name="Group 35" transform="translate(6.835)"><path id="Path_224" data-name="Path 224" d="M109.42,110.334a3.769,3.769,0,1,1,3.65-3.767A3.714,3.714,0,0,1,109.42,110.334Zm0-6.754a2.989,2.989,0,1,0,2.895,2.988A2.946,2.946,0,0,0,109.42,103.581Z" transform="translate(-105.549 -102.579)" fill="#fefdfd"></path><path id="Path_224_-_Outline" data-name="Path 224 - Outline" d="M107.641,108.777a3.99,3.99,0,1,1,3.871-3.988A3.935,3.935,0,0,1,107.641,108.777Zm0-7.534a3.548,3.548,0,1,0,3.429,3.546A3.493,3.493,0,0,0,107.641,101.242Zm0,6.756a3.21,3.21,0,1,1,3.116-3.209A3.167,3.167,0,0,1,107.641,108Zm0-5.975a2.768,2.768,0,1,0,2.674,2.767A2.724,2.724,0,0,0,107.641,102.023Z" transform="translate(-103.77 -100.8)" fill="#fefdfd"></path></g><path id="Path_225" data-name="Path 225" d="M237.62,169.74a4.889,4.889,0,0,1,9.738.8v3.341a.4.4,0,1,1-.809,0v-3.393a4.089,4.089,0,1,0-8.172.044v.181l-.007-.012C238.1,170.367,237.848,170.081,237.62,169.74Z" transform="translate(-215.985 -158.286)" fill="#fefdfd"></path><path id="Path_225_-_Outline" data-name="Path 225 - Outline" d="M240.6,163.433a4.9,4.9,0,0,1,2,.422A5.106,5.106,0,0,1,244.226,165a5.345,5.345,0,0,1,1.094,1.693,5.46,5.46,0,0,1,.4,2.064V172.1a.626.626,0,1,1-1.252,0v-3.393a3.925,3.925,0,0,0-3.717-3.993l-.147,0a3.96,3.96,0,0,0-3.866,4.04v1.119l-.413-.827-.136-.164a9.566,9.566,0,0,1-.613-.794l-.047-.07.012-.084a5.335,5.335,0,0,1,.573-1.754,5.266,5.266,0,0,1,1.1-1.417,5.087,5.087,0,0,1,1.505-.956,4.949,4.949,0,0,1,1.793-.37ZM245.1,172.3a.191.191,0,0,0,.184-.2v-3.341a4.788,4.788,0,0,0-4.676-4.884h-.083a4.709,4.709,0,0,0-4.527,4.033c.1.147.21.286.322.425a4.573,4.573,0,0,1,.32-1.321,4.5,4.5,0,0,1,.922-1.425,4.3,4.3,0,0,1,1.37-.964,4.122,4.122,0,0,1,1.678-.355c.054,0,.11,0,.164,0a4.163,4.163,0,0,1,1.619.4,4.31,4.31,0,0,1,1.316.961,4.446,4.446,0,0,1,.884,1.391,4.518,4.518,0,0,1,.323,1.687V172.1A.191.191,0,0,0,245.1,172.3Z" transform="translate(-214.127 -156.507)" fill="#fefdfd"></path><g id="Group_36" data-name="Group 36" transform="translate(22.666 0.116)"><path id="Path_226" data-name="Path 226" d="M248.95,107.617a3.652,3.652,0,1,1,3.65,3.767A3.715,3.715,0,0,1,248.95,107.617Zm.755,0a2.9,2.9,0,1,0,2.895-2.988A2.945,2.945,0,0,0,249.705,107.617Z" transform="translate(-248.729 -103.629)" fill="#fefdfd"></path><path id="Path_226_-_Outline" data-name="Path 226 - Outline" d="M250.821,101.85a3.99,3.99,0,1,1-3.871,3.988A3.935,3.935,0,0,1,250.821,101.85Zm0,7.534a3.548,3.548,0,1,0-3.429-3.546A3.493,3.493,0,0,0,250.821,109.384Zm0-6.755a3.21,3.21,0,1,1-3.116,3.209A3.167,3.167,0,0,1,250.821,102.63Zm0,5.975a2.768,2.768,0,1,0-2.674-2.766A2.724,2.724,0,0,0,250.821,108.6Z" transform="translate(-246.95 -101.85)" fill="#fefdfd"></path></g><g id="Group_37" data-name="Group 37" transform="translate(13.46 8.948)"><path id="Path_227" data-name="Path 227" d="M176.13,212.64c.027-.061.053-.122.082-.18l-.031.038A.429.429,0,0,0,176.13,212.64Z" transform="translate(-174.755 -209.061)" fill="#fefdfd"></path><path id="Path_227_-_Outline" data-name="Path 227 - Outline" d="M170.064,201.668l.454-2.136a.642.642,0,0,1,.08-.215l.008-.012.009-.011.03-.036,1.214-1.484-.844,1.721c-.027.054-.051.111-.078.171Z" transform="translate(-169.359 -195.999)" fill="#fefdfd"></path><path id="Path_228" data-name="Path 228" d="M170.673,183.724a5.008,5.008,0,0,0-4.983,5.1v3.341a.4.4,0,1,0,.809,0v-3.393a4.29,4.29,0,0,1,.345-1.694.407.407,0,0,1,.051-.143l.031-.038a4.087,4.087,0,0,1,3.5-2.339,4.177,4.177,0,0,1,4.243,4.258v3.348a.4.4,0,1,0,.809,0v-3.393A4.984,4.984,0,0,0,170.673,183.724Z" transform="translate(-165.469 -183.502)" fill="#fefdfd"></path><path id="Path_228_-_Outline" data-name="Path 228 - Outline" d="M168.808,181.723h.091a4.945,4.945,0,0,1,1.96.442,5.112,5.112,0,0,1,1.6,1.137,5.277,5.277,0,0,1,1.074,1.665,5.367,5.367,0,0,1,.393,2.029v3.393a.626.626,0,1,1-1.252,0v-3.348a4.1,4.1,0,0,0-1.137-2.857A3.757,3.757,0,0,0,168.806,183l-.147,0a3.862,3.862,0,0,0-3.312,2.214l-.012.025-.017.021-.018.022a.265.265,0,0,0-.017.058l0,.024-.009.022a4.055,4.055,0,0,0-.327,1.607v3.393a.626.626,0,1,1-1.252,0v-3.341a5.46,5.46,0,0,1,.4-2.064,5.345,5.345,0,0,1,1.094-1.693,5.106,5.106,0,0,1,1.627-1.147A4.9,4.9,0,0,1,168.808,181.723Zm4.49,8.864a.191.191,0,0,0,.184-.2V187a4.779,4.779,0,0,0-4.591-4.831h-.083a4.543,4.543,0,0,0-3.3,1.432,4.963,4.963,0,0,0-1.372,3.451v3.341a.184.184,0,1,0,.367,0V187a4.5,4.5,0,0,1,.354-1.76.6.6,0,0,1,.076-.195l.007-.011.009-.01.015-.018a4.426,4.426,0,0,1,1.482-1.712,4.2,4.2,0,0,1,2.2-.727c.054,0,.11,0,.164,0a4.122,4.122,0,0,1,1.678.355,4.3,4.3,0,0,1,1.369.964,4.5,4.5,0,0,1,.922,1.425,4.591,4.591,0,0,1,.338,1.738v3.348A.191.191,0,0,0,173.3,190.587Z" transform="translate(-163.69 -181.723)" fill="#fefdfd"></path></g><g id="Group_38" data-name="Group 38" transform="translate(14.618 2.052)"><path id="Path_229" data-name="Path 229" d="M179.81,128.894a3.769,3.769,0,1,1,3.65-3.767A3.714,3.714,0,0,1,179.81,128.894Zm0-6.755a2.989,2.989,0,1,0,2.895,2.988A2.946,2.946,0,0,0,179.81,122.14Z" transform="translate(-175.939 -121.139)" fill="#fefdfd"></path><path id="Path_229_-_Outline" data-name="Path 229 - Outline" d="M178.031,127.337a3.99,3.99,0,1,1,3.871-3.988A3.935,3.935,0,0,1,178.031,127.337Zm0-7.534a3.548,3.548,0,1,0,3.429,3.546A3.493,3.493,0,0,0,178.031,119.8Zm0,6.755a3.21,3.21,0,1,1,3.116-3.209A3.167,3.167,0,0,1,178.031,126.557Zm0-5.975a2.768,2.768,0,1,0,2.674,2.766A2.724,2.724,0,0,0,178.031,120.582Z" transform="translate(-174.16 -119.36)" fill="#fefdfd"></path></g></g></g></g></svg>