<svg xmlns="http://www.w3.org/2000/svg" width="63" height="63" viewBox="0 0 63 63"><g id="vr-Bulk_Verify_Emails" data-name="vr-Bulk Verify Emails" transform="translate(-650 -176)"><circle id="Ellipse_4" data-name="Ellipse 4" cx="31.5" cy="31.5" r="31.5" transform="translate(650 176)" fill="#0386ff"></circle><g id="bulk_verify" transform="translate(657 183)"><g id="Group_12" data-name="Group 12" transform="translate(11.2 10.3)"><g id="Group_11" data-name="Group 11" transform="translate(6.4 8.3)"><path id="Path_10" data-name="Path 10" d="M18,35.2a.43.43,0,0,1-.4-.4,3.06,3.06,0,0,1,2.9-3,.4.4,0,0,1,0,.8,2.05,2.05,0,0,0-2.1,2.1h0a.46.46,0,0,1-.4.5Z" transform="translate(-17.6 -18.6)" fill="#fff" stroke="#fff" stroke-width="0.3"></path><path id="Path_11" data-name="Path 11" d="M22.2,32.6H20.5a.4.4,0,1,1,0-.8h1.7a.43.43,0,0,1,.4.4.37.37,0,0,1-.4.4Z" transform="translate(-17.6 -18.6)" fill="#fff" stroke="#fff" stroke-width="0.3"></path><path id="Path_12" data-name="Path 12" d="M18,36.4a.43.43,0,0,1-.4-.4V34.8a.4.4,0,1,1,.8,0V36a.37.37,0,0,1-.4.4Z" transform="translate(-17.6 -18.6)" fill="#fff" stroke="#fff" stroke-width="0.3"></path><path id="Path_13" data-name="Path 13" d="M30.7,35.2a.43.43,0,0,1-.4-.4,2.05,2.05,0,0,0-2.1-2.1h0a.4.4,0,0,1,0-.8h0a3,3,0,0,1,3,3,.85.85,0,0,1-.5.3Z" transform="translate(-17.6 -18.6)" fill="#fff" stroke="#fff" stroke-width="0.3"></path><path id="Path_14" data-name="Path 14" d="M26.4,32.6a.4.4,0,1,1,0-.8h1.7a.4.4,0,0,1,0,.8Z" transform="translate(-17.6 -18.6)" fill="#fff" stroke="#fff" stroke-width="0.3"></path><path id="Path_15" data-name="Path 15" d="M30.7,36.4a.43.43,0,0,1-.4-.4V34.8a.4.4,0,1,1,.8,0V36a.37.37,0,0,1-.4.4Z" transform="translate(-17.6 -18.6)" fill="#fff" stroke="#fff" stroke-width="0.3"></path><path id="Path_16" data-name="Path 16" d="M29.8,37.3h-11a.4.4,0,0,1,0-.8h11a.43.43,0,0,1,.4.4.37.37,0,0,1-.4.4Z" transform="translate(-17.6 -18.6)" fill="#fff" stroke="#fff" stroke-width="0.3"></path><path id="Path_17" data-name="Path 17" d="M22.2,32.6a.43.43,0,0,1-.4-.4h0V30.8c0-.2.3-.4.5-.4s.3.2.4.4v1.4C22.6,32.5,22.5,32.6,22.2,32.6Z" transform="translate(-17.6 -18.6)" fill="#fff" stroke="#fff" stroke-width="0.3"></path><path id="Path_18" data-name="Path 18" d="M26.4,32.6a.43.43,0,0,1-.4-.4h0V30.8c0-.2.3-.4.5-.4s.3.2.4.4v1.4c0,.3-.2.4-.5.4Z" transform="translate(-17.6 -18.6)" fill="#fff" stroke="#fff" stroke-width="0.3"></path><path id="Path_19" data-name="Path 19" d="M24.3,31.8a5.12,5.12,0,0,1-5.1-5.1c0-.2.3-.4.5-.4s.3.2.4.4a4.31,4.31,0,0,0,4,4.5,4.19,4.19,0,0,0,4.5-4v-.5c0-.2.3-.4.5-.4s.3.2.4.4a5.28,5.28,0,0,1-5.2,5.1Z" transform="translate(-17.6 -18.6)" fill="#fff" stroke="#fff" stroke-width="0.3"></path><path id="Path_20" data-name="Path 20" d="M19.7,27.2a.43.43,0,0,1-.4-.4h0V23c0-.2.3-.4.5-.4s.3.2.4.4v3.8a.66.66,0,0,1-.5.4Z" transform="translate(-17.6 -18.6)" fill="#fff" stroke="#fff" stroke-width="0.3"></path><path id="Path_21" data-name="Path 21" d="M29,27.2a.43.43,0,0,1-.4-.4h0V23c0-.2.3-.4.5-.4s.3.2.4.4v3.8a.66.66,0,0,1-.5.4Z" transform="translate(-17.6 -18.6)" fill="#fff" stroke="#fff" stroke-width="0.3"></path><path id="Path_22" data-name="Path 22" d="M29,23.4a.43.43,0,0,1-.4-.4h0a1.75,1.75,0,0,0-1.7-1.7.4.4,0,1,1,0-.8A2.48,2.48,0,0,1,29.4,23a.43.43,0,0,1-.4.4Z" transform="translate(-17.6 -18.6)" fill="#fff" stroke="#fff" stroke-width="0.3"></path><path id="Path_23" data-name="Path 23" d="M26.9,21.2a.43.43,0,0,1-.4-.4h0V19.1c0-.2.1-.5.4-.5s.5.1.5.4v1.8a.51.51,0,0,1-.5.4Z" transform="translate(-17.6 -18.6)" fill="#fff" stroke="#fff" stroke-width="0.3"></path><path id="Path_24" data-name="Path 24" d="M26.9,19.6H23.5c-.2,0-.4-.3-.4-.5s.2-.3.4-.4h3.4c.2,0,.4.3.4.5a.78.78,0,0,1-.4.4Z" transform="translate(-17.6 -18.6)" fill="#fff" stroke="#fff" stroke-width="0.3"></path><path id="Path_25" data-name="Path 25" d="M19.7,23.4a.43.43,0,0,1-.4-.4h0a4.23,4.23,0,0,1,4.2-4.2c.2,0,.4.3.4.5s-.2.3-.4.4h0a3.37,3.37,0,0,0-3.4,3.4.45.45,0,0,1-.4.3Z" transform="translate(-17.6 -18.6)" fill="#fff" stroke="#fff" stroke-width="0.3"></path><path id="Path_26" data-name="Path 26" d="M29,25.5a.37.37,0,0,1-.3-.1l-1.3-1.3a.38.38,0,0,1,0-.6h0a.38.38,0,0,1,.6,0l1.3,1.3a.37.37,0,0,1,0,.6h0A.37.37,0,0,1,29,25.5Z" transform="translate(-17.6 -18.6)" fill="#fff" stroke="#fff" stroke-width="0.3"></path><path id="Path_27" data-name="Path 27" d="M24.3,25a7.68,7.68,0,0,1-3.6-.9.48.48,0,0,1-.2-.6h0a.48.48,0,0,1,.6-.2h0a6.62,6.62,0,0,0,6.4,0,.45.45,0,1,1,.4.8A7.4,7.4,0,0,1,24.3,25Z" transform="translate(-17.6 -18.6)" fill="#fff" stroke="#fff" stroke-width="0.3"></path><path id="Path_28" data-name="Path 28" d="M19.7,25.5a.43.43,0,0,1-.4-.4h0a.37.37,0,0,1,.1-.3l1.3-1.3a.424.424,0,1,1,.6.6h0L20,25.4a.37.37,0,0,1-.3.1Z" transform="translate(-17.6 -18.6)" fill="#fff" stroke="#fff" stroke-width="0.3"></path><path id="Path_29" data-name="Path 29" d="M23.1,33.5a.37.37,0,0,1-.3-.1l-.8-.9a.38.38,0,0,1,0-.6h0a.38.38,0,0,1,.6,0h0l.9.9a.37.37,0,0,1,0,.6c-.2,0-.3.1-.4.1Z" transform="translate(-17.6 -18.6)" fill="#fff" stroke="#fff" stroke-width="0.3"></path><path id="Path_30" data-name="Path 30" d="M23.1,33.5a.43.43,0,0,1-.4-.4c0-.2.1-.4.3-.4l1.3-.4a.412.412,0,0,1,.2.8h0l-1.3.4Z" transform="translate(-17.6 -18.6)" fill="#fff" stroke="#fff" stroke-width="0.3"></path><path id="Path_31" data-name="Path 31" d="M25.6,33.5a.43.43,0,0,1-.4-.4.37.37,0,0,1,.1-.3l.9-.9a.424.424,0,1,1,.6.6h0l-.8.8C25.8,33.5,25.7,33.5,25.6,33.5Z" transform="translate(-17.6 -18.6)" fill="#fff" stroke="#fff" stroke-width="0.3"></path><path id="Path_32" data-name="Path 32" d="M25.6,33.5h-.1l-1.3-.4a.37.37,0,0,1-.2-.5.55.55,0,0,1,.5-.3l1.3.4a.45.45,0,0,1,.2.6.52.52,0,0,1-.4.2Z" transform="translate(-17.6 -18.6)" fill="#fff" stroke="#fff" stroke-width="0.3"></path><path id="Path_33" data-name="Path 33" d="M29.8,37.3a.4.4,0,0,1,0-.8h0a.43.43,0,0,0,.4-.4.4.4,0,0,1,.8,0,1.15,1.15,0,0,1-1.2,1.2Z" transform="translate(-17.6 -18.6)" fill="#fff" stroke="#fff" stroke-width="0.3"></path><path id="Path_34" data-name="Path 34" d="M18.9,37.3A1.32,1.32,0,0,1,17.6,36h0c0-.2.3-.4.5-.4s.3.2.4.4a.43.43,0,0,0,.4.4h0a.43.43,0,0,1,.4.4.46.46,0,0,1-.4.5Z" transform="translate(-17.6 -18.6)" fill="#fff" stroke="#fff" stroke-width="0.3"></path><path id="Path_35" data-name="Path 35" d="M24.4,35.2a.43.43,0,0,1-.4-.4h0a.43.43,0,0,1,.4-.4h0a.4.4,0,0,1,0,.8Z" transform="translate(-17.6 -18.6)" fill="#fff" stroke="#fff" stroke-width="0.3"></path></g><path id="Path_36" data-name="Path 36" d="M14.2,25.5a.4.4,0,1,1,0-.8h0a.43.43,0,0,1,.4.4h0C14.7,25.3,14.5,25.5,14.2,25.5Z" transform="translate(-11.2 -10.3)" fill="#fff" stroke="#fff" stroke-width="0.1"></path><path id="Path_37" data-name="Path 37" d="M14.2,26.7a2.93,2.93,0,0,1-3-2.9,3,3,0,0,1,5.9-.1h0a2.86,2.86,0,0,1-2.9,3Zm0-5a2.1,2.1,0,1,0,2.1,2.1h0a2.05,2.05,0,0,0-2.1-2.1Z" transform="translate(-11.2 -10.3)" fill="#fff" stroke="#fff" stroke-width="0.2"></path><path id="Path_38" data-name="Path 38" d="M14.2,24.2a.43.43,0,0,1-.4-.4h0V22.5a.4.4,0,1,1,.8,0v1.3a.43.43,0,0,1-.4.4Z" transform="translate(-11.2 -10.3)" fill="#fff" stroke="#fff" stroke-width="0.1"></path><path id="Path_39" data-name="Path 39" d="M18,24.2H16.7c-.2,0-.4-.3-.4-.5s.2-.3.4-.4H18c.2,0,.4.3.4.5A.43.43,0,0,1,18,24.2Z" transform="translate(-11.2 -10.3)" fill="#fff" stroke="#fff" stroke-width="0.2"></path><path id="Path_40" data-name="Path 40" d="M34.5,25.5a.4.4,0,1,1,0-.8h0a.4.4,0,1,1,0,.8Z" transform="translate(-11.2 -10.3)" fill="#fff" stroke="#fff" stroke-width="0.1"></path><path id="Path_41" data-name="Path 41" d="M34.5,26.7a3,3,0,1,1-.1-5.9,3,3,0,0,1,3,2.9h0a2.86,2.86,0,0,1-2.9,3Zm0-5a2.1,2.1,0,1,0,2.1,2.1h0a2.05,2.05,0,0,0-2.1-2.1Z" transform="translate(-11.2 -10.3)" fill="#fff" stroke="#fff" stroke-width="0.2"></path><path id="Path_42" data-name="Path 42" d="M34.5,24.2a.43.43,0,0,1-.4-.4h0V22.5a.4.4,0,0,1,.8,0v1.3a.43.43,0,0,1-.4.4Z" transform="translate(-11.2 -10.3)" fill="#fff" stroke="#fff" stroke-width="0.1"></path><path id="Path_43" data-name="Path 43" d="M31.9,24.2H30.6c-.2,0-.4-.3-.4-.5s.2-.3.4-.4h1.3c.2,0,.4.3.4.5A.43.43,0,0,1,31.9,24.2Z" transform="translate(-11.2 -10.3)" fill="#fff" stroke="#fff" stroke-width="0.2"></path><path id="Path_44" data-name="Path 44" d="M31.8,18a.4.4,0,0,1,0-.8h0a.4.4,0,1,1,0,.8Z" transform="translate(-11.2 -10.3)" fill="#fff" stroke="#fff" stroke-width="0.1"></path><path id="Path_45" data-name="Path 45" d="M31.8,19.3h0a3,3,0,1,1,3-3h0a3.08,3.08,0,0,1-3,3Zm0-5.1a2.1,2.1,0,1,0,2.1,2.1h0A2.11,2.11,0,0,0,31.8,14.2Z" transform="translate(-11.2 -10.3)" fill="#fff" stroke="#fff" stroke-width="0.2"></path><path id="Path_46" data-name="Path 46" d="M31.8,16.8a.43.43,0,0,1-.4-.4h0V15.1a.43.43,0,0,1,.4-.4h0a.43.43,0,0,1,.4.4h0v1.3a.43.43,0,0,1-.4.4Z" transform="translate(-11.2 -10.3)" fill="#fff" stroke="#fff" stroke-width="0.1"></path><path id="Path_47" data-name="Path 47" d="M29.1,19.4a.43.43,0,0,1-.4-.4.37.37,0,0,1,.1-.3l.9-.9a.47.47,0,0,1,.6.1.45.45,0,0,1,0,.5h0l-.9.9a.37.37,0,0,1-.3.1Z" transform="translate(-11.2 -10.3)" fill="#fff" stroke="#fff" stroke-width="0.2"></path><path id="Path_48" data-name="Path 48" d="M24.4,14.9a.43.43,0,0,1-.4-.4h0a.43.43,0,0,1,.4-.4h0a.4.4,0,1,1,0,.8Z" transform="translate(-11.2 -10.3)" fill="#fff" stroke="#fff" stroke-width="0.1"></path><path id="Path_49" data-name="Path 49" d="M24.3,16.2h0a2.93,2.93,0,0,1-3-2.9,3,3,0,0,1,6,0v.1a2.91,2.91,0,0,1-3,2.8Zm0-5.1a2.1,2.1,0,1,0,2.1,2.1h0a2.11,2.11,0,0,0-2.1-2.1Z" transform="translate(-11.2 -10.3)" fill="#fff" stroke="#fff" stroke-width="0.2"></path><path id="Path_50" data-name="Path 50" d="M24.3,13.7a.43.43,0,0,1-.4-.4h0V12c0-.2.1-.5.4-.5s.5.1.5.4v1.4a.46.46,0,0,1-.5.4Z" transform="translate(-11.2 -10.3)" fill="#fff" stroke="#fff" stroke-width="0.1"></path><path id="Path_51" data-name="Path 51" d="M24.3,17.5a.43.43,0,0,1-.4-.4h0V15.8a.4.4,0,0,1,.8,0V17C24.8,17.3,24.6,17.5,24.3,17.5Z" transform="translate(-11.2 -10.3)" fill="#fff" stroke="#fff" stroke-width="0.2"></path><path id="Path_52" data-name="Path 52" d="M16.9,18a.43.43,0,0,1-.4-.4h0a.43.43,0,0,1,.4-.4h0a.43.43,0,0,1,.4.4h0a.43.43,0,0,1-.4.4Z" transform="translate(-11.2 -10.3)" fill="#fff" stroke="#fff" stroke-width="0.1"></path><path id="Path_53" data-name="Path 53" d="M16.9,19.3a2.93,2.93,0,0,1-3-2.9,3,3,0,1,1,5.9-.1h0a2.92,2.92,0,0,1-2.9,3Zm0-5.1A2.1,2.1,0,1,0,19,16.3h0A2.18,2.18,0,0,0,16.9,14.2Z" transform="translate(-11.2 -10.3)" fill="#fff" stroke="#fff" stroke-width="0.2"></path><path id="Path_54" data-name="Path 54" d="M16.9,16.7a.43.43,0,0,1-.4-.4h0V15a.4.4,0,1,1,.8,0v1.3a.37.37,0,0,1-.4.4Z" transform="translate(-11.2 -10.3)" fill="#fff" stroke="#fff" stroke-width="0.1"></path><path id="Path_55" data-name="Path 55" d="M19.6,19.4a.37.37,0,0,1-.3-.1l-.9-.9a.47.47,0,0,1,.1-.6.45.45,0,0,1,.5,0l.9.9a.4.4,0,0,1-.3.7Z" transform="translate(-11.2 -10.3)" fill="#fff" stroke="#fff" stroke-width="0.2"></path></g></g></g></svg>