<svg xmlns="http://www.w3.org/2000/svg" width="63" height="63" viewBox="0 0 63 63"><g id="sr-Bulk_Find_Emails" data-name="sr-Bulk Find Emails" transform="translate(-146 -345)"><circle id="Ellipse_3" data-name="Ellipse 3" cx="31.5" cy="31.5" r="31.5" transform="translate(146 345)" fill="#2dce89"></circle><g id="bulk_find" transform="translate(153 352)"><g id="Group_16" data-name="Group 16" transform="translate(12 11)"><g id="Group_15" data-name="Group 15" transform="translate(5.899 8)"><path id="Path_60" data-name="Path 60" d="M18.4,34.6a.43.43,0,0,1-.4-.4h0a2.8,2.8,0,0,1,2.8-2.8h0a.4.4,0,1,1,0,.8h0a2,2,0,0,0-2,2C18.7,34.4,18.6,34.6,18.4,34.6Z" transform="translate(-17.899 -19)" fill="#fff" stroke="#fff" stroke-width="0.3"></path><path id="Path_61" data-name="Path 61" d="M22.3,32.2H20.7a.4.4,0,1,1,0-.8h1.6a.43.43,0,0,1,.4.4.37.37,0,0,1-.4.4Z" transform="translate(-17.899 -19)" fill="#fff" stroke="#fff" stroke-width="0.3"></path><path id="Path_62" data-name="Path 62" d="M18.4,35.8a.43.43,0,0,1-.4-.4h0V34.3a.4.4,0,1,1,.8,0h0v1.1A.43.43,0,0,1,18.4,35.8Z" transform="translate(-17.899 -19)" fill="#fff" stroke="#fff" stroke-width="0.3"></path><path id="Path_63" data-name="Path 63" d="M30.3,34.6a.43.43,0,0,1-.4-.4h0a2,2,0,0,0-2-2,.4.4,0,0,1,0-.8h0a2.8,2.8,0,0,1,2.8,2.8h0C30.7,34.4,30.6,34.5,30.3,34.6Z" transform="translate(-17.899 -19)" fill="#fff" stroke="#fff" stroke-width="0.3"></path><path id="Path_64" data-name="Path 64" d="M26.3,32.2a.4.4,0,0,1,0-.8h1.6a.4.4,0,0,1,0,.8Z" transform="translate(-17.899 -19)" fill="#fff" stroke="#fff" stroke-width="0.3"></path><path id="Path_65" data-name="Path 65" d="M30.3,35.8a.43.43,0,0,1-.4-.4h0V34.3a.4.4,0,1,1,.8,0h0v1.1A.43.43,0,0,1,30.3,35.8Z" transform="translate(-17.899 -19)" fill="#fff" stroke="#fff" stroke-width="0.3"></path><path id="Path_66" data-name="Path 66" d="M29.5,36.6H19.1a.4.4,0,1,1,0-.8H29.5a.4.4,0,0,1,0,.8Z" transform="translate(-17.899 -19)" fill="#fff" stroke="#fff" stroke-width="0.3"></path><path id="Path_67" data-name="Path 67" d="M22.3,32.2a.43.43,0,0,1-.4-.4V30.5a.4.4,0,0,1,.8,0v1.3a.37.37,0,0,1-.4.4Z" transform="translate(-17.899 -19)" fill="#fff" stroke="#fff" stroke-width="0.3"></path><path id="Path_68" data-name="Path 68" d="M26.3,32.2a.43.43,0,0,1-.4-.4V30.5a.4.4,0,0,1,.8,0v1.3A.43.43,0,0,1,26.3,32.2Z" transform="translate(-17.899 -19)" fill="#fff" stroke="#fff" stroke-width="0.3"></path><path id="Path_69" data-name="Path 69" d="M24.3,31.4a4.74,4.74,0,0,1-4.8-4.8h0a.4.4,0,0,1,.8,0h0a4,4,0,0,0,8,.2v-.1a.4.4,0,0,1,.8,0A4.85,4.85,0,0,1,24.3,31.4Z" transform="translate(-17.899 -19)" fill="#fff" stroke="#fff" stroke-width="0.3"></path><path id="Path_70" data-name="Path 70" d="M19.9,27a.43.43,0,0,1-.4-.4V23a.4.4,0,1,1,.8,0v3.6a.37.37,0,0,1-.4.4Z" transform="translate(-17.899 -19)" fill="#fff" stroke="#fff" stroke-width="0.3"></path><path id="Path_71" data-name="Path 71" d="M28.7,27a.43.43,0,0,1-.4-.4V23a.4.4,0,1,1,.8,0v3.6a.37.37,0,0,1-.4.4Z" transform="translate(-17.899 -19)" fill="#fff" stroke="#fff" stroke-width="0.3"></path><path id="Path_72" data-name="Path 72" d="M28.7,23.4a.43.43,0,0,1-.4-.4h0a1.58,1.58,0,0,0-1.6-1.6h0a.4.4,0,0,1,0-.8A2.43,2.43,0,0,1,29.1,23a.37.37,0,0,1-.4.4Z" transform="translate(-17.899 -19)" fill="#fff" stroke="#fff" stroke-width="0.3"></path><path id="Path_73" data-name="Path 73" d="M26.7,21.4a.43.43,0,0,1-.4-.4V19.4a.4.4,0,1,1,.8,0V21a.37.37,0,0,1-.4.4Z" transform="translate(-17.899 -19)" fill="#fff" stroke="#fff" stroke-width="0.3"></path><path id="Path_74" data-name="Path 74" d="M26.7,19.8H23.5a.4.4,0,0,1,0-.8h3.2a.4.4,0,0,1,0,.8Z" transform="translate(-17.899 -19)" fill="#fff" stroke="#fff" stroke-width="0.3"></path><path id="Path_75" data-name="Path 75" d="M19.9,23.4a.43.43,0,0,1-.4-.4h0a4,4,0,0,1,4-4,.4.4,0,0,1,0,.8h0A3.16,3.16,0,0,0,20.3,23h0a.37.37,0,0,1-.4.4Z" transform="translate(-17.899 -19)" fill="#fff" stroke="#fff" stroke-width="0.3"></path><path id="Path_76" data-name="Path 76" d="M28.7,25.4a.37.37,0,0,1-.3-.1l-1.2-1.2a.424.424,0,1,1,.6-.6h0L29,24.7c.2.1.2.4,0,.6h0C28.9,25.3,28.8,25.4,28.7,25.4Z" transform="translate(-17.899 -19)" fill="#fff" stroke="#fff" stroke-width="0.3"></path><path id="Path_77" data-name="Path 77" d="M24.3,25a8.08,8.08,0,0,1-3.4-.8.381.381,0,0,1,.3-.7,6.37,6.37,0,0,0,6,0,.381.381,0,1,1,.3.7,6.32,6.32,0,0,1-3.2.8Z" transform="translate(-17.899 -19)" fill="#fff" stroke="#fff" stroke-width="0.3"></path><path id="Path_78" data-name="Path 78" d="M19.9,25.4a.43.43,0,0,1-.4-.4.37.37,0,0,1,.1-.3l1.2-1.2a.38.38,0,0,1,.6,0h0a.37.37,0,0,1,0,.6l-1.2,1.2a1,1,0,0,1-.3.1Z" transform="translate(-17.899 -19)" fill="#fff" stroke="#fff" stroke-width="0.3"></path><path id="Path_79" data-name="Path 79" d="M23.1,33a.37.37,0,0,1-.3-.1l-.8-.8a.47.47,0,0,1,.1-.6.45.45,0,0,1,.5,0h0l.8.8a.38.38,0,0,1,0,.6C23.3,32.9,23.2,33,23.1,33Z" transform="translate(-17.899 -19)" fill="#fff" stroke="#fff" stroke-width="0.3"></path><path id="Path_80" data-name="Path 80" d="M23.1,33a.43.43,0,0,1-.4-.4c0-.2.1-.3.3-.4l1.2-.4a.37.37,0,0,1,.5.2h0c.1.2,0,.4-.3.5h0l-1.1.5Z" transform="translate(-17.899 -19)" fill="#fff" stroke="#fff" stroke-width="0.3"></path><path id="Path_81" data-name="Path 81" d="M25.5,33a.43.43,0,0,1-.4-.4.37.37,0,0,1,.1-.3l.8-.8a.47.47,0,0,1,.6.1.45.45,0,0,1,0,.5l-.8.8C25.7,32.9,25.6,33,25.5,33Z" transform="translate(-17.899 -19)" fill="#fff" stroke="#fff" stroke-width="0.3"></path><path id="Path_82" data-name="Path 82" d="M25.5,33h-.1l-1.2-.4a.412.412,0,0,1,.2-.8h0l1.2.4a.55.55,0,0,1,.3.5h0C25.8,32.9,25.7,33,25.5,33Z" transform="translate(-17.899 -19)" fill="#fff" stroke="#fff" stroke-width="0.3"></path><path id="Path_83" data-name="Path 83" d="M29.5,36.6a.4.4,0,1,1,0-.8.43.43,0,0,0,.4-.4h0a.4.4,0,1,1,.8,0h0a1.22,1.22,0,0,1-1.2,1.2Z" transform="translate(-17.899 -19)" fill="#fff" stroke="#fff" stroke-width="0.3"></path><path id="Path_84" data-name="Path 84" d="M19.1,36.6a1.16,1.16,0,0,1-1.2-1.2h0a.4.4,0,1,1,.8,0,.43.43,0,0,0,.4.4h0a.43.43,0,0,1,.4.4.37.37,0,0,1-.4.4Z" transform="translate(-17.899 -19)" fill="#fff" stroke="#fff" stroke-width="0.3"></path><path id="Path_85" data-name="Path 85" d="M24.4,34.6a.35.35,0,0,1-.3-.5.32.32,0,0,1,.3-.3h0a.412.412,0,0,1,.2.8Z" transform="translate(-17.899 -19)" fill="#fff" stroke="#fff" stroke-width="0.3"></path></g><path id="Path_86" data-name="Path 86" d="M14.8,25.4a.4.4,0,0,1,0-.8h0a.4.4,0,0,1,0,.8Z" transform="translate(-12 -11)" fill="#fff" stroke="#fff" stroke-width="0.1"></path><path id="Path_87" data-name="Path 87" d="M14.8,26.6a2.8,2.8,0,1,1,2.8-2.8h0a2.93,2.93,0,0,1-2.8,2.8Zm0-4.8a2,2,0,1,0,2,2h0A2,2,0,0,0,14.8,21.8Z" transform="translate(-12 -11)" fill="#fff" stroke="#fff" stroke-width="0.2"></path><path id="Path_88" data-name="Path 88" d="M14.8,24.2a.43.43,0,0,1-.4-.4V22.6a.4.4,0,1,1,.8,0v1.2a.43.43,0,0,1-.4.4Z" transform="translate(-12 -11)" fill="#fff" stroke="#fff" stroke-width="0.1"></path><path id="Path_89" data-name="Path 89" d="M18.4,24.2H17.2a.4.4,0,0,1,0-.8h1.2a.43.43,0,0,1,.4.4C18.7,24,18.6,24.2,18.4,24.2Z" transform="translate(-12 -11)" fill="#fff" stroke="#fff" stroke-width="0.2"></path><path id="Path_90" data-name="Path 90" d="M33.9,25.4a.4.4,0,1,1,0-.8h0a.43.43,0,0,1,.4.4.37.37,0,0,1-.4.4Z" transform="translate(-12 -11)" fill="#fff" stroke="#fff" stroke-width="0.1"></path><path id="Path_91" data-name="Path 91" d="M33.9,26.6a2.8,2.8,0,0,1,0-5.6,2.73,2.73,0,0,1,2.8,2.8h0a2.8,2.8,0,0,1-2.8,2.8Zm0-4.8a2,2,0,1,0,2,2h0A2,2,0,0,0,33.9,21.8Z" transform="translate(-12 -11)" fill="#fff" stroke="#fff" stroke-width="0.2"></path><path id="Path_92" data-name="Path 92" d="M33.9,24.2a.43.43,0,0,1-.4-.4h0V22.6a.4.4,0,0,1,.8,0v1.2a.43.43,0,0,1-.4.4Z" transform="translate(-12 -11)" fill="#fff" stroke="#fff" stroke-width="0.1"></path><path id="Path_93" data-name="Path 93" d="M31.5,24.2H30.3a.4.4,0,0,1,0-.8h1.2a.4.4,0,0,1,0,.8Z" transform="translate(-12 -11)" fill="#fff" stroke="#fff" stroke-width="0.2"></path><path id="Path_94" data-name="Path 94" d="M31.4,18.3a.43.43,0,0,1-.4-.4h0a.43.43,0,0,1,.4-.4h0a.4.4,0,0,1,0,.8Z" transform="translate(-12 -11)" fill="#fff" stroke="#fff" stroke-width="0.1"></path><path id="Path_95" data-name="Path 95" d="M31.4,19.5h0a2.8,2.8,0,1,1,2.8-2.8h0a2.86,2.86,0,0,1-2.8,2.8Zm0-4.8a2,2,0,1,0,2,2h0a2,2,0,0,0-2-2Z" transform="translate(-12 -11)" fill="#fff" stroke="#fff" stroke-width="0.2"></path><path id="Path_96" data-name="Path 96" d="M31.4,17.1a.43.43,0,0,1-.4-.4h0V15.5a.43.43,0,0,1,.4-.4h0a.43.43,0,0,1,.4.4v1.2a.43.43,0,0,1-.4.4Z" transform="translate(-12 -11)" fill="#fff" stroke="#fff" stroke-width="0.1"></path><path id="Path_97" data-name="Path 97" d="M28.9,19.7a.43.43,0,0,1-.4-.4.37.37,0,0,1,.1-.3l.9-.8a.47.47,0,0,1,.6.1.45.45,0,0,1,0,.5h0l-.8.9C29.1,19.6,29,19.7,28.9,19.7Z" transform="translate(-12 -11)" fill="#fff" stroke="#fff" stroke-width="0.2"></path><path id="Path_98" data-name="Path 98" d="M24.4,15.4a.4.4,0,0,1,0-.8h0a.4.4,0,0,1,0,.8Z" transform="translate(-12 -11)" fill="#fff" stroke="#fff" stroke-width="0.1"></path><path id="Path_99" data-name="Path 99" d="M24.3,16.6h0a2.8,2.8,0,1,1,2.8-2.8h0a2.8,2.8,0,0,1-2.8,2.8Zm0-4.8a2,2,0,1,0,2,2h0A2,2,0,0,0,24.3,11.8Z" transform="translate(-12 -11)" fill="#fff" stroke="#fff" stroke-width="0.2"></path><path id="Path_100" data-name="Path 100" d="M24.3,14.2a.43.43,0,0,1-.4-.4h0V12.6a.412.412,0,0,1,.8-.2v1.3c0,.3-.1.5-.4.5Z" transform="translate(-12 -11)" fill="#fff" stroke="#fff" stroke-width="0.1"></path><path id="Path_101" data-name="Path 101" d="M24.3,17.8a.43.43,0,0,1-.4-.4V16.2a.4.4,0,0,1,.8,0v1.2a.37.37,0,0,1-.4.4Z" transform="translate(-12 -11)" fill="#fff" stroke="#fff" stroke-width="0.2"></path><path id="Path_102" data-name="Path 102" d="M17.3,18.3a.4.4,0,0,1,0-.8h0a.4.4,0,1,1,0,.8Z" transform="translate(-12 -11)" fill="#fff" stroke="#fff" stroke-width="0.1"></path><path id="Path_103" data-name="Path 103" d="M17.3,19.5a2.8,2.8,0,1,1,2.8-2.8h0a2.8,2.8,0,0,1-2.8,2.8Zm0-4.8a2,2,0,1,0,2,2h0a2,2,0,0,0-2-2Z" transform="translate(-12 -11)" fill="#fff" stroke="#fff" stroke-width="0.2"></path><path id="Path_104" data-name="Path 104" d="M17.3,17.1a.43.43,0,0,1-.4-.4V15.5a.4.4,0,0,1,.8,0h0v1.2a.43.43,0,0,1-.4.4Z" transform="translate(-12 -11)" fill="#fff" stroke="#fff" stroke-width="0.1"></path><path id="Path_105" data-name="Path 105" d="M19.8,19.7a.37.37,0,0,1-.3-.1l-.8-.9a.47.47,0,0,1,.1-.6.45.45,0,0,1,.5,0l.9.8a.64.64,0,0,1,0,.6C20,19.6,19.9,19.7,19.8,19.7Z" transform="translate(-12 -11)" fill="#fff" stroke="#fff" stroke-width="0.2"></path></g></g></g></svg>