<svg xmlns="http://www.w3.org/2000/svg" width="63" height="63" viewBox="0 0 63 63"><g id="sr-Domain_email_Search_Extension" data-name="sr-Domain  email Search Extension" transform="translate(7.55 7.35)"><circle id="Ellipse_8" data-name="Ellipse 8" cx="31.5" cy="31.5" r="31.5" transform="translate(-7.55 -7.35)" fill="#2dce89"></circle><path id="Path_452" data-name="Path 452" d="M29.11,34.16a4.9,4.9,0,1,1,3.465-1.435A4.9,4.9,0,0,1,29.11,34.16Zm0-8.33a3.419,3.419,0,1,0,.02,0Z" fill="#fff"></path><path id="Path_453" data-name="Path 453" d="M31.19,32.37l1-1,4,4.05-1,1Z" fill="#fff"></path><path id="Path_454" data-name="Path 454" d="M23.48,35.4A11.76,11.76,0,1,1,35.23,23.63a9.445,9.445,0,0,1-.07,1.3l-1.46-.19a6.889,6.889,0,0,0,.06-1.11A10.29,10.29,0,1,0,23.47,34Z" fill="#fff"></path><path id="Path_455" data-name="Path 455" d="M23.48,35.4c-2.29,0-4.25-2.38-5.24-6.38a23,23,0,0,1,0-10.76c1-4,3-6.38,5.24-6.38s4.25,2.39,5.24,6.38a19.37,19.37,0,0,1,.53,3.12l-1.47.13a17.791,17.791,0,0,0-.48-2.89c-.8-3.2-2.3-5.27-3.82-5.27s-3,2.07-3.82,5.27a21.66,21.66,0,0,0,0,10c.8,3.2,2.3,5.27,3.82,5.27Z" fill="#fff"></path><path id="Path_456" data-name="Path 456" d="M23.48,19.66a19.08,19.08,0,0,1-8.93-2l.71-1.29a20,20,0,0,0,8.22,1.767A20,20,0,0,0,31.7,16.37l.71,1.29A19.08,19.08,0,0,1,23.48,19.66Z" fill="#fff"></path><path id="Path_457" data-name="Path 457" d="M22.74,12.66h1.47v11H22.74Z" fill="#fff"></path><path id="Path_458" data-name="Path 458" d="M12.48,22.89H24.21v1.47H12.48Z" fill="#fff"></path><path id="Path_459" data-name="Path 459" d="M15.26,30.9l-.71-1.24a15.687,15.687,0,0,1,4.25-1.49,21.852,21.852,0,0,1,2.41-.35l.13,1.46a21.228,21.228,0,0,0-2.24.33A13.8,13.8,0,0,0,15.26,31Z" fill="#fff"></path><path id="Path_460" data-name="Path 460" d="M30.79,27.71a2.35,2.35,0,1,0-.55,3.74.15.15,0,0,0,.06-.2.14.14,0,0,0-.19,0,2.06,2.06,0,1,1,1.09-1.83,1.939,1.939,0,0,1-.13.71.47.47,0,0,1-.36.26.38.38,0,0,1-.39-.37V28.46a.14.14,0,1,0-.28,0v.14a1.2,1.2,0,1,0-.16,1.69,1.379,1.379,0,0,0,.17-.17.66.66,0,0,0,.65.51.74.74,0,0,0,.62-.41,2.2,2.2,0,0,0,.16-.84,2.309,2.309,0,0,0-.69-1.67Zm-1.67,2.57a.91.91,0,1,1,.643-.267A.91.91,0,0,1,29.12,30.28Z" fill="#fff"></path><path id="Path_461" data-name="Path 461" d="M29.12,31.77a2.39,2.39,0,1,1,2.41-2.4,2.251,2.251,0,0,1-.16.85.82.82,0,0,1-.66.44A.71.71,0,0,1,30,30.2l-.12.11a1.18,1.18,0,0,1-.9.29,1.229,1.229,0,0,1-.84-.43,1.27,1.27,0,0,1-.29-.9,1.2,1.2,0,0,1,.44-.84,1.18,1.18,0,0,1,.9-.29,1.21,1.21,0,0,1,.76.36.21.21,0,0,1,.19-.19.16.16,0,0,1,.13.06.15.15,0,0,1,0,.13V30a.35.35,0,0,0,.35.35.46.46,0,0,0,.33-.23,2.061,2.061,0,0,0,.12-.7A2,2,0,1,0,30,31.25a.17.17,0,0,1,.14,0,.15.15,0,0,1,.11.08.17.17,0,0,1,0,.14.14.14,0,0,1-.09.11A2.35,2.35,0,0,1,29.12,31.77Zm0-4.71a2.34,2.34,0,1,0,1.09,4.4V31.4a.079.079,0,0,0-.13-.08,2.13,2.13,0,1,1,.86-2.83,2.18,2.18,0,0,1,.25,1,2,2,0,0,1-.13.73.51.51,0,0,1-.4.28.43.43,0,0,1-.43-.43V28.46a.11.11,0,0,0,0-.08h-.07a.09.09,0,0,0-.1.08v.27L30,28.65a1.08,1.08,0,0,0-.78-.41,1.154,1.154,0,1,0-.19,2.3,1.11,1.11,0,0,0,1-.43l.06-.07v.08a.63.63,0,0,0,.61.48.74.74,0,0,0,.59-.39,2.08,2.08,0,0,0,.14-.82,2.334,2.334,0,0,0-2.28-2.33Zm0,3.26a.9.9,0,1,1,.1,0Zm0-1.82a.87.87,0,1,0,.615.255A.87.87,0,0,0,29.12,28.5Z" fill="#fff"></path></g></svg>