<svg xmlns="http://www.w3.org/2000/svg" width="63" height="63" viewBox="0 0 63 63"><g id="Group_21" data-name="Group 21" transform="translate(-3382 323)"><g id="Email-Extractor-Icon" transform="translate(3382 -323)"><circle id="Ellipse_1" data-name="Ellipse 1" cx="31.5" cy="31.5" r="31.5" fill="#2dce89"></circle><path id="Path_210" data-name="Path 210" d="M89.19,282.38a.258.258,0,0,0,.129.016A.7.7,0,0,1,89.19,282.38Z" transform="translate(-75.143 -237.905)" fill="#fff"></path><path id="Path_6" data-name="Path 6" d="M101.2,185.09H81a2.9,2.9,0,0,0-2.9,2.9v9.7a2.992,2.992,0,0,0,1.244,2.43,4.395,4.395,0,0,0,.5.293h0a.706.706,0,0,0,.129.016h22.086a1.093,1.093,0,0,0,.66-.221,3,3,0,0,0,1.373-2.52v-9.7a2.9,2.9,0,0,0-2.9-2.9Zm-20.3,1.3h20.3a1.091,1.091,0,0,1,.5.1l-9.9,6.7a2.338,2.338,0,0,1-.8.2,1.89,1.89,0,0,1-.8-.2l-9.8-6.7A.754.754,0,0,1,80.9,186.389Zm-1.6,11.3v-9.7a1.7,1.7,0,0,1,.1-.7l10.2,6.9a2.306,2.306,0,0,0,1.4.4,3.279,3.279,0,0,0,1.4-.4l10.2-6.9a1.815,1.815,0,0,1,.2.7v9.718a1.547,1.547,0,0,1-1.559,1.418H80.751a1.438,1.438,0,0,1-1.452-1.418A.166.166,0,0,0,79.3,197.69Z" transform="translate(-65.799 -155.938)" fill="#fff"></path><path id="Path_7" data-name="Path 7" d="M86.474,280.813a.912.912,0,0,1-.5-.293,4.4,4.4,0,0,0,.5.293Z" transform="translate(-72.43 -236.338)" fill="#fff"></path><path id="Path_8" data-name="Path 8" d="M146.456,154.36h-20.2a2.9,2.9,0,0,0-2.9,2.9v.958l.233.041c.315-.009.646-.022.967-.035v-.964a1.7,1.7,0,0,1,.1-.7l2.385,1.613c.209,0,.417.011.63.024.592.032,1.183.087,1.772.15l-3.78-2.586a.754.754,0,0,1,.5-.1h20.289a1.092,1.092,0,0,1,.5.1l-5.087,3.443a4.07,4.07,0,0,1,.725.918l5.262-3.561a1.814,1.814,0,0,1,.2.7v9.718a1.547,1.547,0,0,1-1.559,1.417h-3.347c-.009.435-.017.868-.027,1.3h4.213a1.093,1.093,0,0,0,.66-.221,3,3,0,0,0,1.373-2.52v-9.7a2.9,2.9,0,0,0-2.912-2.9Z" transform="translate(-103.931 -130.048)" fill="#fff"></path><path id="Path_9" data-name="Path 9" d="M191.405,123.72H171.2a2.9,2.9,0,0,0-2.9,2.9v.958l.233.041c.323-.009.644-.022.967-.035v-.964a1.7,1.7,0,0,1,.1-.7l2.385,1.613c.208,0,.417.013.63.024.592.033,1.183.088,1.773.158l-3.78-2.588a.754.754,0,0,1,.5-.1h20.3a1.092,1.092,0,0,1,.5.1l-5.087,3.443a4.054,4.054,0,0,1,.723.918l5.264-3.561a1.814,1.814,0,0,1,.2.7v9.7a.058.058,0,0,1,0,.017,1.545,1.545,0,0,1-1.558,1.417h-3.367c-.008.435-.017.868-.025,1.3h4.213a1.093,1.093,0,0,0,.66-.22,3,3,0,0,0,1.373-2.52v-9.7a2.9,2.9,0,0,0-2.895-2.9Z" transform="translate(-141.793 -104.234)" fill="#fff"></path><rect id="Rectangle_11" data-name="Rectangle 11" width="8.648" height="1.301" rx="0.65" transform="translate(14.852 14.484)" fill="#fff"></rect><rect id="Rectangle_12" data-name="Rectangle 12" width="8.648" height="1.301" rx="0.65" transform="translate(14.81 17.104)" fill="#fff"></rect><rect id="Rectangle_13" data-name="Rectangle 13" width="8.648" height="1.301" rx="0.65" transform="translate(14.852 19.695)" fill="#fff"></rect></g></g></svg>