<svg xmlns="http://www.w3.org/2000/svg" width="373.54" height="373.54" viewBox="0 0 373.54 373.54"><g id="Group_1" data-name="Group 1" transform="translate(-394 -428)"><circle id="Ellipse_1" data-name="Ellipse 1" cx="186.77" cy="186.77" r="186.77" transform="translate(394 428)" fill="#3c599a"></circle><path id="Path_1" data-name="Path 1" d="M265.78,317.87H205.9a15.33,15.33,0,0,1-15.31-15.31V219a15.33,15.33,0,0,1,15.31-15.31h54.87l20.32,18.5v80.42a15.33,15.33,0,0,1-15.31,15.26ZM205.9,212.46a6.49,6.49,0,0,0-6.48,6.49v83.61a6.5,6.5,0,0,0,6.48,6.49h59.88a6.5,6.5,0,0,0,6.48-6.49V226l-14.91-13.58Z" transform="translate(379.34 414.03)" fill="#fff"></path><rect id="Rectangle_1" data-name="Rectangle 1" width="50.95" height="6.92" transform="translate(589.7 653.37)" fill="#fff"></rect><rect id="Rectangle_2" data-name="Rectangle 2" width="50.95" height="6.92" transform="translate(589.7 666.27)" fill="#fff"></rect><rect id="Rectangle_3" data-name="Rectangle 3" width="50.95" height="6.92" transform="translate(589.7 679.17)" fill="#fff"></rect><rect id="Rectangle_4" data-name="Rectangle 4" width="50.95" height="6.92" transform="translate(589.7 692.06)" fill="#fff"></rect><rect id="Rectangle_5" data-name="Rectangle 5" width="50.95" height="6.92" transform="translate(589.7 704.96)" fill="#fff"></rect><path id="Path_2" data-name="Path 2" d="M257.41,208.07l-.16,18.34h22Z" transform="translate(379.34 414.03)" fill="#fff"></path><g id="fbautomsg" transform="translate(379.34 414.03)"><path id="Path_243" data-name="Path 243" d="M201.44,163.07V148.32A36.53,36.53,0,0,1,205,131.07a10.29,10.29,0,0,1,10.42-6h27.32V84.56L238.23,84a198.642,198.642,0,0,0-28.43-1.7,55.74,55.74,0,0,0-41.94,15.13c-10,10.43-15.08,26.11-15.08,46.68v19H118.91v45.73h33.87v91.08l26.09.05v-8.94H162.5V199H128.67V172.83H162.5V144.06a56.2,56.2,0,0,1,12.38-39.95A45.92,45.92,0,0,1,209.79,92a144.721,144.721,0,0,1,20.49,1.15l2.67.32v21.84H215.38a21.8,21.8,0,0,0-18.88,10.94,43.77,43.77,0,0,0-4.83,22.1v24.52h40.15l-2.91,18.86h9.87Q241,177.38,243.21,163Z" fill="#fff"></path></g></g></svg>