<svg xmlns="http://www.w3.org/2000/svg" xmlns:xlink="http://www.w3.org/1999/xlink" x="0px" y="0px" viewBox="0 0 128 128" style="enable-background:new 0 0 128 128;" xml:space="preserve">
<style type="text/css">
	.st0{fill:#3C599A;}
	.st1{fill:#FFFFFF;}
</style>
<g id="Layer_1">
	<circle class="st0" cx="64" cy="64" r="64"></circle>
</g>
<g id="Layer_2">
	<g>
		<path class="st1" d="M71.7,61.5c0.7,0.1,1.3,0.2,1.9,0.5l1.3-9.9h-12c0-0.6,0-1.2,0-1.8c0-2,0-4,0.1-6.1c0.1-2.3,1.3-3.4,3.6-3.6    c1.6-0.1,3.3-0.1,4.9-0.1c0.7,0,1.4,0,2.2,0l1.6,0V28l-0.9-0.2c-0.2,0-0.3-0.1-0.4-0.1l-1.6-0.1c-1.4-0.1-2.8-0.2-4.1-0.3    c-2.6-0.1-4.9-0.1-7.3,0.4c-3.3,0.7-5.9,2.1-7.9,4.3c-2.6,2.8-4,6.4-4.2,10.7c-0.1,2.2-0.1,4.4-0.1,6.6c0,0.9,0,1.9,0,2.8H38.2V66    h10.3l0,29c0,0.2,0,0.4,0,0.6l0,1.2H59c-0.6-0.6-1.1-1.2-1.6-1.9h-6.9l0-30.8H40.1V54h10.3v-1.8c0-1,0-1.9,0-2.9    c0-2.1,0-4.3,0.1-6.5c0.2-3.9,1.4-7,3.7-9.5c1.8-1.9,4-3.1,6.9-3.7c2.2-0.5,4.4-0.4,6.8-0.3c1.4,0.1,2.7,0.2,4.1,0.2l1.2,0.1v8.9    c-0.6,0-1.3,0-1.9,0c-1.6,0-3.3,0-5,0.1c-3.3,0.2-5.2,2.1-5.4,5.4c-0.1,2.1-0.1,4.1-0.1,6.1c0,0.9,0,1.7,0,2.6l0.1,0.4l0.3,0.8    h11.3L71.7,61.5z"></path>
	</g>
	<g>
		<path class="st1" d="M65.9,89.6c-0.3,0-0.7,0-0.9-0.3c-0.2-0.2-0.2-0.6-0.2-0.9c0-0.1,0-0.2,0-0.4h-2.3c-0.3,0-0.7,0-0.9-0.3    c-0.2-0.2-0.2-0.6-0.2-0.9c0.2-2,1.2-3.5,3-4.5l0.1,0c-1-1.6-1-2.9,0-4.1c0.6-0.7,1.4-1,2.2-1c0.5,0,1.1,0.1,1.6,0.4    c0.8-1.3,1.9-1.9,3.4-1.9c1.5,0,2.6,0.7,3.4,1.9c0.6-0.3,1.2-0.4,1.7-0.4c0.9,0,1.6,0.4,2.2,1.1c1,1.1,1,2.3,0,4.1    c1.1,0.6,1.9,1.4,2.5,2.4c0.4,0.7,0.6,1.5,0.6,2.3c0,0.3-0.1,0.6-0.2,0.7c-0.2,0.2-0.4,0.2-0.7,0.2l-2.5,0l0,0c0,0.2,0,0.3,0,0.5    c0,0.4-0.1,0.6-0.2,0.8c-0.2,0.2-0.4,0.2-0.7,0.2l-2.4,0H65.9z M77,88c-0.2-1.9-2.1-4.5-5.3-4.5l-0.2,0c-1.4,0-2.9,0.8-3.9,2    c-0.7,0.8-1.1,1.7-1.1,2.5H77z M64,86.5c0.3,0,0.5,0,0.8,0c0,0,0,0,0,0c0.4,0,0.4-0.1,0.5-0.3c0-0.2,0.2-0.4,0.3-0.6l0.1-0.1    c0.4-0.7,0.9-1.3,1.6-1.9c-0.1,0-0.3,0-0.4,0c-1.8,0-3.4,1.3-3.6,3L64,86.5z M80.3,86.4c-0.3-1.8-2.1-3-3.6-3c-0.2,0-0.3,0-0.5,0    c0.9,0.8,1.6,1.8,2,2.9H80.3z M71.8,77.3c-1.2,0-2.3,1-2.3,2.3c0,0.6,0.2,1.2,0.7,1.6c0.4,0.4,1,0.7,1.6,0.7    c0.6,0,1.2-0.2,1.6-0.7c0.4-0.4,0.7-1,0.7-1.6C74,78.3,73,77.3,71.8,77.3v-0.2V77.3z M76.7,78.9c-0.2,0-0.4,0.1-0.6,0.2    c-0.3,0.2-0.5,0.3-0.4,0.6l0,0L75.6,80c-0.1,0.2-0.1,0.5-0.2,0.8c0,0.2,0,0.3,0,0.4c0.3,0.4,0.7,0.6,1.2,0.6    c0.3,0,0.6-0.1,0.8-0.2c0.7-0.4,0.9-1.3,0.5-2C77.7,79.2,77.2,78.9,76.7,78.9z M66.8,78.9c-0.5,0-1,0.3-1.3,0.8    c-0.4,0.7-0.2,1.6,0.5,2c0.2,0.1,0.5,0.2,0.8,0.2c0.5,0,1-0.3,1.2-0.7c0-0.1,0-0.2,0-0.3C68,80.6,68,80.3,67.9,80l-0.1-0.3l0-0.1    c0.1-0.3,0-0.4-0.4-0.6C67.3,78.9,67,78.9,66.8,78.9z"></path>
		<path class="st1" d="M83,93c-0.2,0-0.3-0.1-0.5-0.2c-0.2-0.1-0.3-0.3-0.3-0.5c0-0.2,0.1-0.5,0.3-0.7c1.6-2,2.6-4.2,3-6.7    c0.1-0.3,0.1-0.7,0.1-1.1l0-0.3h-1.5c-0.5,0-0.8-0.2-0.9-0.7c-0.1-0.2,0-0.5,0.1-0.6c0.2-0.2,0.4-0.3,0.7-0.3c0.2,0,0.5,0,0.7,0    l0.9,0c-0.3-6.9-6.1-12.7-13.1-13.1l0,1.4c0,0.6-0.3,1-0.8,1c-0.5,0-0.8-0.4-0.8-1l0-1.5c-0.2,0-0.5,0.1-0.7,0.1    c-0.7,0.1-1.3,0.2-1.9,0.3c-3,0.7-5.5,2.4-7.5,4.8l-0.1,0.1c-0.1,0.1-0.1,0.2-0.2,0.2c-0.2,0.2-0.4,0.3-0.7,0.3    c-0.2,0-0.3-0.1-0.5-0.2c-0.2-0.1-0.3-0.3-0.3-0.6c0-0.2,0.1-0.4,0.2-0.6l0.4-0.5c0.5-0.6,1.1-1.3,1.7-1.8    c2.6-2.3,5.6-3.6,9.1-3.8c0.1,0,0.3,0,0.3,0l0-1.5c0-0.6,0.3-1,0.8-1c0,0,0,0,0,0c0.5,0,0.8,0.4,0.8,1l0,1.5    c4,0.3,7.4,1.8,10.2,4.6c2.7,2.7,4.3,6.2,4.6,10.2l1.5,0c0.6,0,1,0.3,1,0.8c0,0.2-0.1,0.4-0.2,0.6c-0.2,0.2-0.4,0.3-0.8,0.3h-1.5    L87.2,84c-0.1,0.5-0.1,1-0.2,1.6c-0.5,2.6-1.6,4.9-3.3,7C83.5,92.9,83.2,93,83,93z"></path>
		<path class="st1" d="M71.7,100.7c-0.5,0-0.8-0.4-0.8-0.9c0-0.4,0-1.5,0-1.5c-7.8-0.4-14.4-7-14.8-14.8l-1.5,0c-0.6,0-1-0.3-1-0.8    c0-0.5,0.4-0.8,1-0.8l1.5,0l0.1-0.7c0.1-0.7,0.2-1.3,0.3-1.9c0.1-0.5,0.3-1.1,0.4-1.6l0.1-0.2c0.1-0.4,0.4-0.6,0.8-0.6    c0.1,0,0.2,0,0.2,0c0.2,0.1,0.4,0.2,0.5,0.4c0.1,0.2,0.1,0.5,0,0.7c-0.4,1.3-0.7,2.6-0.8,3.8l0,0.1l0.9,0c0.2,0,0.5,0,0.7,0    c0.3,0,0.5,0.1,0.7,0.4c0.1,0.2,0.2,0.4,0.1,0.7c-0.1,0.4-0.4,0.6-0.9,0.6l-1.5,0c0.3,7,6,12.7,13.1,13.1l0-1.4c0-0.6,0.3-1,0.8-1    h0c0.5,0,0.8,0.4,0.8,1l0,1.4c1,0,2-0.2,3.1-0.5c1.2-0.4,2.4-0.9,3.5-1.6l0.1-0.1c0.2-0.1,0.4-0.2,0.6-0.2c0.3,0,0.5,0.1,0.6,0.4    c0.1,0.2,0.2,0.4,0.1,0.6c-0.1,0.2-0.2,0.4-0.5,0.6l-0.3,0.1c-0.8,0.4-1.6,0.8-2.4,1.2c-1.4,0.6-2.9,0.9-4.5,1c-0.1,0-0.2,0-0.3,0    c0,0,0,1.2,0,1.6C72.6,100.3,72.2,100.7,71.7,100.7L71.7,100.7z"></path>
	</g>
</g>
</svg>