<svg xmlns="http://www.w3.org/2000/svg" width="63" height="63" viewBox="0 0 63 63"><g id="fb-Facebook_Message_Sender" data-name="fb-Facebook Message Sender" transform="translate(-1139 -171.283)"><circle id="Ellipse_29" data-name="Ellipse 29" cx="31.5" cy="31.5" r="31.5" transform="translate(1139 171.283)" fill="#3c5a9a"></circle><g id="fbautomsg" transform="translate(1160.076 188.307)"><path id="Path_243" data-name="Path 243" d="M122.589,76.323V74.458a4.631,4.631,0,0,1,.447-2.18,1.3,1.3,0,0,1,1.317-.763h3.453V66.4l-.566-.077a25.151,25.151,0,0,0-3.594-.215,7.042,7.042,0,0,0-5.3,1.912c-1.262,1.318-1.907,3.3-1.907,5.9v2.4h-4.28V82.1h4.28V93.611h3.41v-.357a8.1,8.1,0,0,1-.606-.766h-1.575V80.865h-4.276V77.556h4.276V73.92a7.1,7.1,0,0,1,1.565-5.049,5.8,5.8,0,0,1,4.412-1.534,18.112,18.112,0,0,1,2.589.145l.338.041v2.76h-2.221a2.754,2.754,0,0,0-2.386,1.382,5.544,5.544,0,0,0-.61,2.793v3.1h5.074l-.368,2.383h.154A8.777,8.777,0,0,1,127.3,80l.569-3.681Z" transform="translate(-112.16 -66.103)" fill="#fff"></path><path id="Path_244" data-name="Path 244" d="M186.572,209.87a6.636,6.636,0,0,0-6.792,6.452,6.3,6.3,0,0,0,2.041,4.6v2.951l2.771-1.385a7.067,7.067,0,0,0,1.98.288,6.461,6.461,0,1,0,0-12.906Zm0,1.359a5.1,5.1,0,1,1,0,10.188,5.78,5.78,0,0,1-1.611-.232l-.51-.149-.473.236-.806.4v-1.344l-.43-.4a4.97,4.97,0,0,1-1.611-3.606A5.284,5.284,0,0,1,186.572,211.229Zm-.679,3.4-3.4,3.4,3.056-1.359,1.7,1.359,3.4-3.4-3.056,1.358Z" transform="translate(-172.516 -194.425)" fill="#fff"></path></g></g></svg>