<svg xmlns="http://www.w3.org/2000/svg" width="63" height="63" viewBox="0 0 63 63"><g id="fb-FB_Group_Member_Extractor" data-name="fb-FB Group Member Extractor" transform="translate(-635 -171.283)"><circle id="Ellipse_28" data-name="Ellipse 28" cx="31.5" cy="31.5" r="31.5" transform="translate(635 171.283)" fill="#3c5a9a"></circle><g id="yellow_fb_group_scrape" transform="translate(650.464 184.258)"><path id="Path_241" data-name="Path 241" d="M97.668,189.142a12.805,12.805,0,0,1,1.551-1.095c0-.169-.117-.248-.209-.326a4.561,4.561,0,1,1,7.011-.078c-.326.365-.248.443.117.691a6.626,6.626,0,0,1,3.141,5.369,14.411,14.411,0,0,1,0,1.838.992.992,0,0,1-.938,1.056h-.078a.993.993,0,0,1-1.017-.977v-.039a14.122,14.122,0,0,0-.117-2.567,4.771,4.771,0,0,0-5.747-3.545,4.877,4.877,0,0,0-3.141,2.45.576.576,0,0,0,.078.808,6.693,6.693,0,0,1,1.707,4.444v1.512a.993.993,0,0,1-.977,1.017,1.019,1.019,0,0,1-1.017-.977h0c-.039-.573,0-1.147,0-1.707a4.8,4.8,0,0,0-9.409-1.147,5.281,5.281,0,0,0-.156,1.095v1.551a.976.976,0,0,1-.9,1.095H87.49a1.061,1.061,0,0,1-1.056-1.017v-.078a7.533,7.533,0,0,1,1.838-5.982c.209-.209.078-.365,0-.534a4.741,4.741,0,0,0-8.914,1.212,13.779,13.779,0,0,0-.078,2.2c0,.73-.4,1.186-1.017,1.186s-.977-.443-1.017-1.186a8.773,8.773,0,0,1,.808-4.522,6.974,6.974,0,0,1,2.4-2.567c.287-.169.4-.287.117-.613a4.589,4.589,0,1,1,7.011-.078c-.287.365-.248.482.117.691a9.938,9.938,0,0,1,1.264.977,4.674,4.674,0,0,1,1.3-4.887,4.358,4.358,0,0,1,3.415-1.147,4.288,4.288,0,0,1,3.375,1.955A4.883,4.883,0,0,1,97.668,189.142Zm4.77-1.877a2.429,2.429,0,0,0,2.528-2.359v-.169a2.506,2.506,0,0,0-2.489-2.528,2.591,2.591,0,0,0-2.567,2.528,2.476,2.476,0,0,0,2.489,2.489Zm-18.493,0a2.476,2.476,0,0,0,2.606-2.359v-.169a2.528,2.528,0,0,0-5.057,0,2.489,2.489,0,0,0,2.45,2.528Zm9.292,3.05a2.5,2.5,0,0,0,2.567-2.489,2.55,2.55,0,0,0-5.1,0A2.443,2.443,0,0,0,93.237,190.315Z" transform="translate(-77.238 -162.152)" fill="#fefdfc" stroke="#3c5a9a" stroke-width="1"></path><path id="Path_242" data-name="Path 242" d="M169.923,46.235h1.766a.564.564,0,0,0,.563-.563V42.687a.566.566,0,0,0-.5-.556,24.422,24.422,0,0,0-2.563-.13h-.081c-3,0-4.855,1.905-4.855,4.973v1.89h-2.315a.564.564,0,0,0-.563.566v3.336a.563.563,0,0,0,.563.563h2.317v6.557a.563.563,0,0,0,.563.563h3.446a.566.566,0,0,0,.564-.563V53.325h2.309a.566.566,0,0,0,.559-.491l.43-3.335a.56.56,0,0,0-.112-.416.551.551,0,0,0-.373-.215.473.473,0,0,0-.074,0h-2.737V47.3C168.833,46.542,168.931,46.235,169.923,46.235Zm-2.216,6.525v6.557h-2.32V52.762a.566.566,0,0,0-.563-.564H162.5V49.99h2.318a.564.564,0,0,0,.566-.562V46.965c0-2.408,1.393-3.846,3.727-3.846.893,0,1.641.048,2.011.078v1.909h-1.2a1.943,1.943,0,0,0-2.216,2.188v2.133a.563.563,0,0,0,.563.564h2.664l-.285,2.208h-2.38a.564.564,0,0,0-.563.56Z" transform="translate(-150.414 -42)" fill="#fff"></path></g></g></svg>