<svg xmlns="http://www.w3.org/2000/svg" width="63" height="63" viewBox="0 0 63 63"><g id="fb-Auto_Friend_Request_Sender" data-name="fb-Auto Friend Request Sender" transform="translate(-640 -337.283)"><circle id="Ellipse_30" data-name="Ellipse 30" cx="31.5" cy="31.5" r="31.5" transform="translate(640 337.283)" fill="#3c5a9a"></circle><g id="Layer_2" data-name="Layer 2" transform="translate(656.705 355.646)"><g id="Layer_1" data-name="Layer 1"><path id="Path_213" data-name="Path 213" d="M88.963,76.11h-15.7a5.542,5.542,0,0,0-5.536,5.536v15.7a5.542,5.542,0,0,0,5.536,5.536H83v-.768H73.266A4.773,4.773,0,0,1,68.5,97.345v-15.7a4.773,4.773,0,0,1,4.767-4.767h15.7a4.774,4.774,0,0,1,4.769,4.767v9.214H94.5V81.646A5.543,5.543,0,0,0,88.963,76.11Z" transform="translate(-67.73 -76.11)" fill="#fff"></path><path id="Path_214" data-name="Path 214" d="M235.208,241.556h-6.887a.452.452,0,0,1-.451-.452V239a3.9,3.9,0,0,1,2.291-3.548,2.42,2.42,0,1,1,3.316-.106l-.106.106a3.864,3.864,0,0,1,1.145.795h0a3.867,3.867,0,0,1,1.14,2.752V241.1a.452.452,0,0,1-.448.452Zm-6.7-.642h6.509V239a3.254,3.254,0,0,0-2.128-3.049.458.458,0,0,1-.165-.753l.3-.3a1.778,1.778,0,1,0-2.25.222.46.46,0,0,1-.1.816A3.259,3.259,0,0,0,228.51,239Z" transform="translate(-210.95 -214.827)" fill="#fff"></path><path id="Path_215" data-name="Path 215" d="M187.882,234.882h-4.649a.434.434,0,0,1-.433-.433v-1.812a3.408,3.408,0,0,1,1.94-3.07,2.129,2.129,0,1,1,2.968-.043l-.044.044a3.4,3.4,0,0,1,1.723,1.879l-.6.224a2.769,2.769,0,0,0-1.635-1.623.442.442,0,0,1-.162-.723l.267-.254a1.489,1.489,0,1,0-1.884.186.44.44,0,0,1-.1.781,2.764,2.764,0,0,0-1.835,2.6v1.61h4.438Zm-2.87-5.1Zm2.364-.341Z" transform="translate(-170.642 -210.064)" fill="#fff"></path><path id="Path_216" data-name="Path 216" d="M291.307,234.831H286.54V234.2h4.56v-1.611a2.756,2.756,0,0,0-1.806-2.59.439.439,0,0,1-.157-.722l.257-.256a1.49,1.49,0,1,0-1.882.181.441.441,0,0,1-.1.781,2.784,2.784,0,0,0-1.691,1.709l-.605-.206a3.429,3.429,0,0,1,1.757-1.972,2.131,2.131,0,1,1,2.969-.043l-.043.043a3.4,3.4,0,0,1,1.938,3.07V234.4A.434.434,0,0,1,291.307,234.831Zm-4.154-5.1Z" transform="translate(-262.151 -210.012)" fill="#fff"></path><path id="Path_217" data-name="Path 217" d="M114.752,121.155h2.6a.133.133,0,0,0,.133-.133v-3.15a.133.133,0,0,0-.133-.133h-4.406s-3.682-.063-3.682,3.284v.8c0,.7,0,1.881.009,3.307a.133.133,0,0,1-.133.134H107.6a.134.134,0,0,0-.133.133v3.05a.133.133,0,0,0,.133.133h1.551a.132.132,0,0,1,.133.132c.022,4.581.053,9.7.057,10.58a.133.133,0,0,0,.133.131h3.648a.132.132,0,0,0,.133-.133V128.716a.133.133,0,0,1,.133-.133h3.564a.133.133,0,0,0,.132-.117l.377-3.049a.133.133,0,0,0-.132-.15h-3.941a.133.133,0,0,1-.133-.133v-2.92a.117.117,0,0,1,0-.02C113.316,121.782,113.594,121.155,114.752,121.155Z" transform="translate(-103.271 -113.341)" fill="none" stroke="#fff" stroke-width="1"></path></g></g></g></svg>