<svg xmlns="http://www.w3.org/2000/svg" width="63" height="63" viewBox="0 0 63 63"><g id="sr-Find_Emails" data-name="sr-Find Emails" transform="translate(-1154 -176)"><circle id="Ellipse_7" data-name="Ellipse 7" cx="31.5" cy="31.5" r="31.5" transform="translate(1154 176)" fill="#2dce89"></circle><g id="find" transform="translate(1162 184)"><g id="Group_14" data-name="Group 14" transform="translate(11.24 12.26)"><g id="Group_13" data-name="Group 13"><path id="Path_56" data-name="Path 56" d="M21.73,12.26A10.49,10.49,0,1,0,32.22,22.75h0A10.49,10.49,0,0,0,21.73,12.26Zm0,19.15a8.66,8.66,0,1,1,8.66-8.66h0a8.68,8.68,0,0,1-8.66,8.66Z" transform="translate(-11.24 -12.26)" fill="#fff" stroke="#fff" stroke-width="1"></path><path id="Path_57" data-name="Path 57" d="M35.81,35.53l-6.67-6.67a.921.921,0,1,0-1.37,1.23.46.46,0,0,1,.07.07l6.67,6.67a.92.92,0,0,0,1.3-1.3Z" transform="translate(-11.24 -12.26)" fill="#fff" stroke="#fff" stroke-width="1"></path></g><path id="Path_58" data-name="Path 58" d="M25.24,20h-7a.75.75,0,0,0-.75.74V25a.75.75,0,0,0,.75.74h7A.75.75,0,0,0,26,25V20.73a.75.75,0,0,0-.76-.73Zm-.09.49-.11.09-3,2.49a.47.47,0,0,1-.59,0l-3-2.49-.1-.09ZM18,20.84l2.44,2L18,24.49Zm7.21,4.45h-7a.26.26,0,0,1-.25-.21l2.83-1.88.29.24a1,1,0,0,0,1.22,0l.29-.24,2.83,1.88a.27.27,0,0,1-.18.21Zm.25-.79-2.44-1.63,2.44-2Z" transform="translate(-11.24 -12.26)" fill="#fff" stroke="#fff" stroke-width="0.5"></path></g></g></g></svg>