<svg xmlns="http://www.w3.org/2000/svg" width="63" height="63" viewBox="0 0 63 63"><g id="sr-Guest_Post_Finder" data-name="sr-Guest Post Finder" transform="translate(-1137 -173.059)"><circle id="Ellipse_40" data-name="Ellipse 40" cx="31.5" cy="31.5" r="31.5" transform="translate(1137 173.059)" fill="#2dce89"></circle><g id="guest_post_finder" transform="translate(1155.679 191.351)"><g id="Group_136" data-name="Group 136"><g id="Group_98" data-name="Group 98"><g id="Path_43" data-name="Path 43"><path id="Path_233" data-name="Path 233" d="M331.62,79.48l-3.6-3.6a1.88,1.88,0,0,0-2.64,0l-16.19,16.2a.62.62,0,0,0-.17.33l-.87,6.11-1.21,1.2a.61.61,0,0,0,0,.85.6.6,0,0,0,.84,0h0L309,99.36l6.1-.87a.61.61,0,0,0,.34-.17l16.19-16.2A1.88,1.88,0,0,0,331.62,79.48ZM309.41,98.09l.62-4.33,3.71,3.71Zm5.6-1-1.86-1.85L321.39,87a.6.6,0,0,0,0-.84.61.61,0,0,0-.85,0l-8.23,8.23-1.86-1.85L323.1,79.85,325,81.7l-2.54,2.54a.6.6,0,0,0,0,.84.61.61,0,0,0,.85,0l2.53-2.53,1.86,1.85ZM328.5,83.56,324,79l.51-.5L329,83.05Zm2.28-2.28-.93.93-4.55-4.55.93-.93a.66.66,0,0,1,.95,0l3.6,3.6a.68.68,0,0,1,0,1Z" transform="translate(-306.646 -75.253)" fill="#fff"></path><path id="Path_234" data-name="Path 234" d="M307.36,100.88a.76.76,0,0,1-.52-.22.74.74,0,0,1,0-1L308,98.45l.87-6a.72.72,0,0,1,.2-.42l16.2-16.19a2,2,0,0,1,2.83,0l3.6,3.6a2,2,0,0,1,0,2.83L315.5,98.46a.71.71,0,0,1-.41.21l-6.06.86-1.17,1.18a.76.76,0,0,1-.5.17ZM326.7,75.47a1.7,1.7,0,0,0-1.22.51l-16.2,16.19a.53.53,0,0,0-.13.26l-.88,6.15L307,99.82a.49.49,0,0,0-.13.33.46.46,0,0,0,.13.32.47.47,0,0,0,.66,0l1.24-1.24,6.14-.87a.59.59,0,0,0,.27-.14L331.53,82a1.76,1.76,0,0,0,0-2.45l-3.6-3.6a1.73,1.73,0,0,0-1.23-.48ZM309.26,98.25l.68-4.77L314,97.57Zm.87-4.2-.56,3.89,3.89-.56ZM315,97.24l-2.05-2,8.33-8.33a.47.47,0,0,0,0-.66.46.46,0,0,0-.65,0l-8.33,8.33-2.05-2L323.1,79.74l2,2-2.63,2.63a.46.46,0,0,0,0,.66.48.48,0,0,0,.65,0l2.63-2.63,2.05,2Zm-1.67-2L315,96.86,327.47,84.4l-1.67-1.67-2.44,2.45a.76.76,0,0,1-1,0,.73.73,0,0,1-.21-.52.72.72,0,0,1,.21-.52l2.44-2.44L323.11,80,310.64,92.5l1.67,1.67L320.45,86a.73.73,0,1,1,1,1ZM328.5,83.75,323.76,79l.7-.69,4.74,4.74ZM324.14,79l4.36,4.37.32-.32-4.36-4.36Zm5.71,3.4-4.74-4.74,1-1a.83.83,0,0,1,1.15,0l3.59,3.6a.82.82,0,0,1,0,1.15h0Zm-4.36-4.74L329.85,82l.84-.83h0a.57.57,0,0,0,0-.77l-3.6-3.6a.55.55,0,0,0-.77,0Z" transform="translate(-306.646 -75.253)" fill="#fff"></path></g></g></g></g></g></svg>