<svg xmlns="http://www.w3.org/2000/svg" width="63" height="63" viewBox="0 0 63 63"><g id="inst-Profile_Scraper" data-name="inst-Profile Scraper" transform="translate(-650 -161.172)"><circle id="Ellipse_11" data-name="Ellipse 11" cx="31.5" cy="31.5" r="31.5" transform="translate(650 161.172)" fill="#fb8d1b"></circle><g id="instagram_profile_scraper_icon" transform="translate(665.75 176.458)"><g id="Layer_2" data-name="Layer 2"><path id="Path_168" data-name="Path 168" d="M60.756,28.389a5.393,5.393,0,0,0-.268-1.836A3.276,3.276,0,0,0,57.9,24.34a13.663,13.663,0,0,0-1.46-.14l-.228-.02H52.327c-.312,0-.624.028-.936.048h-.044a3.9,3.9,0,0,0-2.112.72,3.292,3.292,0,0,0-1.316,2.22c-.028.188-.048.376-.064.568-.04.4-.056.776-.064,1.164v.036c0,1.4,0,2.8.024,4.217a4.609,4.609,0,0,0,.4,1.964,3.328,3.328,0,0,0,2.348,1.876,8.8,8.8,0,0,0,2.02.168h4.109a5.077,5.077,0,0,0,1.8-.288,3.308,3.308,0,0,0,2.148-2.592,7.913,7.913,0,0,0,.128-1.408C60.768,31.369,60.76,29.881,60.756,28.389Zm-1.168,4.577a4.669,4.669,0,0,1-.164,1.328,2.148,2.148,0,0,1-1.908,1.6c-.724.088-1.468.08-2.2.1H54.287c-.936-.024-1.868-.036-2.8-.072a2.736,2.736,0,0,1-1.476-.44,2.144,2.144,0,0,1-.936-1.608c-.072-.728-.092-1.46-.1-2.188V28.557a8.049,8.049,0,0,1,.056-.876,2.229,2.229,0,0,1,.068-.424,2.168,2.168,0,0,1,1.864-1.776c.112-.02.22-.036.332-.048a10.4,10.4,0,0,1,1.168-.06h3.849a7.929,7.929,0,0,1,1.376.124A2.144,2.144,0,0,1,59.5,27.452c.076.676.1,1.368.1,2.048C59.616,30.661,59.6,31.813,59.588,32.965Z" transform="translate(-38.524 -24.18)" fill="#fff"></path><path id="Path_169" data-name="Path 169" d="M58.99,32.08a3.34,3.34,0,1,0,3.34,3.328A3.34,3.34,0,0,0,58.99,32.08Zm0,5.5a2.168,2.168,0,1,1,0-4.337h0a2.164,2.164,0,1,1,0,4.329Z" transform="translate(-43.239 -28.92)" fill="#fff"></path><path id="Path_170" data-name="Path 170" d="M72.284,30.616a.772.772,0,0,1-.8.756.776.776,0,1,1,.036-1.552.764.764,0,0,1,.764.8Z" transform="translate(-52.28 -27.564)" fill="#fff"></path><path id="Path_171" data-name="Path 171" d="M72.284,30.616a.772.772,0,0,1-.8.756.776.776,0,1,1,.036-1.552.764.764,0,0,1,.764.8Z" transform="translate(-52.28 -27.564)" fill="#fff"></path><path id="Path_172" data-name="Path 172" d="M44.751,66.461a13.912,13.912,0,0,1,1.52-1.076c0-.164-.136-.228-.212-.32a4.481,4.481,0,1,1,6.853-.08c-.3.364-.24.456.12.692A6.473,6.473,0,0,1,56.1,70.966a17.775,17.775,0,0,1,0,1.788.972.972,0,0,1-.972,1.032.988.988,0,0,1-1-1.02,14.858,14.858,0,0,0-.128-2.528A4.685,4.685,0,0,0,45.3,69.129a.58.58,0,0,0,.076.8,6.4,6.4,0,0,1,1.676,4.353v1.492a.988.988,0,0,1-1.976.036c-.028-.564,0-1.128,0-1.692a4.593,4.593,0,0,0-3.492-4.333A4.661,4.661,0,0,0,35.7,74.142c-.02.512,0,1.028,0,1.54a.988.988,0,0,1-.968,1.092,1,1,0,0,1-1.024-1.052A7.533,7.533,0,0,1,35.5,69.765c.18-.192.092-.356,0-.54a4.673,4.673,0,0,0-8.777,1.18,13.29,13.29,0,0,0-.088,2.18c0,.728-.4,1.168-1,1.164s-.976-.436-1-1.164a8.366,8.366,0,0,1,.8-4.445,6.593,6.593,0,0,1,2.356-2.5c.3-.18.4-.264.124-.6a4.49,4.49,0,1,1,6.861-.052c-.292.348-.248.476.12.664a6.961,6.961,0,0,1,1.232.96,4.577,4.577,0,0,1,1.288-4.8,4.261,4.261,0,0,1,3.344-1.124A4.309,4.309,0,0,1,44.091,62.6a4.773,4.773,0,0,1,.66,3.861ZM49.432,64.6a2.4,2.4,0,0,0,2.5-2.46,2.472,2.472,0,0,0-2.456-2.48,2.508,2.508,0,0,0-2.508,2.492A2.436,2.436,0,0,0,49.432,64.6Zm-18.187,0a2.436,2.436,0,0,0,2.552-2.46,2.484,2.484,0,0,0-4.969,0,2.444,2.444,0,0,0,2.416,2.464Zm9.133,3a2.4,2.4,0,0,0,2.508-2.432,2.488,2.488,0,0,0-4.973,0A2.365,2.365,0,0,0,40.379,67.609Z" transform="translate(-24.627 -44.254)" fill="#fefdfc" stroke="#fb8d1b" stroke-width="1"></path></g></g></g></svg>