<svg xmlns="http://www.w3.org/2000/svg" id="Layer_1" data-name="Layer 1" viewBox="0 0 128 128"><defs><style>.cls-1{fill:#fb8d1b;}.cls-2{fill:#fff;}</style></defs><circle id="Ellipse_12" data-name="Ellipse 12" class="cls-1" cx="64" cy="64" r="64"></circle><path id="Path_173" data-name="Path 173" class="cls-2" d="M79.29,36.82a3.35,3.35,0,1,0,3.35,3.35h0A3.35,3.35,0,0,0,79.29,36.82Z"></path><path id="Path_174" data-name="Path 174" class="cls-2" d="M79.29,43.29a3.13,3.13,0,1,1,3.12-3.12h0A3.12,3.12,0,0,1,79.29,43.29Z"></path><path id="Path_175" data-name="Path 175" class="cls-2" d="M64.41,42.15A13,13,0,1,0,77.27,54.53,13.09,13.09,0,0,0,64.41,42.15Zm0,23.07h-.24a10.06,10.06,0,1,1,.24,0Z"></path><path class="cls-2" d="M75.57,27.86H52.78A15.93,15.93,0,0,0,36.87,43.77v22.8a15.91,15.91,0,0,0,8.56,14.1,14.41,14.41,0,0,1,3.1-1.82,13,13,0,0,1-8.76-12.28V43.78a13,13,0,0,1,13-13h22.8a13,13,0,0,1,13,13v15h2.89v-15A15.94,15.94,0,0,0,75.57,27.86Z"></path><path class="cls-2" d="M45.43,80.67a14.34,14.34,0,0,1,3.09-1.82,13,13,0,0,1-8.76-12.28v-15H36.87v15A15.91,15.91,0,0,0,45.43,80.67Z"></path><path class="cls-2" d="M88.59,43.78V66.57a12.22,12.22,0,0,1-.08,1.35,14.55,14.55,0,0,1,2.75,1.26,15,15,0,0,0,.23-2.61V43.78A15.93,15.93,0,0,0,75.58,27.86H64.18v2.9h11.4A13,13,0,0,1,88.59,43.78Z"></path><path class="cls-2" d="M83.61,85.89,82.7,90.7l3.67-.08,0,2.12-4.12.09-1,5.34-2.31,0,1-5.34L74.41,93l-1,5.33-2.31,0,1-5.33-4.17.09,0-2.12,4.62-.11.9-4.8-4.12.09,0-2.12,4.56-.1,1-5.34,2.31-.05-1,5.34,5.58-.13,1-5.33L85,78.42l-1,5.34,3.69-.08,0,2.12ZM81.3,86l-5.58.12-.9,4.8,5.57-.12Z"></path><path class="cls-2" d="M84.28,68.89a1.44,1.44,0,0,1,.17,1.26c-.27,1.12-.5,2.25-.77,3.37a1,1,0,0,1-1.6.6.9.9,0,0,1-.32-.93c.27-1.27.55-2.54.85-3.8.14-.56.51-.76,1.24-.75Z"></path><path class="cls-2" d="M64.13,78.84a1,1,0,0,1,.74,1c0,1.5.07,3,.1,4.51l.33,14.48c0,.84-.32,1.19-1.17,1.21l-3.83.09c-.83,0-1.2-.32-1.2-1.15,0-.36-.1-.52-.45-.6A12.27,12.27,0,0,1,57.34,98a.33.33,0,0,0-.47.16,4.38,4.38,0,0,1-6.74.72,4.27,4.27,0,0,1-1.3-3.2c0-.2,0-.33-.24-.35l-.06,0c-1.46-.69-3-.48-4.53-.46l-1.37,0a1,1,0,0,1-1.06-1c-.07-2.63-.13-5.25-.18-7.88a1,1,0,0,1,1-1l3.93-.1a1.48,1.48,0,0,0,.51-.09l11.52-4.09c.24-.08.34-.18.31-.44a2.09,2.09,0,0,1,0-.61.9.9,0,0,1,.83-.7c1.47,0,2.94-.07,4.42-.1A.58.58,0,0,1,64.13,78.84ZM59,96.48l-.31-13.87-.27.07L48,86.39c-.22.07-.26.18-.25.39,0,2,.1,4,.13,6a.35.35,0,0,0,.29.38l10.54,3.22Zm1.59-15.66L61,98.17l2.32,0L63,80.76ZM46,92.86l-.14-6.06-2.49.06.13,6.06ZM50.83,96a2.3,2.3,0,0,0,1.82,2.1A2.24,2.24,0,0,0,55,97.29Z"></path><path class="cls-2" d="M74.6,75a5,5,0,0,1-.42-.36L71.78,72a1,1,0,0,1,0-1.48,1,1,0,0,1,1.46.19c.81.9,1.6,1.8,2.4,2.71a1,1,0,0,1,.14,1.29A1,1,0,0,1,74.6,75Z"></path><path class="cls-2" d="M92.74,75.86a1,1,0,0,1-.19.27c-1,.88-2,1.76-3,2.62a1,1,0,0,1-1.34-.1,1,1,0,0,1,.13-1.43l2-1.77c.31-.27.61-.55.93-.8a.93.93,0,0,1,1.17,0A1,1,0,0,1,92.74,75.86Z"></path></svg>