<svg xmlns="http://www.w3.org/2000/svg" width="63" height="63" viewBox="0 0 63 63"><g id="inst-Follower_Scraper" data-name="inst-Follower Scraper" transform="translate(-647 -328.932)"><circle id="Ellipse_14" data-name="Ellipse 14" cx="31.5" cy="31.5" r="31.5" transform="translate(647 328.932)" fill="#fb8d1b"></circle><g id="Instagram_Follower_Scraper" transform="translate(662.75 346.844)"><g id="Layer_2" data-name="Layer 2"><path id="Path_178" data-name="Path 178" d="M22.662,42.353a13.384,13.384,0,0,1-3.074-.24,4.915,4.915,0,0,1-3.5-2.8,6.983,6.983,0,0,1-.584-2.97c-.026-2.246-.049-4.447-.032-6.661a20.9,20.9,0,0,1,.2-2.753,4.869,4.869,0,0,1,1.948-3.3,5.808,5.808,0,0,1,3.246-1.081c.308-.023.614-.039.922-.055l.555-.029h6.116l.341.032c.247.023.49.039.73.052a11.141,11.141,0,0,1,1.548.166,4.869,4.869,0,0,1,3.857,3.279,8.207,8.207,0,0,1,.4,2.8c0,2.318.019,4.714,0,7.067v.523c-.62.409-.993.7-1.253.906a10.387,10.387,0,0,0,.062-1.256v-.373c.019-1.669.042-3.4.026-5.093a30.9,30.9,0,0,0-.159-3.279A3.717,3.717,0,0,0,30.895,23.9a12.056,12.056,0,0,0-2.233-.2c-.935-.016-1.948-.026-3.188-.026H23.029a16.835,16.835,0,0,0-2.9.175,3.788,3.788,0,0,0-3.211,3.068,12.183,12.183,0,0,0-.2,2.113c-.036,1.763-.045,3.389-.029,4.97,0,1.036.039,2.272.156,3.493a3.746,3.746,0,0,0,1.623,2.831,4.593,4.593,0,0,0,2.5.756c1.065.039,2.146.062,3.191.084l1.581.036v-.039h1.318l.857-.019c.87-.019,1.772-.042,2.655-.149.166-.019.325-.049.484-.081a4.048,4.048,0,0,0-.052.669,4.142,4.142,0,0,0,.039.568,9.09,9.09,0,0,1-1.837.175c-1.623,0-3.49.036-5.337.036Z" transform="translate(-15.463 -22.46)" fill="#fff" stroke="#fff" stroke-width="0.5"></path><path id="Path_179" data-name="Path 179" d="M35.791,47.747a4.957,4.957,0,1,1,.019,0Zm0-8.706a3.736,3.736,0,1,0,.023,0Z" transform="translate(-25.848 -32.841)" fill="#fff" stroke="#fff" stroke-width="0.5"></path><path id="Path_180" data-name="Path 180" d="M61.109,35.248a.873.873,0,0,1-.649-.282.925.925,0,0,1-.26-.649.906.906,0,1,1,1.811.049A.9.9,0,0,1,61.109,35.248Z" transform="translate(-45.677 -29.879)" fill="#fff" stroke="#fff" stroke-width="0.5"></path><path id="Path_181" data-name="Path 181" d="M67.167,78.359H67.1l-.1-.045a2.1,2.1,0,0,1-.253-.133.941.941,0,0,1-.325-.51V74.489c.019-.075.039-.156.055-.23a4.166,4.166,0,0,1,.133-.549,2.756,2.756,0,0,1,1.139-1.354l.325-.185-.218-.286a2.227,2.227,0,0,1-.451-1.1,1.807,1.807,0,0,1-.023-.3,2.23,2.23,0,0,1,.416-1.321,2.347,2.347,0,0,1,1.863-.974h.045a2.273,2.273,0,0,1,.675.1l.4.127.026-.416a2.9,2.9,0,1,1,5.045,2.113l-.276.3.36.2A3.509,3.509,0,0,1,77.879,73.8c.019.769,0,1.555,0,2.315v1.182a1.039,1.039,0,0,1-.792,1.052h-.026l-.088.019ZM73.3,71.078a3.648,3.648,0,0,0-.584.039,2.711,2.711,0,0,0-2.324,2.711v3.655H77v-3.7a2.649,2.649,0,0,0-2.029-2.6,4.659,4.659,0,0,0-.993-.091h-.266C73.578,71.081,73.425,71.078,73.3,71.078Zm-4.071,1.733a1.948,1.948,0,0,0-1.948,2.022v2.639h2.23V75.012a12.463,12.463,0,0,1,.062-1.834l.049-.367Zm.484-3.762a1.061,1.061,0,0,0-.179.029,1.432,1.432,0,0,0,.146,2.857h.38l.084-.14a3.681,3.681,0,0,1,.834-.864l.117-.091v-.146a1.856,1.856,0,0,0,0-.445A1.454,1.454,0,0,0,69.708,69.049Zm3.986-2.922a2.016,2.016,0,1,0,1.434.6,2.013,2.013,0,0,0-1.434-.6Z" transform="translate(-49.878 -51.373)" fill="#fff" stroke="#fff" stroke-width="0.5"></path><path id="Path_182" data-name="Path 182" d="M103.851,62.77h-.042a.441.441,0,0,1-.4-.422q0-.219,0-.438v-.383h-.8a.439.439,0,1,1,.029-.876h.773V59.8a.432.432,0,0,1,.432-.39h.029a.432.432,0,0,1,.406.416v.818h.737a.7.7,0,0,1,.325.094.393.393,0,0,1,.159.461.409.409,0,0,1-.393.325h-.834v.7a1.01,1.01,0,0,1-.026.247A.438.438,0,0,1,103.851,62.77Z" transform="translate(-74.022 -47.415)" fill="#fff" stroke="#fff" stroke-width="0.5"></path></g></g></g></svg>