<svg xmlns="http://www.w3.org/2000/svg" width="63" height="63" viewBox="0 0 63 63"><g id="inst-Hashtag_Scraper" data-name="inst-Hashtag Scraper" transform="translate(-647 -497.932)"><circle id="Ellipse_16" data-name="Ellipse 16" cx="31.5" cy="31.5" r="31.5" transform="translate(647 497.932)" fill="#fb8d1b"></circle><g id="Group_104" data-name="Group 104"><path id="Path_268" data-name="Path 268" d="M15.316,31.98a15.464,15.464,0,0,1-3.551-.278A5.677,5.677,0,0,1,7.719,28.47a8.066,8.066,0,0,1-.675-3.431c-.03-2.595-.056-5.138-.037-7.695a24.146,24.146,0,0,1,.229-3.18,5.625,5.625,0,0,1,2.25-3.818A6.709,6.709,0,0,1,13.235,9.1c.356-.026.709-.045,1.065-.064L14.941,9h7.065l.394.038c.285.026.566.045.844.06a12.872,12.872,0,0,1,1.789.191,5.625,5.625,0,0,1,4.455,3.788,9.482,9.482,0,0,1,.465,3.229c0,2.677.022,5.445,0,8.164v.6c-.716.472-1.148.806-1.448,1.046a12,12,0,0,0,.071-1.451v-.431c.023-1.927.049-3.922.03-5.884a35.7,35.7,0,0,0-.184-3.788,4.294,4.294,0,0,0-3.6-3.9,13.927,13.927,0,0,0-2.58-.232c-1.08-.019-2.25-.03-3.682-.03H15.74a19.436,19.436,0,0,0-3.345.2,4.376,4.376,0,0,0-3.709,3.544,14.074,14.074,0,0,0-.236,2.441c-.041,2.036-.053,3.915-.034,5.741,0,1.2.045,2.625.18,4.035a4.327,4.327,0,0,0,1.875,3.27,5.306,5.306,0,0,0,2.891.874c1.23.045,2.479.071,3.686.1l1.826.041V30.6H20.4l.99-.023c1-.022,2.048-.049,3.067-.172.191-.023.375-.056.559-.094a4.681,4.681,0,0,0-.06.773A4.786,4.786,0,0,0,25,31.74a10.5,10.5,0,0,1-2.122.2c-1.875,0-4.031.041-6.165.041Z" transform="translate(656 505)" fill="#fff"></path><path id="Path_269" data-name="Path 269" d="M18.485,26.22a5.711,5.711,0,1,1,.022,0Zm0-10.058a4.316,4.316,0,1,0,.026,0Z" transform="translate(656 505)" fill="#fff"></path><path id="Path_270" data-name="Path 270" d="M24.826,15.2a1.009,1.009,0,0,1-.75-.326,1.068,1.068,0,0,1-.3-.75,1.047,1.047,0,1,1,2.092.056,1.043,1.043,0,0,1-1.042,1.02Z" transform="translate(656 505)" fill="#fff"></path><path id="Path_271" data-name="Path 271" d="M28.777,40.578h1.464l.816-4.68h4.152l-.816,4.68h1.464l.816-4.68h3.36l.216-1.344H36.913l.816-4.7h3.36l.24-1.344h-3.36l.84-4.8H37.345l-.84,4.8H32.353l.84-4.8H31.729l-.84,4.8H27.481l-.216,1.344h3.384l-.84,4.7H26.425l-.24,1.344h3.408Zm2.52-6.024.816-4.7h4.152l-.84,4.7Z" transform="translate(656 505)" fill="#fff"></path></g></g></svg>