<svg xmlns="http://www.w3.org/2000/svg" width="82.811" height="82.811" viewBox="0 0 82.811 82.811"><g id="Group_118" data-name="Group 118" transform="translate(13430.143 -9554.489)"><g id="Group_114" data-name="Group 114" transform="translate(-13430.143 9554.489)"><g id="Group_112" data-name="Group 112" transform="translate(0)"><g id="Group_113" data-name="Group 113" transform="translate(0)"><g id="Group_116" data-name="Group 116"><path id="Path_464" data-name="Path 464" d="M41.405,0A41.405,41.405,0,1,1,0,41.405,41.405,41.405,0,0,1,41.405,0Z" transform="translate(0)" fill="#fb8d1b"></path></g></g></g></g><g id="Group_117" data-name="Group 117" transform="translate(-13412.261 9572.61)"><path id="Path_465" data-name="Path 465" d="M32.745,13.34A2.77,2.77,0,1,0,35.5,16.1,2.77,2.77,0,0,0,32.745,13.34Z" transform="translate(2.224 -5.953)" fill="#fff"></path><path id="Path_466" data-name="Path 466" d="M27.249,16.24a10.748,10.748,0,0,0-.2,21.481h.2A10.763,10.763,0,0,0,37.573,29.91a10.9,10.9,0,0,0,.409-2.922A10.748,10.748,0,0,0,27.249,16.24Zm7.736,13.624a8.281,8.281,0,0,1-7.736,5.389h-.2a8.281,8.281,0,1,1,8.462-8.265,8.129,8.129,0,0,1-.53,2.922Z" transform="translate(-4.542 -4.462)" fill="#fff"></path><path id="Path_467" data-name="Path 467" d="M40.6,8.46H21.81A13.125,13.125,0,0,0,8.7,21.585V40.371A13.125,13.125,0,0,0,21.81,53.5H36.221V51.1H21.81A10.748,10.748,0,0,1,11.077,40.371V21.585A10.748,10.748,0,0,1,21.81,10.791H40.6A10.748,10.748,0,0,1,51.329,21.524v17.03h2.392V21.585A13.14,13.14,0,0,0,40.6,8.46Z" transform="translate(-8.7 -8.46)" fill="#fff"></path><path id="Path_468" data-name="Path 468" d="M28.89,30.21V47.437h18V30.21Zm15.683,2.3v4.224L42.045,35.1,36.626,42l-3.8-2.8-1.62,1.907v-8.6ZM31.191,44.061,33.1,41.806l2.346,1.711-1.256,1.6H31.161Zm5.389,1.075,5.889-7.569,2.1,1.362v6.161Z" transform="translate(1.674 2.716)" fill="#fff"></path><path id="Path_469" data-name="Path 469" d="M33.6,36.642a1.771,1.771,0,1,0-1.756-1.771A1.771,1.771,0,0,0,33.6,36.642Zm0-2.468a.711.711,0,1,1-.711.7.711.711,0,0,1,.711-.7Z" transform="translate(3.19 4.2)" fill="#fff"></path></g></g></svg>