<svg xmlns="http://www.w3.org/2000/svg" width="63" height="63" viewBox="0 0 63 63"><g id="inst-Auto_Message_Sender_Extension" data-name="inst-Auto Message Sender Extension" transform="translate(-1154 -160.932)"><g id="Auto_Message_Sender_Extension" data-name="Auto Message Sender Extension" transform="translate(1172 175.84)"><circle id="Ellipse_12" data-name="Ellipse 12" cx="31.5" cy="31.5" r="31.5" transform="translate(-18 -14.908)" fill="#fb8d1b"></circle><g id="Group_21" data-name="Group 21"><path id="Path_173" data-name="Path 173" d="M251.558,977a1.618,1.618,0,1,0,1.618,1.618A1.618,1.618,0,0,0,251.558,977Z" transform="translate(-231.056 -972.669)" fill="#fff"></path><path id="Path_174" data-name="Path 174" d="M252.409,980.948a1.509,1.509,0,1,1,1.509-1.508A1.509,1.509,0,0,1,252.409,980.948Z" transform="translate(-231.907 -973.493)" fill="#fff"></path><path id="Path_175" data-name="Path 175" d="M151.279,999.647a6.295,6.295,0,0,0-.114,12.589h.114a6.3,6.3,0,1,0,0-12.591Zm0,11.148h-.114a4.86,4.86,0,1,1,.114,0Z" transform="translate(-137.969 -992.742)" fill="#fff"></path><path id="Path_176" data-name="Path 176" d="M102.355,938.86H91.34a7.7,7.7,0,0,0-7.69,7.69v11.015a7.7,7.7,0,0,0,7.69,7.691h5.509v-1.4H91.338a6.3,6.3,0,0,1-6.285-6.291V946.552a6.3,6.3,0,0,1,6.29-6.291h11.015a6.3,6.3,0,0,1,6.291,6.291v7.23h1.4v-7.23A7.7,7.7,0,0,0,102.355,938.86Z" transform="translate(-83.65 -938.86)" fill="#fff"></path></g><path id="Path_177" data-name="Path 177" d="M198.22,1096.563l7.371,2.385,2.373,7.63,4.935-15.008Zm4.2-.032,7-2.385-3.481,3.52Zm4.454,2.075,3.483-3.52L208,1102.24Z" transform="translate(-185.21 -1074.229)" fill="#fff"></path></g></g></svg>