<svg xmlns="http://www.w3.org/2000/svg" width="63" height="63" viewBox="0 0 63 63"><g id="inst-Auto_Follow-Unfollow" data-name="inst-Auto Follow-Unfollow" transform="translate(-146 -161.932)"><circle id="Ellipse_10" data-name="Ellipse 10" cx="31.5" cy="31.5" r="31.5" transform="translate(146 161.932)" fill="#fb8d1b"></circle><g id="Group_20" data-name="Group 20" transform="translate(161.37 179.728)"><path id="Path_162" data-name="Path 162" d="M249.863,122.185a1.553,1.553,0,1,1,1.553-1.551A1.553,1.553,0,0,1,249.863,122.185Z" transform="translate(-228.762 -114.514)" fill="#fff"></path><path id="Path_163" data-name="Path 163" d="M143.906,141.811a6.478,6.478,0,1,0-.112,12.955h.112a6.478,6.478,0,0,0,0-12.956Zm0,11.472h-.112a5.082,5.082,0,1,1,.112,0Z" transform="translate(-130.207 -134.707)" fill="#fff"></path><path id="Path_164" data-name="Path 164" d="M97.941,80.419a7.892,7.892,0,0,0-5.518-2.249H81.086a7.821,7.821,0,0,0-1.205.092,7.925,7.925,0,0,0-6.71,7.821V97.42a7.925,7.925,0,0,0,7.916,7.913H92.718v-1.44H81.086a6.48,6.48,0,0,1-6.474-6.474V86.083a6.481,6.481,0,0,1,6.474-6.474H92.423A6.48,6.48,0,0,1,98.9,86.083v2.79h1.44v-2.79a7.884,7.884,0,0,0-2.4-5.664Z" transform="translate(-73.17 -78.17)" fill="#fff"></path><path id="Path_165" data-name="Path 165" d="M305.24,190.336l3.179-4.856,3.18,4.856Z" transform="translate(-279.338 -173.503)" fill="#fff"></path><rect id="Rectangle_6" data-name="Rectangle 6" width="1.488" height="11.294" transform="translate(28.338 15.93)" fill="#fff"></rect><path id="Path_166" data-name="Path 166" d="M263.929,278.56l-3.179,4.857-3.18-4.857Z" transform="translate(-236.988 -256.194)" fill="#fff"></path><rect id="Rectangle_7" data-name="Rectangle 7" width="1.488" height="11.294" transform="translate(24.505 23.271) rotate(180)" fill="#fff"></rect></g></g></svg>