<svg xmlns="http://www.w3.org/2000/svg" width="400" height="400" viewBox="0 0 400 400"><g id="Group_4" data-name="Group 4" transform="translate(-634 -485)"><g id="Group_3" data-name="Group 3"><g id="Group_2" data-name="Group 2"><g id="li_list" transform="translate(634 484.26)"><circle id="Ellipse_3" data-name="Ellipse 3" cx="200" cy="200" r="200" transform="translate(0 0.74)" fill="#007ebb"></circle><path id="Path_13" data-name="Path 13" d="M328.47,313.53H274a14,14,0,0,1-14-13.93V223.54a14,14,0,0,1,14-13.93h49.94l18.5,16.83v73.2A14,14,0,0,1,328.47,313.53ZM274,217.59a5.91,5.91,0,0,0-5.9,5.91v76.1a5.92,5.92,0,0,0,5.9,5.9h54.5a5.92,5.92,0,0,0,5.9-5.9V229.91l-13.6-12.36Z" fill="#fff"></path><rect id="Rectangle_11" data-name="Rectangle 11" width="46.37" height="6.3" transform="translate(278.03 242.05)" fill="#fff"></rect><rect id="Rectangle_12" data-name="Rectangle 12" width="46.37" height="6.3" transform="translate(278.03 253.8)" fill="#fff"></rect><rect id="Rectangle_13" data-name="Rectangle 13" width="46.37" height="6.3" transform="translate(278.03 265.54)" fill="#fff"></rect><rect id="Rectangle_14" data-name="Rectangle 14" width="46.37" height="6.3" transform="translate(278.03 277.27)" fill="#fff"></rect><rect id="Rectangle_15" data-name="Rectangle 15" width="46.37" height="6.3" transform="translate(278.03 289.01)" fill="#fff"></rect><path id="Path_14" data-name="Path 14" d="M320.85,213.59l-.14,16.7h20Z" fill="#fff"></path><g id="linkedin_email_finder" data-name="linkedin email finder"><g id="Group_28" data-name="Group 28"><path id="Path_201" data-name="Path 201" d="M143.27,142.6H107.49a5.51,5.51,0,0,0-5.59,5.4V267.3a5.51,5.51,0,0,0,5.51,5.52h35.87a5.59,5.59,0,0,0,5.59-5.52h0V147.79A5.59,5.59,0,0,0,143.27,142.6ZM137.7,262H113V153.46h24.7Z" fill="#fff"></path><path id="Path_202" data-name="Path 202" d="M125.42,82.47a23.2,23.2,0,1,0,23.19,23.193v0a23.19,23.19,0,0,0-23.19-23.19Zm0,35.78a12.42,12.42,0,1,1,12.25-12.58v.16h0a12.25,12.25,0,0,1-12.09,12.1Z" fill="#fff"></path><path id="Path_15" data-name="Path 15" d="M232.77,141.37a53.34,53.34,0,0,0-24.68,5.92,5.51,5.51,0,0,0-5.51-5.1H167a5.6,5.6,0,0,0-5.51,5.6V267.3a5.52,5.52,0,0,0,5.51,5.52h35.95a5.52,5.52,0,0,0,5.51-5.52V201.5a15.47,15.47,0,1,1,30.93,0v65.8a5.67,5.67,0,0,0,5.67,5.52h6.8c-.43-3.7-.77-7.39-.91-11.11h-.29V201.58a26.57,26.57,0,0,0-53-3,15.391,15.391,0,0,0,0,2.88v60.12H173V153.46h24.68v4.11a5.52,5.52,0,0,0,5.51,5.52h.08a4.94,4.94,0,0,0,3.46-1.24,41.08,41.08,0,0,1,26.24-9.16,42.12,42.12,0,0,1,42.37,41.86h0v2.27a14.864,14.864,0,0,1,2.4-.21,15.69,15.69,0,0,1,5.53,1c1,.06,2,.19,3,.35v-3.13A53.53,53.53,0,0,0,232.77,141.37Z" fill="#fff"></path></g></g></g></g></g></g></svg>