<svg xmlns="http://www.w3.org/2000/svg" width="63" height="63" viewBox="0 0 63 63"><g id="lnkd-LinkedIn_Group_Member_Extractor" data-name="lnkd-LinkedIn Group Member Extractor" transform="translate(-143 -152.455)"><circle id="Ellipse_19" data-name="Ellipse 19" cx="31.5" cy="31.5" r="31.5" transform="translate(143 152.455)" fill="#007ebb"></circle><g id="Linked_In_iconm_yellow" data-name="Linked In iconm yellow" transform="translate(158.546 167.024)"><g id="transparent" transform="translate(0)"><path id="Path_272" data-name="Path 272" d="M44.751,66.461a13.912,13.912,0,0,1,1.52-1.076c0-.164-.136-.228-.212-.32a4.481,4.481,0,1,1,6.853-.08c-.3.364-.24.456.12.692A6.473,6.473,0,0,1,56.1,70.966a17.775,17.775,0,0,1,0,1.788.972.972,0,0,1-.972,1.032.988.988,0,0,1-1-1.02,14.858,14.858,0,0,0-.128-2.528A4.685,4.685,0,0,0,45.3,69.129a.58.58,0,0,0,.076.8,6.4,6.4,0,0,1,1.676,4.353v1.492a.988.988,0,0,1-1.976.036c-.028-.564,0-1.128,0-1.692a4.593,4.593,0,0,0-3.492-4.333A4.661,4.661,0,0,0,35.7,74.142c-.02.512,0,1.028,0,1.54a.988.988,0,0,1-.968,1.092,1,1,0,0,1-1.024-1.052A7.533,7.533,0,0,1,35.5,69.765c.18-.192.092-.356,0-.54a4.673,4.673,0,0,0-8.777,1.18,13.29,13.29,0,0,0-.088,2.18c0,.728-.4,1.168-1,1.164s-.976-.436-1-1.164a8.366,8.366,0,0,1,.8-4.445,6.593,6.593,0,0,1,2.356-2.5c.3-.18.4-.264.124-.6a4.49,4.49,0,1,1,6.861-.052c-.292.348-.248.476.12.664a6.961,6.961,0,0,1,1.232.96,4.577,4.577,0,0,1,1.288-4.8,4.261,4.261,0,0,1,3.344-1.124A4.309,4.309,0,0,1,44.091,62.6a4.773,4.773,0,0,1,.66,3.861ZM49.432,64.6a2.4,2.4,0,0,0,2.5-2.46,2.472,2.472,0,0,0-2.456-2.48,2.508,2.508,0,0,0-2.508,2.492A2.436,2.436,0,0,0,49.432,64.6Zm-18.187,0a2.436,2.436,0,0,0,2.552-2.46,2.484,2.484,0,0,0-4.969,0,2.444,2.444,0,0,0,2.416,2.464Zm9.133,3a2.4,2.4,0,0,0,2.508-2.432,2.488,2.488,0,0,0-4.973,0A2.365,2.365,0,0,0,40.379,67.609Z" transform="translate(-24.627 -44.212)" fill="#fefdfc" stroke="#007ebb" stroke-width="1"></path><path id="linkedin_1_" data-name="linkedin (1)" d="M86.878,95.58H85.853a.683.683,0,0,1-.683-.683V88.544a.683.683,0,0,1,.683-.683h1.025a.683.683,0,0,1,.683.683V94.9A.683.683,0,0,1,86.878,95.58ZM87.8,85.4a1.4,1.4,0,1,0-1.4,1.4,1.4,1.4,0,0,0,1.4-1.4Zm8.71,9.5V91.334c0-2.072-.438-3.609-2.858-3.609a2.481,2.481,0,0,0-2.263,1.187h0v-.367a.683.683,0,0,0-.683-.683h-.956a.683.683,0,0,0-.683.683V94.9a.683.683,0,0,0,.683.683H90.7a.683.683,0,0,0,.683-.683v-3.15c0-1,.255-1.976,1.5-1.976,1.227,0,1.267,1.148,1.267,2.04V94.9a.683.683,0,0,0,.683.683h.991a.683.683,0,0,0,.683-.683Z" transform="translate(-74.8 -84.002)" fill="none" stroke="#fff" stroke-width="1"></path></g></g></g></svg>