<svg xmlns="http://www.w3.org/2000/svg" width="279" height="285" viewBox="0 0 279 285"><g id="Group_114" data-name="Group 114" transform="translate(13580 -9597)"><g id="Group_112" data-name="Group 112" transform="translate(-835 365)"><g id="Group_107" data-name="Group 107" transform="translate(161 217)"><g id="Group_113" data-name="Group 113"><path id="Path_464" data-name="Path 464" d="M139.5,0C216.544,0,279,63.8,279,142.5S216.544,285,139.5,285,0,221.2,0,142.5,62.456,0,139.5,0Z" transform="translate(-12906 9015)" fill="#007ebb"></path><g id="fire" transform="translate(-12907.773 9567.762)"><path id="Path_462" data-name="Path 462" d="M111.96-508.7c.319,5.476-.522,9.627-2.67,13.378-2.061,3.576-4.093,5.226-9.985,8.1a27.129,27.129,0,0,0-7.779,6.377,17,17,0,0,0-3.744,12.1c.174,3.3.871,5.4,2.9,8.852,2.09,3.526,1.6,5.676-1.684,7.327a9.3,9.3,0,0,1-6.357.475c-3.309-1.075-5.863-3.726-8.824-9.2a28.374,28.374,0,0,0-2.032-3.426c-.232.025-5.544,7.7-6.647,9.627A43.442,43.442,0,0,0,62.207-418.1c7.054,18.479,26.153,31.682,48.708,33.658,19.622,1.7,39.216-5.726,51.088-19.38,13.5-15.5,15.326-36.008,4.76-52.887a54.3,54.3,0,0,0-11.727-13,77.037,77.037,0,0,0-6.879-4.8c-.2-.05-.929,1.175-1.742,2.926-2.845,6.151-6.154,9.227-9.84,9.2-5.747-.05-6.908-6.051-2.99-15.229,1.858-4.326,2.148-5.676,1.974-9.277-.29-5.651-3.019-10.6-8.708-15.7-3.657-3.3-6.647-5.251-13.991-9.1l-1.1-.6ZM123.4-494.471c3.919,4.876,4.5,8.752,2.119,14.053-3.57,7.927-3.861,14.653-.871,19.5,2.583,4.2,8.8,6.8,14.281,5.951a18.9,18.9,0,0,0,11.059-6.477c.435-.55.9-1.025,1.045-1.025.435,0,4.064,3.8,5.834,6.126a37.032,37.032,0,0,1,5.573,36.008c-3.338,8.7-11.059,17.2-20.2,22.23a7.8,7.8,0,0,1-1.684.8,10.727,10.727,0,0,1,.522-1.2c2.612-5.3,2.467-13.1-.319-17.829-.319-.55-2.322-3.251-4.441-6-5.776-7.5-7.257-10.6-8.128-17-.232-1.775-.522-3.726-.639-4.3l-.2-1.05-3.774,1.3a35.637,35.637,0,0,0-10.363,5.276,25.125,25.125,0,0,0-8.969,11.478c-.522,1.4-.987,2.6-1.045,2.651a35.134,35.134,0,0,1-3.861-.85,34.848,34.848,0,0,0-3.89-.85c-.058.05-.813,1.625-1.713,3.476-4.5,9.377-4.964,17.3-1.451,24.706.087.2-.406.025-1.1-.35a53.3,53.3,0,0,1-12.888-9.977c-10.276-11.3-13.033-26.631-7.228-40.109l.755-1.775,1.858,1.475a18.043,18.043,0,0,0,11.408,4.026,16.633,16.633,0,0,0,11.524-4.1c2.438-2.126,3.541-3.926,3.977-6.5s-.2-5.251-1.945-8.177-2.206-4.4-2.206-6.852c0-5.126,2.99-8.9,9.434-12a24.863,24.863,0,0,0,13.382-14.9l.522-1.575,1.277,1.25A30.041,30.041,0,0,1,123.4-494.471Zm.377,68.891c.755,1.225,3.164,4.626,5.37,7.527,4.615,6,5.08,6.977,5.109,10.7a12.165,12.165,0,0,1-1.916,7.152c-2.816,5.026-9.318,8.5-15.878,8.5a20.305,20.305,0,0,1-12.482-4.476A14.463,14.463,0,0,1,98.752-409.6c.261-2.226,1.248-6.176,1.713-6.8.145-.2,1.742.1,5.428,1.05l5.254,1.325.29-4.151c.261-3.426.435-4.526,1.132-6.251a18.3,18.3,0,0,1,5.631-7.4l2.119-1.725,1.074,2.851A39.662,39.662,0,0,0,123.774-425.58Z" transform="translate(24.791 37.992)" fill="#fff"></path></g></g></g></g></g></svg>