<svg xmlns="http://www.w3.org/2000/svg" id="Layer_1" data-name="Layer 1" viewBox="0 0 128 128"><defs><style>.cls-1,.cls-4{fill:#007ebb;}.cls-2{fill:none;stroke-width:1.87px;}.cls-2,.cls-4{stroke:#fff;}.cls-2,.cls-3,.cls-4{stroke-miterlimit:10;}.cls-3{fill:#fff;stroke:#007ebb;stroke-width:4.05px;}.cls-4{stroke-width:1.6px;}</style></defs><rect class="cls-1" x="1" y="1" width="126" height="126" rx="63"></rect><rect class="cls-2" x="23.82" y="53.16" width="12.51" height="40.43"></rect><path class="cls-2" d="M30,47.86a7.46,7.46,0,1,0-7.4-7.46A7.43,7.43,0,0,0,30,47.86Z"></path><path class="cls-2" d="M56.34,72.36c0-5.68,2.61-9.07,7.62-9.07,4.6,0,6.81,3.25,6.81,9.07V93.58H83.23V68c0-10.83-6.14-16.07-14.71-16.07A14.1,14.1,0,0,0,56.34,58.6V53.16h-12V93.58h12Z"></path><rect class="cls-3" x="63.67" y="77.9" width="24.26" height="10.06" transform="translate(158.73 7.13) rotate(90)"></rect><rect class="cls-4" x="71.44" y="71.47" width="8.71" height="22.91"></rect><rect class="cls-3" x="73.79" y="75.74" width="28.57" height="10.06" transform="translate(168.85 -7.3) rotate(90)"></rect><rect class="cls-4" x="83.72" y="67.17" width="8.71" height="27.22"></rect><rect class="cls-3" x="93.1" y="82.77" width="14.52" height="10.06" transform="translate(188.15 -12.55) rotate(90)"></rect><rect class="cls-4" x="96" y="81.22" width="8.71" height="13.17"></rect></svg>