<svg xmlns="http://www.w3.org/2000/svg" width="63" height="63" viewBox="0 0 63 63"><g id="lnkd-Email_Finder" data-name="lnkd-Email Finder" transform="translate(-647 -152.455)"><circle id="Ellipse_23" data-name="Ellipse 23" cx="31.5" cy="31.5" r="31.5" transform="translate(647 152.455)" fill="#007ebb"></circle><g id="linkedin_email_finder" transform="translate(666.428 170.843)"><g id="Group_28" data-name="Group 28"><path id="Path_201" data-name="Path 201" d="M18.929,19H14.243a.722.722,0,0,0-.733.722V35.333a.722.722,0,0,0,.733.722h4.687a.733.733,0,0,0,.733-.722h0V19.679A.733.733,0,0,0,18.929,19ZM18.2,34.644H14.964V20.422H18.2Z" transform="translate(-13.51 -11.124)" fill="#fff"></path><path id="Path_202" data-name="Path 202" d="M16.588,11.69a3.038,3.038,0,1,0,3.038,3.038h0A3.038,3.038,0,0,0,16.588,11.69Zm0,4.687a1.627,1.627,0,1,1,1.605-1.627h0a1.605,1.605,0,0,1-1.584,1.584Z" transform="translate(-13.507 -11.69)" fill="#fff"></path><path id="Path_203" data-name="Path 203" d="M30.091,18.85a7,7,0,0,0-3.232.776.722.722,0,0,0-.722-.668H21.472a.733.733,0,0,0-.722.733V35.345a.722.722,0,0,0,.722.722H26.18a.722.722,0,0,0,.722-.722h0V26.726a2.025,2.025,0,0,1,4.051,0v8.619a.743.743,0,0,0,.743.722h4.665a.722.722,0,0,0,.733-.722h0V25.853A7.014,7.014,0,0,0,30.091,18.85Zm5.57,15.762H32.429V26.737a3.48,3.48,0,0,0-6.938-.388h0a2.155,2.155,0,0,0,0,.377V34.6H22.258V20.434h3.232v.539a.722.722,0,0,0,.733.722.646.646,0,0,0,.453-.162,5.387,5.387,0,0,1,3.437-1.2,5.516,5.516,0,0,1,5.549,5.484h0Z" transform="translate(-12.95 -11.136)" fill="#fff"></path></g></g></g></svg>