<svg xmlns="http://www.w3.org/2000/svg" width="400" height="400" viewBox="0 0 400 400"><g id="Group_10" data-name="Group 10" transform="translate(-560 -660)"><g id="Group_3" data-name="Group 3" transform="translate(-1649 -623)"><g id="Group_1" data-name="Group 1" transform="translate(2209 1283)"><g id="vr-Verify_Emails" data-name="vr-Verify Emails"><circle id="Ellipse_2" data-name="Ellipse 2" cx="200" cy="200" r="200" fill="#007ebb"></circle></g></g></g><g id="Group_9" data-name="Group 9" transform="translate(17.353 16.015)"><g id="Group_8" data-name="Group 8" transform="translate(615.96 748.97)"><path id="Path_4" data-name="Path 4" d="M293.165,168.558H279.506V145.55a23.748,23.748,0,0,0-.466-4.6c-.88-4.222-3.6-5.858-7.749-5.418-3.87.4-6.016,2.515-6.667,6.508a31.988,31.988,0,0,0-.387,4.934c-.044,6.913,0,13.826,0,20.739v.8H250.57V124.538h13.079v6.1a2.683,2.683,0,0,0,.352-.4,13.7,13.7,0,0,1,10.106-6.605,19.877,19.877,0,0,1,9.9.88c4.2,1.5,6.623,4.635,7.916,8.8a31.163,31.163,0,0,1,1.152,6.966,8.9,8.9,0,0,0,.123,1.073Z" transform="translate(-87.163 -84.115)" fill="#fff"></path><path id="Path_5" data-name="Path 5" d="M232.9,99.77c.6.167,1.2.29,1.759.5a7.9,7.9,0,1,1-4.072-.387,1.325,1.325,0,0,0,.361-.114Z" transform="translate(-83.962 -81.273)" fill="#fff"></path><path id="Path_6" data-name="Path 6" d="M225.29,124.7h13.589v43.976H225.29Z" transform="translate(-84.118 -84.277)" fill="#fff"></path><path id="Path_7" data-name="Path 7" d="M298.789,176.86l-2.507-2.5-.519-4.574.308-.51c.185-.317.343-.58.554-.88a56.975,56.975,0,0,0,10.326-35.181c-.695-20.1-12.991-39.1-31.32-48.444a53.959,53.959,0,0,0-13.193-4.7c-.959-.211-1.891-.378-2.788-.528a59.606,59.606,0,0,0-9.736-.809,56.624,56.624,0,0,0-48.066,26.386,58.927,58.927,0,0,0-4.793,9.349c-.475,1.17-.88,2.357-1.311,3.518a56.5,56.5,0,0,0-1.829,8.276l-.079.466c-.246,1.469-.5,2.982-.8,4.477-.053.281-.123.554-.185.827v7.476c.15.994.281,2,.4,2.858.176,1.293.378,2.639.651,3.993.22,1.073.457,2.128.721,3.166A64.49,64.49,0,0,0,197.6,158.5c.325.774.66,1.539,1.02,2.287a53.739,53.739,0,0,0,24.688,25.251l.493.255a65.961,65.961,0,0,0,11.434,4.547,54.8,54.8,0,0,0,11.759,2.049c1.02.062,2.032.088,3.043.088a51.33,51.33,0,0,0,8.954-.792,56.958,56.958,0,0,0,11.759-3.518,70.525,70.525,0,0,0,11.592-6.157c.15-.088.281-.185.422-.281l.211-.141c.176-.132.369-.264.572-.4l4.512.264.229.2a8.925,8.925,0,0,1,.809.721l1.873,1.873q17.335,17.353,34.618,34.68l7.995-7.775Zm-16-9.279a45.524,45.524,0,0,1-32.877,13.967h-.088a27.19,27.19,0,0,1-2.806-.1,45.357,45.357,0,0,1-11.759-2.331,46.122,46.122,0,0,1-22.745-16.984,44.794,44.794,0,0,1-3.659-6.157A45.623,45.623,0,0,1,205,144.651c-.079-.361-.141-.712-.2-1.064a46.025,46.025,0,0,1,.325-17.239,45.3,45.3,0,0,1,4.274-11.838c.158-.308.325-.607.493-.88A45.929,45.929,0,0,1,249.9,90.042h.185a45.735,45.735,0,0,1,32.71,77.574Z" transform="translate(-80.209 -78.74)" fill="#fff"></path><path id="Path_8" data-name="Path 8" d="M255.346,199.361V261.7H124.157V249.986H243.587V202.492a55.8,55.8,0,0,1-8.954.73c-1.011,0-2.023,0-3.043-.088v34.794H100.4V226.239H219.831V201.287a69.34,69.34,0,0,1-11.97-4.4v17.3H76.662V154c2.955,1.39,5.8,2.727,8.628,4.072q27.643,13.193,55.269,26.386a3.659,3.659,0,0,0,3.518,0q17.168-8.224,34.3-16.394c-.387-.827-.756-1.671-1.117-2.524a68.034,68.034,0,0,1-2.964-8.681l-20.8,9.921c-3.21,1.53-6.447,3.017-9.622,4.6a3.157,3.157,0,0,1-3.131,0q-31.267-14.952-62.587-29.833a2.419,2.419,0,0,1-1.645-2.639c.088-2.5,0-5,0-7.643h96.642a.88.88,0,0,1,0-.15v-.264a62.6,62.6,0,0,1,2.111-9.525c.211-.633.431-1.275.66-1.9H64.78V226.072h23.6v23.747h23.747v23.853H267.361V193.495a72,72,0,0,1-12.014,5.866Z" transform="translate(-64.78 -83.642)" fill="#fff"></path></g></g></g></svg>