<svg xmlns="http://www.w3.org/2000/svg" width="63" height="63" viewBox="0 0 63 63"><g id="dt-Startup_Submission_List" data-name="dt-Startup Submission List" transform="translate(-901 -373.059)"><circle id="Ellipse_37" data-name="Ellipse 37" cx="31.5" cy="31.5" r="31.5" transform="translate(901 373.059)" fill="#11cdef"></circle><g id="SVG" transform="translate(913.513 389.93)"><path id="Path_252" data-name="Path 252" d="M75.469,40.207v1.615a.65.65,0,1,1-1.3,0v-6.84a2.051,2.051,0,0,0-1.179-1.991,2.374,2.374,0,0,0-.965-.222h-11.1A2.07,2.07,0,0,0,58.806,34.9V50.829a2.092,2.092,0,0,0,2.171,2.145h5.661a.751.751,0,0,1,.578.2.642.642,0,0,1-.188,1.037l-.124.053H60.5l-.349-.1a4.2,4.2,0,0,1-.751-.255,3.317,3.317,0,0,1-1.908-2.915V34.937a3.336,3.336,0,0,1,2.288-3.257,3.621,3.621,0,0,1,1.127-.192h11.13a3.354,3.354,0,0,1,3.429,3.381C75.48,36.627,75.473,38.441,75.469,40.207Z" transform="translate(-42.329 -30.298)" fill="#fff"></path><path id="Path_253" data-name="Path 253" d="M100.741,66.532a2.363,2.363,0,0,0-1.694-1.987,2.63,2.63,0,0,0-.808-.135,2.393,2.393,0,0,0-1.713.751c-1.5,1.472-3.091,3.073-4.883,4.883a1.1,1.1,0,0,0-.267.428c-.229.725-.447,1.454-.669,2.182l-.376,1.228a.631.631,0,0,0,.124.71,1.071,1.071,0,0,0,.255.162l.1.056h.259l.751-.222a18.443,18.443,0,0,1,1.814-.492,4.132,4.132,0,0,0,2.254-1.3c1.071-1.127,2.209-2.254,3.309-3.328l.338-.327a3.4,3.4,0,0,0,1.236-1.968v-.537A.471.471,0,0,1,100.741,66.532Zm-3.118,2.686-.094.1c-1.033,1.033-2.062,2.062-3.1,3.088a.751.751,0,0,1-.331.214L92.785,73l-.9.248.263-.871c.135-.451.267-.886.4-1.318a.575.575,0,0,1,.158-.237l3.257-3.249.1-.09h.218l1.356,1.356.15.2Zm1.356-1.356-.184.169-1.623-1.623.15-.184a1.288,1.288,0,0,1,.992-.511,1.186,1.186,0,0,1,1.161,1.149A1.36,1.36,0,0,1,98.979,67.862Z" transform="translate(-62.8 -50.854)" fill="#fff"></path><path id="Path_254" data-name="Path 254" d="M72.445,56.533c-.545.672-1.1,1.337-1.649,2l-.147.173a4.027,4.027,0,0,1-.537.582,1.258,1.258,0,0,1-.793.285,1.364,1.364,0,0,1-.935-.376c-.3-.282-.6-.59-.95-.965a.646.646,0,0,1,0-.939.616.616,0,0,1,.439-.188.751.751,0,0,1,.5.222l.984.939,1.916-2.344.173-.21a.729.729,0,0,1,.541-.27.631.631,0,0,1,.409.154.642.642,0,0,1,.045.939Z" transform="translate(-48.413 -45.253)" fill="#fff"></path><path id="Path_255" data-name="Path 255" d="M72.444,71.2c-.751.9-1.39,1.705-2.073,2.505a1.382,1.382,0,0,1-1.048.537,1.45,1.45,0,0,1-1.033-.485l-.192-.192c-.214-.218-.428-.432-.639-.65a.657.657,0,0,1-.045-.965.616.616,0,0,1,.432-.184.8.8,0,0,1,.541.244c.173.169.346.334.526.5l.432.409L71.13,70.76c.1-.124.2-.252.308-.376a.714.714,0,0,1,.541-.274.631.631,0,0,1,.409.154.642.642,0,0,1,.056.932Z" transform="translate(-48.409 -54.413)" fill="#fff"></path><path id="Path_256" data-name="Path 256" d="M72.413,41.656c-.669.815-1.341,1.63-2.017,2.438a1.412,1.412,0,0,1-1.086.571,1.472,1.472,0,0,1-1.052-.5L68,43.894c-.184-.184-.376-.376-.548-.56a.654.654,0,0,1-.038-.973.609.609,0,0,1,.428-.184.8.8,0,0,1,.541.252c.169.165.342.327.522.492l.439.421,1.63-1.976.443-.533a.751.751,0,0,1,.56-.293.635.635,0,0,1,.4.15.657.657,0,0,1,.038.965Z" transform="translate(-48.4 -35.95)" fill="#fff"></path><path id="Path_257" data-name="Path 257" d="M89.031,47.731a.6.6,0,0,1-.173.455.751.751,0,0,1-.541.207H85.748a.65.65,0,1,1,0-1.3h2.569a.657.657,0,0,1,.714.635Z" transform="translate(-59.538 -40.042)" fill="#fff"></path><path id="Path_258" data-name="Path 258" d="M89,62.657a.646.646,0,0,1-.691.639H85.724a.65.65,0,1,1,0-1.292h2.6a.721.721,0,0,1,.515.2A.62.62,0,0,1,89,62.657Z" transform="translate(-59.51 -49.349)" fill="#fff"></path><path id="Path_259" data-name="Path 259" d="M17.932,51.068l-.349-.917a5.612,5.612,0,0,1,.627-5.507,8.413,8.413,0,0,1,1.127-1.168.424.424,0,0,0,.165-.436,16.689,16.689,0,0,1,.751-8.478,15.183,15.183,0,0,1,2.333-4.338c.507-.661,1.074-1.273,1.634-1.9.075.064.12.094.154.128A16.062,16.062,0,0,1,28.9,36.839a16.3,16.3,0,0,1,.12,6.239.376.376,0,0,0,.158.4,5.721,5.721,0,0,1,1.765,6.69c-.12.3-.233.612-.349.917l-.03.026-3-2.01-.436,1.728L25.948,50.8a2.01,2.01,0,0,1-.075,1.427c-.537,1.5-1.059,2.979-1.585,4.47,0,.023-.019.041-.038.086a.815.815,0,0,1-.045-.1c-.556-1.581-1.127-3.159-1.657-4.744a3.005,3.005,0,0,1-.075-.849,1.266,1.266,0,0,1,.068-.312l-1.164.03-.432-1.709-1,.669-1.983,1.337Zm6.915-3.9h1.788c.131,0,.18-.041.21-.169.255-1.04.518-2.073.774-3.114a15.479,15.479,0,0,0-.56-9.124c-.034-.1-.071-.154-.192-.154H21.632a.222.222,0,0,0-.165.116,15.28,15.28,0,0,0-.774,8.121c.207,1.127.526,2.254.8,3.381.075.3.154.6.233.894l.935.026H23.69V43.57h1.161Zm1.626-13.752a14.146,14.146,0,0,0-2.2-3.343,12.453,12.453,0,0,0-2.2,3.324ZM18.559,49.235c.654-.439,1.307-.879,1.965-1.307a.184.184,0,0,0,.086-.244q-.376-1.442-.725-2.892a.7.7,0,0,0-.045-.154,4.342,4.342,0,0,0-1.281,4.6Zm10.116-4.6c-.263,1.052-.522,2.081-.774,3.11a.2.2,0,0,0,.083.169c.4.278.808.545,1.213.811l.778.511A4.4,4.4,0,0,0,28.675,44.633Zm-5.056,4.913V48.42H22.03l.285,1.127Zm1.273,0h1.315l.285-1.127H24.9Zm-.672,3.572h.053c.188-.548.376-1.089.556-1.641a.548.548,0,0,0-.233-.6.612.612,0,0,0-.695.026.578.578,0,0,0-.2.646C23.863,52.074,24.051,52.615,24.22,53.119Z" transform="translate(-17.133 -28.32)" fill="#fff"></path><path id="Path_260" data-name="Path 260" d="M33.814,56.952a2.4,2.4,0,1,1,.711-1.7A2.4,2.4,0,0,1,33.814,56.952Zm-.849-.856a1.2,1.2,0,1,0-1.69,0A1.2,1.2,0,0,0,32.965,56.1Z" transform="translate(-24.988 -43.633)" fill="#fff"></path></g></g></svg>