<svg xmlns="http://www.w3.org/2000/svg" id="Layer_1" data-name="Layer 1" viewBox="0 0 400 400"><defs><style>.cls-1{fill:#11cdf0;}.cls-2{fill:#fff;}</style></defs><circle class="cls-1" cx="200" cy="200" r="188.2"></circle><path class="cls-2" d="M299.3,304.85H239.43a15.33,15.33,0,0,1-15.32-15.32v-83.6a15.33,15.33,0,0,1,15.32-15.32h54.86l20.32,18.51v80.41A15.33,15.33,0,0,1,299.3,304.85ZM239.43,199.44a6.5,6.5,0,0,0-6.49,6.49v83.6a6.5,6.5,0,0,0,6.49,6.49H299.3a6.5,6.5,0,0,0,6.49-6.49V213l-14.91-13.58Z"></path><rect class="cls-2" x="243.89" y="226.32" width="50.95" height="6.92"></rect><rect class="cls-2" x="243.89" y="239.22" width="50.95" height="6.92"></rect><rect class="cls-2" x="243.89" y="252.11" width="50.95" height="6.92"></rect><rect class="cls-2" x="243.89" y="265.01" width="50.95" height="6.92"></rect><rect class="cls-2" x="243.89" y="277.9" width="50.95" height="6.92"></rect><path class="cls-2" d="M290.93,195l-.15,18.35,22,0Z"></path><path class="cls-2" d="M85.39,95.15V271.79H213.16V178.9H262V95.15ZM182,197v50.72H165.46V197l-45.41-77.79H140l33.76,63.32q16.88-31.66,33.77-63.32h19.88Z"></path></svg>