<svg xmlns="http://www.w3.org/2000/svg" id="Layer_1" data-name="Layer 1" viewBox="0 0 400 400"><defs><style>.cls-1{fill:#11cdf0;}.cls-2{fill:#fff;}.cls-3{fill:#fefdfc;}</style></defs><circle class="cls-1" cx="201.43" cy="200" r="186.77"></circle><path class="cls-2" d="M293.87,257.12H234a15.33,15.33,0,0,1-15.32-15.32V158.2A15.33,15.33,0,0,1,234,142.88h54.86l20.32,18.51V241.8A15.33,15.33,0,0,1,293.87,257.12ZM234,151.71a6.5,6.5,0,0,0-6.49,6.49v83.6a6.5,6.5,0,0,0,6.49,6.49h59.87a6.5,6.5,0,0,0,6.49-6.49V165.29l-14.91-13.58Z"></path><rect class="cls-2" x="238.45" y="178.59" width="50.95" height="6.92"></rect><rect class="cls-2" x="238.45" y="191.49" width="50.95" height="6.92"></rect><rect class="cls-2" x="238.45" y="204.38" width="50.95" height="6.92"></rect><rect class="cls-2" x="238.45" y="217.28" width="50.95" height="6.92"></rect><rect class="cls-2" x="238.45" y="230.17" width="50.95" height="6.92"></rect><path class="cls-2" d="M285.5,147.31l-.16,18.35,22,0Z"></path><path class="cls-3" d="M145.23,199.66a15.38,15.38,0,1,1,15.37-15.37A15.39,15.39,0,0,1,145.23,199.66Zm0-24.75a9.38,9.38,0,1,0,9.37,9.38A9.39,9.39,0,0,0,145.23,174.91Z"></path><path class="cls-3" d="M172.69,224.12H117.76v-3a27.47,27.47,0,0,1,54.93,0Zm-48.72-6h42.51a21.47,21.47,0,0,0-42.51,0Z"></path><path class="cls-3" d="M200.49,290.61a9,9,0,1,1,9-9.05A9.06,9.06,0,0,1,200.49,290.61Zm0-14.09a5,5,0,1,0,5,5A5.05,5.05,0,0,0,200.49,276.52Z"></path><path class="cls-3" d="M216.42,304.54H184.56v-2a15.93,15.93,0,1,1,31.86,0Zm-27.69-4h23.53a11.93,11.93,0,0,0-23.53,0Z"></path><path class="cls-3" d="M145.23,251.55a51.52,51.52,0,1,1,22.46-5.14A51.05,51.05,0,0,1,145.23,251.55Zm0-95.1a43.55,43.55,0,1,0,0,87.1A43.53,43.53,0,0,0,188.78,200,43.6,43.6,0,0,0,145.23,156.45Z"></path><path class="cls-3" d="M200.49,325.55a33.78,33.78,0,1,1,14.73-3.37A33.43,33.43,0,0,1,200.49,325.55Zm0-61.61a27.81,27.81,0,0,0,0,55.61,27.78,27.78,0,0,0,27.8-27.8A27.84,27.84,0,0,0,200.49,263.94Z"></path><path class="cls-3" d="M206.88,104.46a9.05,9.05,0,1,0-12.78,0,16,16,0,0,0-9.54,14.59v2h31.86v-2A16,16,0,0,0,206.88,104.46ZM200.49,93a5,5,0,1,1-5.05,5A5,5,0,0,1,200.49,93Zm-11.76,24a11.93,11.93,0,0,1,23.53,0Z"></path><path class="cls-3" d="M200.49,142.06a33.8,33.8,0,1,1,14.73-3.38A33.44,33.44,0,0,1,200.49,142.06Zm0-61.61a27.81,27.81,0,1,0,27.8,27.8A27.83,27.83,0,0,0,200.49,80.45Z"></path><rect class="cls-3" x="158.45" y="141.83" width="29.67" height="6" transform="translate(-49.12 184.06) rotate(-49.89)"></rect><rect class="cls-3" x="170.28" y="240.05" width="6" height="29.67" transform="translate(-123.45 171.57) rotate(-40.11)"></rect></svg>