<svg xmlns="http://www.w3.org/2000/svg" id="Layer_1" data-name="Layer 1" viewBox="0 0 400 400"><defs><style>.cls-1{fill:#11cdf0;}.cls-2{fill:#fff;}.cls-3{fill:#fefdfc;}</style></defs><circle class="cls-1" cx="200" cy="200" r="188.2"></circle><path class="cls-2" d="M238,132.14H183.16a15.33,15.33,0,0,0-15.31,15.31v50.1a50.59,50.59,0,0,1,8.82,9.58V147.45a6.5,6.5,0,0,1,6.49-6.49h51.46l14.9,13.57v55.32l8.83-18.22v-41ZM189.31,246.37h42.52l4.27-8.82H188.37C188.8,240.33,189.12,243.26,189.31,246.37Z"></path><rect class="cls-2" x="187.62" y="167.85" width="50.95" height="6.92"></rect><rect class="cls-2" x="187.62" y="180.74" width="50.95" height="6.92"></rect><rect class="cls-2" x="187.62" y="193.64" width="50.95" height="6.92"></rect><rect class="cls-2" x="187.62" y="206.54" width="50.95" height="6.92"></rect><rect class="cls-2" x="187.62" y="219.43" width="50.95" height="6.92"></rect><path class="cls-2" d="M234.66,136.57l-.15,18.35,22,0Z"></path><path class="cls-3" d="M165.63,207.84a47.8,47.8,0,0,0-16.94-11.62,26.67,26.67,0,1,0-35.64,0,47.74,47.74,0,0,0-29.86,44.2v5.16h95.35v-5.16A47.45,47.45,0,0,0,165.63,207.84Zm-34.77-47.76a16.34,16.34,0,1,1-16.32,16.34A16.36,16.36,0,0,1,130.86,160.08Zm-37,75.17a37.33,37.33,0,0,1,73.94,0Z"></path><path class="cls-2" d="M311.84,154.52l-12.38-6a8.81,8.81,0,0,0-11.74,4.11l-5.31,11-3.21,6.64,6.64,3.21,15,7.21,6.63,3.21,3.2-6.64,5.31-11A8.8,8.8,0,0,0,311.84,154.52Zm-22.79,12.32,5.31-11a1.43,1.43,0,0,1,1.9-.66l12.37,6a1.42,1.42,0,0,1,.67,1.9l-5.32,11Z"></path><path class="cls-2" d="M304,174.05l-14.93-7.21-6.64-3.21-3.21,6.64-30.53,63.24.81,34.35,27.41-20.74,30.53-63.22,3.2-6.64Zm-31.74,65.76L271,242.32l-4.1,3.1-10.42,7.89-.31-13.08-.12-5.12,1.21-2.53,28.55-59.1,15,7.21Z"></path><rect class="cls-2" x="259.49" y="227.53" width="7.37" height="23.96" transform="translate(-66.95 372.35) rotate(-64.23)"></rect></svg>