<svg xmlns="http://www.w3.org/2000/svg" xmlns:xlink="http://www.w3.org/1999/xlink" id="Layer_1" x="0px" y="0px" viewBox="0 0 2714 579" style="enable-background:new 0 0 2714 579;" xml:space="preserve">
<style type="text/css">
	.st0{fill:#5F71E4;}
</style>
<g id="Group_28" transform="translate(99 -375)">
	<g>
		<path id="Path_11_8_" class="st0" d="M208,386.5c17.9,0,35.8,1.8,53.4,5.3c4.8,1,9.5,2,14.2,3.2C404,427.1,489.4,541.3,486,676.1    c-3.1,125.7-98.2,236.4-224.4,261.3c-9.3,1.8-18.7,3.4-28,5.1h-50.9c-2.4-0.7-4.8-1.7-7.2-2C62.5,927.8-33.4,844.3-61,734.1    c-2.6-10.2-4.5-20.7-6.4-31.1c-1.7-8.9-2.5-17.9-2.5-27v-19.6c0-7.9,0.9-15.7,1.9-23.5c0,0,0,0,0-0.1    c13.9-116.5,95.9-209.7,209.7-238.2c4.4-1.1,8.8-2.1,13.2-2.9C172.4,388.2,190.1,386.5,208,386.5L208,386.5z M374.9,588    c-5.8,3.5-9.2,5.4-12.5,7.5c-46,28.7-92.2,57-137.8,86.2c-12,7.7-21.4,7.4-33.3-0.2c-45.6-29.2-91.8-57.5-137.8-86.2    c-3.3-2-6.7-3.9-11.4-6.6c-0.4,5-0.8,8.2-0.8,11.4c0,48.3,0,96.6,0,145c0,23.8,11.6,35.4,35.3,35.4c87.8,0,175.6,0,263.4,0    c23,0,34.8-11.7,34.8-34.7c0.1-32.5,0-64.9,0-97.4L374.9,588z M370.1,586c-3.4-2.7-4.5-3.7-5.7-4.4    c-50.1-31.2-100.2-62.3-150.1-93.8c-5.7-3.6-9.2-1.9-13.7,0.9c-48.8,30.5-97.6,61-146.4,91.4c-2.2,1.4-4,3.2-7.4,5.9L370.1,586z"></path>
		<path id="Path_12_8_" class="st0" d="M2586,747.6c-5.6,20.1-15.1,37.1-34.5,47.5c-36.2,19.2-123.4,21.4-168.8-24.8    c8.9-11,17.9-22,25-30.8c20.9,8.5,39.9,18.9,60.2,23.8c14.8,3.6,31.3,0.3,47-0.8c4.5-0.3,9.1-3.1,13.1-5.6    c11-6.7,14.9-17.1,13.4-29.4c-1.4-11.6-10-17.6-20.1-19.3c-18.9-3.2-38-4.7-57-6.9c-4.8-0.6-9.5-1.1-14.2-2    c-35.1-6.3-52.1-22.6-54.3-52.5c-3-39.3,12-67.1,45.1-77c50.9-15.2,98.9-7.2,144.5,23.4c-9.7,11.7-18.7,22.6-28.2,34.1    c-20-11.6-40.1-21.7-63.2-22.1c-10.9-0.2-22.4,0.3-32.6,3.7c-7.2,2.4-14.8,9-18.5,15.8c-8.1,15-1.6,28.8,15.2,31.8    c19.9,3.6,40.2,4.6,60.4,6.8c3.3,0.4,6.6,1,9.8,1.4c31.2,4,51.4,20.3,57.8,51.9L2586,747.6z"></path>
		<path id="Path_13_8_" class="st0" d="M615.3,470.6c34.3,0,68.2-0.1,102.1,0c14,0,28.2-0.9,42,1c55.8,7.7,90,52.9,84.5,110.3    c-5.7,59-42.3,92.5-101.7,92.7c-26.5,0.1-53,0-80.8,0V804h-46V470.6z M662,515.2v115h40.4c11.8,0,23.6-0.7,35.4,0.1    c48.1,3.3,63.1-37.1,57.4-70.6c-4.5-26.4-21.1-43.4-44.9-44.3C721.2,514.4,692.1,515.2,662,515.2L662,515.2z"></path>
		<path id="Path_14_8_" class="st0" d="M1436.1,900.3V566.7h46v27.6c2.1-1,3.2-1.2,3.7-1.9c21.4-27,49.3-34.9,82-26.6    c31.6,8,48.4,31,53.1,61.4c6.4,40.5,7.9,81.8-1.4,122c-10.9,47.1-60.4,71.9-104.7,53.4c-11.7-4.9-21.4-14.5-32.2-22v119.7H1436.1z     M1482.4,684.8h0.1c0,12.5-0.4,25.1,0.1,37.6c1,24.3,15.6,40.2,38.2,42.7c28.1,3.1,51.3-9.2,53.9-33.8c3.2-30.4,3.2-61,0-91.4    c-2.7-25.5-25.2-37.5-54.4-34.4c-23.2,2.4-37.1,18.2-37.9,43.8C1482.1,661.2,1482.4,673,1482.4,684.8z"></path>
		<path id="Path_15_8_" class="st0" d="M1836.8,704h-149.6c-0.1,20.2,5.3,36.9,21.4,48.8c22.8,16.8,53.4,13.4,90.7-9.3l29.8,29.4    c-34.2,37.9-104.6,46.6-146.9,17.8c-20.7-14.1-32.7-34.3-36.8-58.3c-5.4-32.2-6.1-64.8,1.3-96.8c14-60.3,79.9-91.3,135.8-64.4    c19.2,9.2,32.1,24.6,40.7,43.6C1835.7,642.6,1837.9,672.2,1836.8,704z M1791.6,665.5c-1.4-41.3-22.5-63.1-57.2-60    c-28.9,2.6-50.5,30.8-46,60H1791.6z"></path>
		<path id="Path_16_8_" class="st0" d="M1209.1,685.2c-1.1,15.4-1.1,31-3.4,46.3c-6.5,43.3-37.7,72.5-81.3,75.5    c-14.6,1-29.7,0.5-43.9-2.6c-35.1-7.6-57.1-30.5-64.6-65.2c-7.5-35.1-7.6-71.4-0.4-106.6c8.2-40.6,38.6-66.2,79.9-68.8    c12.4-0.8,25.3-1.1,37.5,1c45.8,7.9,72.8,40.9,75,90.5c0.4,9.9,0.1,19.9,0.1,29.9L1209.1,685.2z M1162.3,685.9    c-0.9-12.9-0.8-25.5-2.8-37.8c-4.4-26.9-22.6-41-50.6-40.6c-26.9,0.3-46.3,15.4-48.6,41.7c-2.1,23.9-2.1,47.8,0,71.7    c2.2,26.3,21.7,42,48,42.4c27.9,0.4,46.6-13.8,51.1-40.3C1161.4,710.7,1161.4,698,1162.3,685.9z"></path>
		<path id="Path_17_8_" class="st0" d="M1216.8,771c9.7-11.9,18.5-22.8,25.7-31.6c20.7,8.5,39.6,18.9,59.9,23.8    c14.8,3.6,31.4,0.7,47-0.8c6.1-0.6,12.6-4.6,17.5-8.7c16.4-14,11.9-38.6-8.6-44.6c-12.2-3.6-25.4-4.1-38.1-5.8    c-12.1-1.5-24.3-2.1-36.2-4.1c-41.9-7.2-59.7-32.7-52.9-75.2c4.9-31.1,22.8-50.9,54.9-57.3c43.1-8.7,84.4-3.6,122.7,19.4    c3.4,2.1,6.7,4.5,11.2,7.5l-26.6,32.2c-17.1-6.4-32.7-14.7-49.3-17.9c-14.7-2.9-30.6-0.8-45.9,0.3c-5,0.4-10.3,4-14.4,7.5    c-8,6.7-10.4,16.1-8.4,26.1c1.9,9.7,9.7,14,18.4,15.1c19.3,2.6,38.8,4.2,58.2,6.4c4,0.4,8,1,12,1.8c37,7,54.6,25.2,56.7,58.5    c2.5,40.6-13.3,67.6-49.5,77.3C1316,815.6,1263.8,809.6,1216.8,771z"></path>
		<path id="Path_18_8_" class="st0" d="M2173.1,770.6c9.4-11.5,18.1-22.3,25.4-31.3c20.7,8.5,39.6,18.9,59.8,23.8    c14.8,3.6,31.3,0.3,47-0.6c4.2-0.2,8.4-2.7,12.2-4.8c10.9-6.1,16.2-17.5,14.5-29.9s-10.4-18.1-20.9-19.8    c-19.2-3.2-38.8-4.3-58.1-6.9c-10.5-1.4-21.3-3.1-31.3-6.5c-20.8-7-32.8-22.1-34.6-44.1c-0.8-10.2-1-20.8,0.7-30.8    c4.4-25.5,19.9-42,44.3-50.4c43.8-15,104.9-4.8,143.2,24.6c-9,10.9-18,21.8-27.5,33.3c-4.4-2.3-8.6-4.4-12.7-6.7    c-22.3-12.2-45.9-18.3-71.3-14.6c-6.9,1-13.6,3.1-19.8,6.3c-11.1,5.9-14.4,16.3-13,28.2c1.3,11.3,10,15.3,19.3,16.6    c19.3,2.6,38.8,4.2,58.2,6.2c2.9,0.3,5.9,0.6,8.8,1.1c51.2,9.5,73.3,50.3,53.5,99.2c-7.1,17.5-20,29.7-37.6,35.2    c-52.3,16.2-102.6,13-149-18.6C2180.7,777.4,2177.3,774.1,2173.1,770.6z"></path>
		<path id="Path_19_8_" class="st0" d="M2047.4,599c-13,11.7-23.7,21.3-35,31.5c-2.6-2.2-5.1-4.2-7.5-6.3    c-17.8-15.3-38.5-19.8-61.1-15.4c-23.1,4.5-38.6,21.6-40,45.4c-1.3,20.3-1.3,40.6,0,60.8c2.6,37.9,39.7,58.9,77.9,44    c11-4.3,20.5-12.3,31.6-19.1c9,9.9,19,21.1,29.9,33.2c-15.4,20.3-39.3,30.8-66.4,33.4c-16.3,1.5-33.5,1-49.4-2.4    c-37.6-8-62.5-32-67.6-70c-4.1-30.7-4.6-61.8-1.3-92.5c4.7-42.9,31.7-68.5,74.4-76.4c28.2-5.2,56.2-3.6,81.9,10.2    C2026,581.3,2035.5,590.2,2047.4,599z"></path>
		<path id="Path_20_8_" class="st0" d="M2079.1,497.5h46.8v68.5h35.7v41.6h-35c-0.2,5.1-0.6,9-0.6,12.9c0,38.4,0,76.7,0,115.1    c0,22.8,2.4,25.1,25.2,25.3c3.2,0,6.5,0.3,10.4,0.5v43.5c-18.3,0.3-36.6,3.1-54.1-4.5c-16.2-7-23.5-20.8-26.3-37.2    c-1.5-9.5-2.2-19-2.1-28.6c-0.2-41.6-0.1-83.3-0.1-125.9c-8.3-0.4-15.8-0.7-23.9-1.1v-41.2h24L2079.1,497.5z"></path>
		<path id="Path_21_8_" class="st0" d="M861.4,566.5h45.4v32.1c15.8-19.5,31.8-33.1,54.4-35.2c22.1-2,42.5,1.8,60.9,17.9    c-9.8,13.3-19.5,26.6-27.6,37.6c-13.3-4.1-25-10-37.1-10.9c-32.1-2.5-49.9,14.9-50.1,47.3c-0.3,45.4-0.1,90.7-0.1,136.1    c0,4,0,8,0,12.6h-45.8V566.5z"></path>
	</g>
</g>
</svg>