<svg xmlns="http://www.w3.org/2000/svg" width="63" height="63" viewBox="0 0 63 63"><g id="vr-Phone_Number_Verify" data-name="vr-Phone Number Verify" transform="translate(-397 -373.059)"><circle id="Ellipse_36" data-name="Ellipse 36" cx="31.5" cy="31.5" r="31.5" transform="translate(397 373.059)" fill="#0386ff"></circle><g id="Group_106" data-name="Group 106" transform="translate(405.864 379.71)"><path id="Path_443" data-name="Path 443" d="M29.677,39.223c-.18,0-.36-.012-.542-.026l-.032,0a14.713,14.713,0,0,1-6.58-2.821A46.768,46.768,0,0,1,11.03,24.879,16.227,16.227,0,0,1,8.3,18.844,3.623,3.623,0,0,1,9.163,15.5a16.467,16.467,0,0,1,3.163-2.821,2.7,2.7,0,0,1,2.04-.5A2.618,2.618,0,0,1,16.027,13.4l.58.882c.8,1.213,1.619,2.466,2.454,3.677a3.22,3.22,0,0,1-.4,3.964c-.594.8-.535,1.247.271,2.084l.289.3c1.5,1.561,3.055,3.176,4.724,4.6.551.468.632.4.876.2,1.979-1.642,4.051-1.556,6.16.252a16.08,16.08,0,0,0,2.065,1.423c.319.2.649.4.971.613a2.322,2.322,0,0,1,.923,3.265,11.763,11.763,0,0,1-3.986,4.234A2.3,2.3,0,0,1,29.677,39.223Zm-.4-1.58c.558.044.721.012.857-.072a10.244,10.244,0,0,0,3.456-3.684c.132-.23.377-.659-.427-1.187-.3-.2-.624-.4-.935-.589a17.583,17.583,0,0,1-2.26-1.567c-1.528-1.31-2.768-1.381-4.148-.236a2.051,2.051,0,0,1-2.882-.21,67.283,67.283,0,0,1-4.838-4.7l-.289-.3a2.849,2.849,0,0,1-.4-4.1c.707-.952.8-1.513.366-2.148-.845-1.225-1.673-2.486-2.473-3.707q-.288-.439-.578-.88a1.142,1.142,0,0,0-.666-.556,1.257,1.257,0,0,0-.863.265,14.97,14.97,0,0,0-2.864,2.561,2.078,2.078,0,0,0-.506,1.992,14.7,14.7,0,0,0,2.484,5.459A45.231,45.231,0,0,0,23.419,35.094,13.208,13.208,0,0,0,29.276,37.643Z" fill="#fff"></path><path id="Path_444" data-name="Path 444" d="M29.922,24.78a7.153,7.153,0,1,1,7.153-7.153A7.161,7.161,0,0,1,29.922,24.78Zm0-12.745a5.593,5.593,0,1,0,5.593,5.593A5.6,5.6,0,0,0,29.922,12.035Z" fill="#fff"></path><path id="Path_445" data-name="Path 445" d="M28.6,21.134l-2.738-2.867,1.128-1.076L28.625,18.9l4.358-4.376,1.105,1.1Z" fill="#fff"></path></g></g></svg>