<svg xmlns="http://www.w3.org/2000/svg" width="63" height="63" viewBox="0 0 63 63"><g id="prdt-Follower_Scraper" data-name="prdt-Follower Scraper" transform="translate(-899 -150.516)"><circle id="Ellipse_18" data-name="Ellipse 18" cx="31.5" cy="31.5" r="31.5" transform="translate(899 150.516)" fill="#de5425"></circle><g id="ph_follower_scraper_ext_icon" transform="translate(916.291 167.135)"><path id="Path_194" data-name="Path 194" d="M160.232,132a4.566,4.566,0,0,0-3.987-2.241c-2.065.025-4.13.01-6.215.01V142.7c.87-.02,1.719.027,2.589-.031v-3.852c1.336,0,2.647-.012,3.959.007a3.216,3.216,0,0,0,1.025-.187,4.458,4.458,0,0,0,2.518-1.85,4.692,4.692,0,0,0,.733-1.954,4.574,4.574,0,0,0-.621-2.836m-3.677,4.23h-.042a.416.416,0,0,1-.08.009c-1.266-.009-2.533-.005-3.819-.005v-3.879c1.208,0,2.395-.031,3.579.005.039,0,.078-.005.117-.005a1.912,1.912,0,0,1,1.252.446,1.831,1.831,0,0,1,.5.658,1.989,1.989,0,0,1,.234.783,1.343,1.343,0,0,1,.005.168,1.848,1.848,0,0,1-1.747,1.821" transform="translate(-140.904 -122.252)" fill="#fefdfd"></path><path id="Path_195" data-name="Path 195" d="M160.232,132a4.566,4.566,0,0,0-3.987-2.241c-2.065.025-4.13.01-6.215.01V142.7c.87-.02,1.719.027,2.589-.031v-3.852c1.336,0,2.647-.012,3.959.007a3.216,3.216,0,0,0,1.025-.187,4.458,4.458,0,0,0,2.518-1.85,4.692,4.692,0,0,0,.733-1.954A4.574,4.574,0,0,0,160.232,132Zm-3.677,4.23h-.042a.416.416,0,0,1-.08.009c-1.266-.009-2.533-.005-3.819-.005v-3.879c1.208,0,2.395-.031,3.579.005.039,0,.078-.005.117-.005a1.912,1.912,0,0,1,1.252.446,1.831,1.831,0,0,1,.5.658,1.989,1.989,0,0,1,.234.783,1.343,1.343,0,0,1,.005.168A1.848,1.848,0,0,1,156.556,136.228Z" transform="translate(-140.904 -122.252)" fill="none" stroke="#fff" stroke-width="1"></path><path id="Path_196" data-name="Path 196" d="M84.749,71.251h.879a13.708,13.708,0,1,0-16.614,10.3c.392.1.783.169,1.174.226v-.873a13.237,13.237,0,0,1-3.757-1.2A13.819,13.819,0,0,1,59.4,67.937a12.857,12.857,0,1,1,25.352,3.315" transform="translate(-58.546 -54.521)" fill="#fefdfd"></path><g id="Group_24" data-name="Group 24" transform="translate(13.135 24.006)"><path id="Path_197" data-name="Path 197" d="M196.65,300.469h-5.073a1.491,1.491,0,0,1-.569-.109,1.254,1.254,0,0,1-.546-.422,1.3,1.3,0,0,1-.228-.572,1.672,1.672,0,0,1,.114-.828,5.571,5.571,0,0,1,3.68-3.242,5.37,5.37,0,0,1,4.12.846l-.467.685a4.613,4.613,0,0,0-3.472-.722,4.543,4.543,0,0,0-1.215.539,4.621,4.621,0,0,0-1.879,2.207.861.861,0,0,0-.061.39.469.469,0,0,0,.08.207.428.428,0,0,0,.191.143.658.658,0,0,0,.252.046h5.073v.831Z" transform="translate(-190.223 -295.179)" fill="#fff"></path></g><g id="Group_25" data-name="Group 25" transform="translate(19.849 20.53)"><path id="Path_198" data-name="Path 198" d="M258.089,262.215l-.559-.613a4.825,4.825,0,0,1,4.4-1.138,6.864,6.864,0,0,1,2.163.853l-.453.7a6.14,6.14,0,0,0-1.9-.741A3.971,3.971,0,0,0,258.089,262.215Z" transform="translate(-257.53 -260.341)" fill="#fff"></path></g><g id="Group_26" data-name="Group 26" transform="translate(15.397 19.605)"><path id="Path_199" data-name="Path 199" d="M215.47,256.2a2.57,2.57,0,1,1,2.57-2.57A2.573,2.573,0,0,1,215.47,256.2Zm0-4.31a1.741,1.741,0,1,0,1.741,1.741A1.743,1.743,0,0,0,215.47,251.889Z" transform="translate(-212.9 -251.06)" fill="#fff"></path></g><g id="Group_27" data-name="Group 27" transform="translate(20.413 16.221)"><path id="Path_200" data-name="Path 200" d="M265.76,222.279a2.57,2.57,0,1,1,2.57-2.57A2.573,2.573,0,0,1,265.76,222.279Zm0-4.31a1.741,1.741,0,1,0,1.741,1.741A1.743,1.743,0,0,0,265.76,217.969Z" transform="translate(-263.19 -217.14)" fill="#fff"></path></g></g></g></svg>