<svg xmlns="http://www.w3.org/2000/svg" width="63" height="63" viewBox="0 0 63 63"><g id="prdt-Comment_Profile_Scraper" data-name="prdt-Comment Profile Scraper" transform="translate(-395 -150.516)"><circle id="Ellipse_17" data-name="Ellipse 17" cx="31.5" cy="31.5" r="31.5" transform="translate(395 150.516)" fill="#de5425"></circle><g id="Layer_2" data-name="Layer 2" transform="translate(410.417 164.862)"><g id="Layer_1" data-name="Layer 1"><path id="Path_188" data-name="Path 188" d="M157.921,129.9a5.075,5.075,0,0,0-2.722-2.273,4.914,4.914,0,0,0-1.891-.323c-2.389.022-4.782.011-7.188.011v14.966c1-.023,1.984.034,3-.034v-4.455c1.547,0,3.058-.011,4.582.012a3.4,3.4,0,0,0,1.188-.222,5.161,5.161,0,0,0,2.908-2.135,5.561,5.561,0,0,0,.854-2.262A5.462,5.462,0,0,0,157.921,129.9Zm-4.257,4.893h-.047a.262.262,0,0,1-.092.011c-1.466-.011-2.93,0-4.419,0v-4.488c1.4,0,2.769-.034,4.142.011.047,0,.092-.011.139-.011a2.2,2.2,0,0,1,1.453.519,2.224,2.224,0,0,1,.577.761,2.335,2.335,0,0,1,.277.912,1.16,1.16,0,0,1,.011.2,2.166,2.166,0,0,1-2.037,2.088Z" transform="translate(-135.554 -118.623)" fill="#fefdfd" stroke="#fff" stroke-width="1"></path><path id="Path_189" data-name="Path 189" d="M81.424,68.606H82.44A15.859,15.859,0,1,0,63.215,80.515c.45.111.912.2,1.361.265V79.765a15.225,15.225,0,0,1-4.349-1.385c-4.64-2.284-8.321-8.452-8.136-13.616a14.876,14.876,0,1,1,29.333,3.842Z" transform="translate(-51.105 -49.252)" fill="#fefdfd"></path><path id="Path_190" data-name="Path 190" d="M262.158,284.1a.688.688,0,1,0,.688.688A.688.688,0,0,0,262.158,284.1Z" transform="translate(-238.183 -257.631)" fill="#fefdfd" stroke="#fff" stroke-width="2"></path><path id="Path_191" data-name="Path 191" d="M294.939,284.1a.688.688,0,1,0,.688.688A.688.688,0,0,0,294.939,284.1Z" transform="translate(-266.808 -257.631)" fill="#fefdfd" stroke="#fff" stroke-width="2"></path><ellipse id="Ellipse_41" data-name="Ellipse 41" cx="0.688" cy="0.688" rx="0.688" ry="0.688" transform="translate(19.726 26.46)" fill="#fefdfd" stroke="#fff" stroke-width="2"></ellipse><path id="Path_192" data-name="Path 192" d="M212.953,245.71H199.637a1.235,1.235,0,0,0-1.234,1.234v7.138c0,.034-.012.08-.012.111h0l.012,3.2a.319.319,0,0,0,.473.277l2.769-1.6c.012,0,.012-.011.023-.011h0c.023-.011.034-.011.058-.023a.071.071,0,0,0,.046-.011h11.17a1.237,1.237,0,0,0,1.236-1.234v-7.849a1.217,1.217,0,0,0-1.223-1.223Zm.82,8.977a.914.914,0,0,1-.912.912H201.609l-.069.034h0l-.427.242-.277.161-1.9,1.085a.067.067,0,0,1-.092-.047l-.012-1.334-.011-.981v-7.7a.914.914,0,0,1,.912-.912h13.122a.914.914,0,0,1,.912.912v7.627Z" transform="translate(-182.011 -223.862)" fill="#fefdfd" stroke="#fff" stroke-width="2"></path></g></g></g></svg>