<svg xmlns="http://www.w3.org/2000/svg" width="63" height="63" viewBox="0 0 63 63"><g id="qu-Quora_Question_Finder" data-name="qu-Quora Question Finder" transform="translate(-647 -154.426)"><circle id="Ellipse_9" data-name="Ellipse 9" cx="31.5" cy="31.5" r="31.5" transform="translate(647 154.426)" fill="#2dce89"></circle><g id="quora_question_finder_icon" transform="translate(666.106 171.797)"><g id="Group_124" data-name="Group 124"><g id="Path_56" data-name="Path 56"><path id="Path_183" data-name="Path 183" d="M34.344,36.06a4.944,4.944,0,0,1-1.911-1.111,4.578,4.578,0,0,1-.367-.444l.311-.244a15.255,15.255,0,0,0,1.356-1.189,12.6,12.6,0,0,0,3.7-10.355h0a12.455,12.455,0,0,0-9.122-10.9A12.222,12.222,0,0,0,14.544,18,12.722,12.722,0,0,0,13.1,23.249v1.833a6.578,6.578,0,0,0,.133,1.033A12.489,12.489,0,0,0,23.078,36.5a11.933,11.933,0,0,0,4.655-.078,5.422,5.422,0,0,0,2.433,2.3A6.878,6.878,0,0,0,31.4,39.1l.489.122h1.233l1.767-.267V36.627A.8.8,0,0,0,34.344,36.06Zm-1.267,2.222h-.9l-.522-.133a7.5,7.5,0,0,1-1.111-.322,4.378,4.378,0,0,1-2-1.989.8.8,0,0,0-.944-.411,11.111,11.111,0,0,1-4.355.089A11.478,11.478,0,0,1,14.1,25.982a8.011,8.011,0,0,0-.122-1.022l-.056-.478v-.833a1.256,1.256,0,0,0,0-.289,11.655,11.655,0,0,1,1.344-4.833,11.111,11.111,0,0,1,12.644-5.689,11.444,11.444,0,0,1,8.389,10,11.689,11.689,0,0,1-3.222,9.533c-.4.389-.833.756-1.267,1.111-.233.178-.456.367-.689.567l-.367.311.3.367.178.256a6.311,6.311,0,0,0,.556.667,5.889,5.889,0,0,0,2.167,1.289v1.244Z" transform="translate(-12.8 -11.268)" fill="#fff"></path><path id="Path_184" data-name="Path 184" d="M33.174,39.545H31.907l-.456-.122h0a7.133,7.133,0,0,1-1.256-.389A5.478,5.478,0,0,1,27.741,36.7a12.311,12.311,0,0,1-4.6,0A12.711,12.711,0,0,1,13.019,26.168c0-.344-.089-.689-.122-1.044l-.067-.567V23.335a12.878,12.878,0,0,1,1.5-5.389A12.366,12.366,0,0,1,28.3,11.657a12.955,12.955,0,0,1,5.555,21.566,17.589,17.589,0,0,1-1.367,1.2l-.167.133a2.911,2.911,0,0,0,.244.278,4.544,4.544,0,0,0,1.822,1.044.956.956,0,0,1,.678.8v2.544Zm-.989-.389h.967l1.589-.244V36.69a.556.556,0,0,0-.411-.467h0a5.067,5.067,0,0,1-1.978-1.111A5.256,5.256,0,0,1,32,34.6l-.089-.133.444-.356A16.055,16.055,0,0,0,33.685,33a12.589,12.589,0,0,0-5.411-20.922,11.966,11.966,0,0,0-13.544,6.1A12.366,12.366,0,0,0,13.3,23.346v1.2l.056.544a6.578,6.578,0,0,0,.133,1.033,12.3,12.3,0,0,0,9.766,10.222,11.811,11.811,0,0,0,4.589-.078h.122l.067.111a5.222,5.222,0,0,0,2.344,2.3,7.489,7.489,0,0,0,1.2.367h0l.467.111Zm.922-.611h-.956l-.522-.133a5.555,5.555,0,0,1-1.111-.322,4.444,4.444,0,0,1-2.1-2.122.633.633,0,0,0-.733-.333,11.111,11.111,0,0,1-4.444.1,11.655,11.655,0,0,1-9.255-9.689,8.011,8.011,0,0,0-.122-1.022V23.435a11.9,11.9,0,0,1,1.356-4.911,11.344,11.344,0,0,1,12.833-5.778,11.678,11.678,0,0,1,8.522,10.189,11.789,11.789,0,0,1-3.422,9.711,13.455,13.455,0,0,1-1.278,1.111l-.678.556-.233.2.189.233.178.244a7.777,7.777,0,0,0,.533.667,5.867,5.867,0,0,0,2.222,1.222h.044v1.533Zm-.689-.367h.689l.678-.111v-.956a6.122,6.122,0,0,1-2.122-1.289,5.556,5.556,0,0,1-.567-.7l-.178-.244-.4-.511.5-.422.667-.556a13.334,13.334,0,0,0,1.267-1.111,11.444,11.444,0,0,0,3.333-9.422,11.289,11.289,0,0,0-8.255-9.878,11,11,0,0,0-12.411,5.555,11.678,11.678,0,0,0-1.4,4.822,1.567,1.567,0,0,1,0,.322v1.256a6.144,6.144,0,0,0,.122,1A11.289,11.289,0,0,0,23.3,35.323a10.877,10.877,0,0,0,4.278-.089.978.978,0,0,1,1.111.511A4.078,4.078,0,0,0,30.6,37.7a6.522,6.522,0,0,0,1.033.311,4.678,4.678,0,0,1,.533.133h.144Z" transform="translate(-12.83 -11.287)" fill="#fff"></path></g><g id="Path_57" data-name="Path 57" transform="translate(5.9 3.141)"><path id="Path_185" data-name="Path 185" d="M31.149,21.146a7.955,7.955,0,0,0-2.411-5.267,5.489,5.489,0,0,0-7.433-.467,8.1,8.1,0,0,0-3,6.078,21.922,21.922,0,0,0,0,2.833v1.111a9.011,9.011,0,0,0,1.022,4.222,6.511,6.511,0,0,0,3.889,3.522,5.444,5.444,0,0,0,1.522.244,5.555,5.555,0,0,0,1.544-.244l.6-.189-.322-.544a4.711,4.711,0,0,0-2.822-2.311V28.657a6.878,6.878,0,0,1,4.989,2.222l.411.422.344-.478a8.011,8.011,0,0,0,1.667-4.367A47.054,47.054,0,0,0,31.149,21.146Zm-.956,5.289a6.733,6.733,0,0,1-1.111,3.333,7.889,7.889,0,0,0-5.822-2.144h-.478v3.333l.411.078a3.455,3.455,0,0,1,2.167,1.356,4.111,4.111,0,0,1-1.833-.144,5.555,5.555,0,0,1-3.333-2.978,7.878,7.878,0,0,1-.911-3.755V21.58A7.078,7.078,0,0,1,21.9,16.2a4.444,4.444,0,0,1,2.833-1.033,4.567,4.567,0,0,1,3.333,1.389,7.055,7.055,0,0,1,2.122,4.655A43.087,43.087,0,0,1,30.193,26.435Z" transform="translate(-18.126 -14.106)" fill="#fff"></path><path id="Path_186" data-name="Path 186" d="M24.74,33.6a5.433,5.433,0,0,1-1.578-.244,6.667,6.667,0,0,1-3.978-3.5,9.044,9.044,0,0,1-1.044-4.3V24.443h0V21.6a8.333,8.333,0,0,1,3.078-6.211,5.655,5.655,0,0,1,7.667.478,8.078,8.078,0,0,1,2.433,5.389,43.066,43.066,0,0,1,0,5.355,8.1,8.1,0,0,1-1.7,4.444l-.467.644-.567-.578A6.667,6.667,0,0,0,23.907,28.9v1.111a4.855,4.855,0,0,1,2.8,2.356l.433.733-.811.256A5.311,5.311,0,0,1,24.74,33.6Zm0-19.233a5.367,5.367,0,0,0-3.333,1.2,7.944,7.944,0,0,0-2.933,5.944,21.744,21.744,0,0,0,0,2.822v1.111a8.889,8.889,0,0,0,1.011,4.1A6.355,6.355,0,0,0,23.3,32.876a4.967,4.967,0,0,0,1.444.278,4.844,4.844,0,0,0,1.489-.233l.378-.122-.2-.344A4.5,4.5,0,0,0,23.7,30.231H23.54v-1.8h.178a7.1,7.1,0,0,1,5.122,2.311L29.1,31l.222-.3a7.778,7.778,0,0,0,1.644-4.222,47.055,47.055,0,0,0,0-5.311h0A7.778,7.778,0,0,0,28.6,16.021a5.455,5.455,0,0,0-3.855-1.656Zm0,18.233a4.156,4.156,0,0,1-1.278-.2,5.778,5.778,0,0,1-3.444-3.056A8.422,8.422,0,0,1,19.1,25.5V21.554a7.311,7.311,0,0,1,2.689-5.489,4.744,4.744,0,0,1,2.955-1.111,4.855,4.855,0,0,1,3.444,1.567,7.144,7.144,0,0,1,2.222,4.744,45.875,45.875,0,0,1,0,5.244h0A7.089,7.089,0,0,1,29.2,29.843l-.122.178-.156-.144A7.711,7.711,0,0,0,23.262,27.8h-.3v2.933h.256A3.555,3.555,0,0,1,25.5,32.154l.178.244h-.3A4.022,4.022,0,0,1,24.74,32.6Zm0-17.189a4.444,4.444,0,0,0-2.722.989,7,7,0,0,0-2.567,5.233v3.922a7.844,7.844,0,0,0,.889,3.678,5.389,5.389,0,0,0,3.333,2.844,3.922,3.922,0,0,0,1.389.178,3.178,3.178,0,0,0-1.844-1.033l-.556-.1V27.509h.656a8.1,8.1,0,0,1,5.711,2.033,6.511,6.511,0,0,0,1-3.089,45.1,45.1,0,0,0,0-5.2,6.811,6.811,0,0,0-2.044-4.511A4.444,4.444,0,0,0,24.74,15.41Z" transform="translate(-18.14 -14.114)" fill="#fff"></path></g></g></g></g></svg>