<svg xmlns="http://www.w3.org/2000/svg" width="63" height="63" viewBox="0 0 63 63"><g id="sl-Member_Email_Extractor_slack" data-name="sl-Member Email Extractor slack" transform="translate(0.379 -3)"><circle id="Ellipse_32" data-name="Ellipse 32" cx="31.5" cy="31.5" r="31.5" transform="translate(-0.379 3)" fill="#e01e5a"></circle><g id="slack_extractor" transform="translate(18.204 22.106)"><g id="Group_40" data-name="Group 40"><path id="Path_235" data-name="Path 235" d="M692.08,153.4a3.34,3.34,0,1,1,3.71-3.32,3.53,3.53,0,0,1-3.71,3.32Zm0-5.58a2.29,2.29,0,1,0,2.65,2.26,2.47,2.47,0,0,0-2.65-2.26Z" transform="translate(-678.779 -137.196)" fill="#fff"></path><path id="Path_236" data-name="Path 236" d="M683.54,155.4a2.75,2.75,0,1,1,3-2.73,2.9,2.9,0,0,1-3,2.73Zm0-4.4a1.69,1.69,0,1,0,2,1.67,1.84,1.84,0,0,0-2-1.67Z" transform="translate(-678.779 -137.196)" fill="#fff"></path><path id="Path_237" data-name="Path 237" d="M705.32,162.65H678.78v-.53a7.75,7.75,0,0,1,1.34-4.51,4.21,4.21,0,0,1,3.42-2,4.36,4.36,0,0,1,3.55,2.16c1.07-2.31,2.94-3.75,5-3.75s3.89,1.41,5,3.69a4.29,4.29,0,0,1,3.52-2.1,4.23,4.23,0,0,1,3.42,2,7.831,7.831,0,0,1,1.34,4.51Zm-25.46-1.06h24.38c-.18-2.74-1.76-4.89-3.68-4.89a3.62,3.62,0,0,0-3.11,2.5l-.57,1.27-.42-1.32c-.8-2.46-2.52-4-4.38-4s-3.61,1.62-4.4,4.12l-.43,1.37-.56-1.32a3.73,3.73,0,0,0-3.15-2.58C681.62,156.7,680,158.85,679.86,161.59Z" transform="translate(-678.779 -137.196)" fill="#fff"></path><path id="Path_238" data-name="Path 238" d="M700.56,155.4a2.74,2.74,0,1,1,3-2.73,2.9,2.9,0,0,1-3,2.73Zm0-4.4a1.69,1.69,0,1,0,2,1.67,1.85,1.85,0,0,0-2-1.67Z" transform="translate(-678.779 -137.196)" fill="#fff"></path><path id="Path_239" data-name="Path 239" d="M683.9,141.05a.73.73,0,0,1,.8-.51h13.44l-.16-.17-2.07-2.06a.61.61,0,0,1-.17-.65.6.6,0,0,1,.48-.45.64.64,0,0,1,.61.2l1.87,1.88,1.4,1.39a.64.64,0,0,1,0,1q-1.62,1.63-3.26,3.25a.64.64,0,1,1-.9-.91l2-2,.13-.12H684.7a.74.74,0,0,1-.8-.51Z" transform="translate(-678.779 -137.196)" fill="#fff"></path></g></g></g></svg>