<svg xmlns="http://www.w3.org/2000/svg" id="Layer_1" data-name="Layer 1" viewBox="0 0 400 400"><defs><style>.cls-1,.cls-3{fill:#00e3e0;}.cls-2,.cls-4{fill:#fff;}.cls-3{stroke:#00e3e0;stroke-linejoin:round;stroke-width:10px;}.cls-4{stroke:#fff;stroke-width:0.5px;}</style></defs><g id="Layer_1-2" data-name="Layer 1"><circle class="cls-1" cx="199.95" cy="199.5" r="198.2"></circle></g><path class="cls-2" d="M317,131.9c0-1.3,0-1.3-1.3-1.3a57.33,57.33,0,0,1-9.2-.9c-11.2-1.8-47.2-20.6-53.3-51.4a84.25,84.25,0,0,1-1.5-11.4c0-1.5,0-1.5-1.5-1.5h-43.5c-2.9,0-2.4-.4-2.4,2.4v183a38.81,38.81,0,0,1-.4,6.8c-2.2,11.9-8.1,21.1-18.4,27.4a38.83,38.83,0,0,1-28.7,5,43.26,43.26,0,0,1-9.2-3.1l-.7-.7c-1.1-.9-2.2-1.5-3.3-2.4-13.2-9-19.3-21.5-17.3-37.1,2-15.8,11.2-26.6,26.3-32.3a33.73,33.73,0,0,1,14-2.2,72.73,72.73,0,0,1,9.2,1.3c1.1.2,1.5,0,1.8-1.1v-1.1c0-11-.4-34.9-.4-34.9V167c0-.9-.4-1.1-1.1-1.1a81.52,81.52,0,0,0-17.1-.4,94.15,94.15,0,0,0-23,4.8,86.92,86.92,0,0,0-49.6,45.9,86.68,86.68,0,0,0-7.5,29.6,99.9,99.9,0,0,0,.2,13.4,94.8,94.8,0,0,0,3.7,18.2,86.34,86.34,0,0,0,29.4,41.9,18.57,18.57,0,0,0,4.6,3.1h0c.7.7,1.5,1.3,2.2,2a37.48,37.48,0,0,0,7.2,4.4,88.41,88.41,0,0,0,49.8,8.8c22.6-2.9,41.5-12.7,56.4-29.8,14-16.2,20.8-35.1,20.8-56.4.2-30.3,0-60.8,0-91.1,0-.7-.4-1.8.4-2.2.7-.2,1.3.4,1.8.9a113.88,113.88,0,0,0,36.9,15.8,103.54,103.54,0,0,0,23.5,2.9c2.4,0,2.9-.2,2.9-2.6C317.55,164.1,317,134.7,317,131.9Z"></path><path class="cls-3" d="M253.09,280.74h22A9.07,9.07,0,0,1,284,290v22.12a9.07,9.07,0,0,1-8.85,9.27h-22a9.06,9.06,0,0,1-8.84-9.27V290A9.06,9.06,0,0,1,253.09,280.74Z"></path><circle class="cls-1" cx="261.15" cy="266.5" r="19.9"></circle><circle class="cls-1" cx="237.55" cy="277.2" r="14.7"></circle><path class="cls-3" d="M232.5,287.77h20.4c5.33,0,9.65,5.15,9.65,11.51v13c0,6.36-4.32,11.52-9.65,11.52H232.5c-5.33,0-9.65-5.16-9.65-11.52v-13C222.85,292.92,227.17,287.77,232.5,287.77Z"></path><path id="Path_181" data-name="Path 181" class="cls-4" d="M228.15,319.3h-.3l-.5-.2a8.26,8.26,0,0,1-1.3-.7,4.77,4.77,0,0,1-1.6-2.6V299.7l.3-1.2a28.64,28.64,0,0,1,.7-2.8,14,14,0,0,1,5.7-6.8l1.6-.9-1.1-1.4a12.14,12.14,0,0,1-2.3-5.6,7.57,7.57,0,0,1-.1-1.5,11.56,11.56,0,0,1,2.1-6.7,11.8,11.8,0,0,1,9.4-4.9h.2a12.7,12.7,0,0,1,3.4.5l2,.6.1-2.1A14.67,14.67,0,1,1,272,277.6l-1.4,1.5,1.8,1a17.65,17.65,0,0,1,9.8,16.1c.1,3.9,0,7.8,0,11.7v6a5.27,5.27,0,0,1-4,5.3h-.1l-.4.1Zm31-36.8a26.42,26.42,0,0,0-2.9.2,13.62,13.62,0,0,0-11.7,13.7v18.4H278V296.1a13.29,13.29,0,0,0-10.2-13.1,27.34,27.34,0,0,0-5-.5h-3.6Zm-20.5,8.8a9.82,9.82,0,0,0-9.8,9.8v13.7h11.3V302.4a72.26,72.26,0,0,1,.3-9.3l.2-1.9h-2Zm2.4-19c-.3,0-.6.1-.9.1a7.22,7.22,0,0,0,.7,14.4h1.9l.4-.7a21.91,21.91,0,0,1,4.2-4.4l.6-.5v-.7a8.1,8.1,0,0,0,0-2.2,7.17,7.17,0,0,0-6.9-6Zm20.1-14.8a10.2,10.2,0,1,0,10.2,10.2,10.76,10.76,0,0,0-2.9-7.2A10.64,10.64,0,0,0,261.15,257.5Z"></path><path id="Path_182" data-name="Path 182" class="cls-4" d="M291.45,260.6h-.2a2.16,2.16,0,0,1-2-2.1v-4.1h-4a2.25,2.25,0,0,1-.1-4.5h4.2v-4.3a2.26,2.26,0,0,1,2.2-2h.1a2.16,2.16,0,0,1,2,2.1v4.1h3.7a3,3,0,0,1,1.6.5,2,2,0,0,1,.8,2.3,2,2,0,0,1-2,1.6h-4.2v3.5a4.87,4.87,0,0,1-.1,1.2A2.34,2.34,0,0,1,291.45,260.6Z"></path></svg>