<svg xmlns="http://www.w3.org/2000/svg" width="63" height="63" viewBox="0 0 63 63"><g id="twt-Follower_Email_Finder" data-name="twt-Follower Email Finder" transform="translate(-395 -160.896)"><circle id="Ellipse_25" data-name="Ellipse 25" cx="31.5" cy="31.5" r="31.5" transform="translate(395 160.896)" fill="#03a9f4"></circle><g id="Twitter_Tool_Icon" transform="translate(413.5 179.373)"><g id="Group_29" data-name="Group 29"><path id="Path_210" data-name="Path 210" d="M35.2,26.2a.86.86,0,0,1-.6-.3.45.45,0,0,1,0-.5,1.38,1.38,0,0,1,.3-.4,1.86,1.86,0,0,0,.9-1.5V13.8a1.85,1.85,0,0,0-.2-.7L25.4,20a3.26,3.26,0,0,1-1.4.4,2.3,2.3,0,0,1-1.4-.4L12.4,13.1a1.7,1.7,0,0,0-.1.7v9.7a1.65,1.65,0,0,0,.9,1.5c.1.1.3.2.3.4a.68.68,0,0,1-.4.8c-.2.1-.3,0-.5-.1a3,3,0,0,1-1.5-2.6V13.8A2.9,2.9,0,0,1,14,10.9H34.2a2.9,2.9,0,0,1,2.9,2.9v9.7a3,3,0,0,1-1.5,2.6C35.4,26.1,35.3,26.2,35.2,26.2ZM23.2,19a1.88,1.88,0,0,0,.8.2,2.35,2.35,0,0,0,.8-.2l9.9-6.7a1.09,1.09,0,0,0-.5-.1H13.9a.75.75,0,0,0-.5.1Z" transform="translate(-11.1 -10.9)" fill="#fff"></path><path id="Path_211" data-name="Path 211" d="M34.1,11H13.9a2.8,2.8,0,0,0-2.8,2.8v9.7A3,3,0,0,0,12.6,26a.57.57,0,0,0,.7-.2h0a.57.57,0,0,0-.2-.7,1.65,1.65,0,0,1-.9-1.5V13.9a1.88,1.88,0,0,1,.2-.8l10.3,7h0a2.62,2.62,0,0,0,2.7,0h0l10.3-7a2.35,2.35,0,0,1,.2.8v9.7a1.72,1.72,0,0,1-.9,1.5.44.44,0,0,0-.2.7.55.55,0,0,0,.5.3c.1,0,.2,0,.2-.1A3,3,0,0,0,37,23.5V13.8A3,3,0,0,0,34.1,11Zm-9.3,8.1a1.53,1.53,0,0,1-1.6,0l-10-6.8a1.88,1.88,0,0,1,.8-.2H34.2a2.35,2.35,0,0,1,.8.2Z" transform="translate(-11.1 -10.9)" fill="#fff"></path><path id="Path_212" data-name="Path 212" d="M32.9,23.3l-.1.1a3.55,3.55,0,0,0,.4-.9l.5-1.4-1.3.8a10.84,10.84,0,0,1-1.9.8,4.14,4.14,0,0,0-5.9.3,4.3,4.3,0,0,0-1.1,2.8V26A10.5,10.5,0,0,1,17,22.5l-.5-.6-.4.7a3.94,3.94,0,0,0-.6,2.1,5,5,0,0,0,.2,1.2,2.07,2.07,0,0,0,.6,1l-.5-.1-1.1-.4.5,1.1c.2.3.4.7.6,1a7.69,7.69,0,0,0,1.8,1.8c-.2,0-.3-.1-.5-.1l-1.3-.5.6,1.3a7,7,0,0,0,2,2.2,3.7,3.7,0,0,0,1.1.5,7.22,7.22,0,0,1-3.2.8h-.8L13.1,34l2,1.3A11,11,0,0,0,21,37a10.24,10.24,0,0,0,8.1-3.6,10.91,10.91,0,0,0,2.8-7.3v-.2A5.19,5.19,0,0,0,33.6,24l1.2-1.7ZM31,25.2l-.2.2v.8A9.78,9.78,0,0,1,21.2,36h-.1a9.74,9.74,0,0,1-3.4-.6,8.33,8.33,0,0,0,3.6-1.6l1-.8L21,32.9a5.46,5.46,0,0,1-1.8-.6c-.3-.2-.6-.5-.9-.7h0a3.53,3.53,0,0,0,1.4-.3l1.2-.5-1.2-.5A6.43,6.43,0,0,1,17,28.1h3.2l-1.6-.9a3.17,3.17,0,0,1-1.4-1.6,2.77,2.77,0,0,1-.1-.9,2,2,0,0,1,.1-.8,11.12,11.12,0,0,0,7.3,3.4h.7l-.2-.7a1.7,1.7,0,0,1-.1-.7A3.12,3.12,0,0,1,28,22.8a3.26,3.26,0,0,1,2.3,1l.2.2.3-.1c.3-.1.6-.1.9-.2l-.3.3-1.1,1H32A1.24,1.24,0,0,0,31,25.2Z" transform="translate(-11.1 -10.9)" fill="#fff"></path></g></g></g></svg>