<svg xmlns="http://www.w3.org/2000/svg" viewBox="0 0 400 400"><defs><style>.cls-1{fill:#00acfb;}.cls-2{fill:#fff;}</style></defs><g id="Layer_2" data-name="Layer 2"><g id="Layer_1-2" data-name="Layer 1"><rect class="cls-1" width="400" height="400" rx="47.7"></rect><path class="cls-2" d="M349.11,212.17c0-.1,0-.2,0-.31s0-.2,0-.3-.05-.23-.08-.35-.07-.23-.12-.35a3.23,3.23,0,0,0-.15-.34,2.26,2.26,0,0,0-.11-.22,4.06,4.06,0,0,0-.64-.84l-.29-.26,0,0-.28-.2a2.63,2.63,0,0,0-.33-.2l-.35-.17-.36-.13-.37-.1a4.38,4.38,0,0,0-.82-.08H257.61a141.12,141.12,0,0,0,9.06-52.58,100.12,100.12,0,0,0,22.53-24,5,5,0,0,0-6.18-7.35c-2.48,1.09-5,2.08-7.56,2.94a51.69,51.69,0,0,0,8-15.46,5,5,0,0,0-7.31-5.82,89.44,89.44,0,0,1-25.68,10.26,52.25,52.25,0,0,0-35.94-14.38,52.06,52.06,0,0,0-51.77,57.26,128.91,128.91,0,0,1-87.05-46.83,5,5,0,0,0-8.2.64,52.1,52.1,0,0,0,2.62,56.37c-.89-.41-1.76-.86-2.62-1.33a5,5,0,0,0-7.43,4.25c-.4,17,8,32.82,21.29,42.62a5,5,0,0,0-4.57,6.52,51.94,51.94,0,0,0,35.33,34.16A89.18,89.18,0,0,1,56.47,267a5,5,0,0,0-3.29,9.17A138.28,138.28,0,0,0,128,298.11c43.84,0,73.85-17.61,92.67-34.72v30.22a4,4,0,0,0,4,4H345.12a4,4,0,0,0,4-4V212.28A.41.41,0,0,0,349.11,212.17ZM228.6,255.49a137.68,137.68,0,0,0,15.64-20.31l19.57,17.48h0L228.6,284.14Zm68,5.47,3.29-2.93,34.73,31H235.07l34.73-31,3.29,2.93a17.66,17.66,0,0,0,23.55,0Zm9.28-8.29h0l35.21-31.46v62.93Zm28.74-36.4L291.32,255a9.67,9.67,0,0,1-12.9,0l-30-26.83q3.24-5.82,5.94-11.91Zm-114.5,33.62C203.48,267.32,174,288.11,128,288.11a128.07,128.07,0,0,1-51.7-10.86,98.76,98.76,0,0,0,52.32-20.8,5,5,0,0,0-3-8.93,42,42,0,0,1-36.1-21.82,52.18,52.18,0,0,0,14.63-1.81,5,5,0,0,0-.33-9.73,42.39,42.39,0,0,1-33.09-33.82,52.17,52.17,0,0,0,15.55,2.91,5,5,0,0,0,2.93-9.15,42.13,42.13,0,0,1-16.1-49.55,138.87,138.87,0,0,0,95.42,45.05,5,5,0,0,0,5.12-6.13,42,42,0,0,1,71.6-38.32,5.06,5.06,0,0,0,4.62,1.49,99.58,99.58,0,0,0,17.49-5.17A42.26,42.26,0,0,1,255.47,132a5,5,0,0,0,3.16,9.25,99.88,99.88,0,0,0,11.68-2.1,89.2,89.2,0,0,1-11.65,10,5,5,0,0,0-2.07,4.28,130.94,130.94,0,0,1-9.71,54.81q-1.63,4.05-3.54,8-1.23,2.56-2.59,5.07c-1.28,2.4-2.63,4.76-4.07,7.08a131.68,131.68,0,0,1-8.08,11.67c-2.51,3.23-5.17,6.34-8,9.3Z"></path><path class="cls-2" d="M285.48,163.26l.69-.72-.68.73h0a2.94,2.94,0,0,0,.81.54,4.36,4.36,0,0,0,2.09.36,3.17,3.17,0,0,0,.85-.15l8.79-3a4,4,0,0,0,2.53-3.81V157a3,3,0,0,0-.12-.73,3.78,3.78,0,0,0-1.84-2.3,3.64,3.64,0,0,0-.87-.36,21.51,21.51,0,0,1,34.27,9.3,3.85,3.85,0,0,0,3.72,2.79,4,4,0,0,0,1.13-.16l.22-.07a4,4,0,0,0,2.54-3.81v-.25a3,3,0,0,0-.15-.83,29.35,29.35,0,0,0-28.86-19.95,28.83,28.83,0,0,0-20.92,10.08l-.09-.36a3.95,3.95,0,0,0-7.63,2l2.25,8.63A4,4,0,0,0,285.48,163.26Z"></path><path class="cls-2" d="M340.67,188.14a3.51,3.51,0,0,0-.09-.65l-2.25-8.62a3.8,3.8,0,0,0-2.23-2.79,4.43,4.43,0,0,0-2.09-.36,2.79,2.79,0,0,0-.86.16l-8.44,2.86a3.84,3.84,0,0,0-2.3,1.84,3.94,3.94,0,0,0-.32,3,3.81,3.81,0,0,0,1.83,2.31,4.14,4.14,0,0,0,.88.35A21.51,21.51,0,0,1,290.52,177a3.82,3.82,0,0,0-1.83-2.31,3.94,3.94,0,0,0-3-.32,4,4,0,0,0-2.39,1.86,3.82,3.82,0,0,0-.37,3l0,.11a29.5,29.5,0,0,0,27.81,20l1.06,0a29,29,0,0,0,21-10.09l.09.37a4,4,0,0,0,4.85,2.75,3.86,3.86,0,0,0,2.88-3.88Z"></path></g></g></svg>