<svg xmlns="http://www.w3.org/2000/svg" width="63" height="63" viewBox="0 0 63 63"><g id="vr-Verify_Emails" data-name="vr-Verify Emails" transform="translate(-146 -176)"><circle id="Ellipse_2" data-name="Ellipse 2" cx="31.5" cy="31.5" r="31.5" transform="translate(146 176)" fill="#0386ff"></circle><g id="verify" transform="translate(154 184)"><g id="Group_10" data-name="Group 10" transform="translate(10 11.976)"><path id="Path_7" data-name="Path 7" d="M20.422,23.508H3.077A3.08,3.08,0,0,1,0,20.43V3.085A3.08,3.08,0,0,1,3.077.008H17.065a.84.84,0,1,1,0,1.679H3.077a1.4,1.4,0,0,0-1.4,1.4V20.43a1.4,1.4,0,0,0,1.4,1.4H20.422a1.4,1.4,0,0,0,1.4-1.4V10.919a.84.84,0,1,1,1.679,0V20.43A3.08,3.08,0,0,1,20.422,23.508Zm0,0" transform="translate(0 0.016)" fill="#fff" stroke="#fff" stroke-width="1"></path><path id="Path_8" data-name="Path 8" d="M155.214,14a.832.832,0,0,1-.593-.246l-5.036-5.036a.839.839,0,0,1,1.187-1.187l4.443,4.443L166.931.259a.84.84,0,1,1,1.187,1.187l-12.31,12.31a.841.841,0,0,1-.594.245Zm0,0" transform="translate(-141.506 0.011)" fill="#fff" stroke="#fff" stroke-width="1"></path></g></g></g></svg>