<svg xmlns="http://www.w3.org/2000/svg" width="63" height="63" viewBox="0 0 63 63"><g id="vr-Website_Technology_Checker_Extension" data-name="vr-Website Technology Checker Extension" transform="translate(-655 -178.059)"><circle id="Ellipse_34" data-name="Ellipse 34" cx="31.5" cy="31.5" r="31.5" transform="translate(655 178.059)" fill="#0386ff"></circle><g id="website_technology_checker_icon" transform="translate(671.525 194.241)"><g id="chip"><path id="Path_60" data-name="Path 60" d="M31.61,28.31h3a.75.75,0,0,0,0-1.5h-3v-2h5.28a2.06,2.06,0,0,0,2.11-2V20.58a.75.75,0,0,0-1.5,0h0v2.17a.57.57,0,0,1-.56.57H31.61v-2h3a.75.75,0,0,0,0-1.5h-3V17.08a.74.74,0,0,0-.73-.75H28.12V13.45a.75.75,0,1,0-1.5,0h0v2.9h-2V11.14a2.06,2.06,0,0,0-2.06-2.06H20.39a.75.75,0,1,0-.17,1.49h2.37a.59.59,0,0,1,.57.57v5.2h-2V13.45a.75.75,0,0,0-1.5,0h0v2.9H16.89a.74.74,0,0,0-.75.73h0v2.75H13.42a.75.75,0,1,0,0,1.5h2.74v2H11.11A2.06,2.06,0,0,0,9.05,25.4v2.18a.75.75,0,0,0,1.49,0V25.39a.59.59,0,0,1,.57-.57h5.05v2H13.42a.75.75,0,0,0,0,1.5h2.75v2.74a.76.76,0,0,0,.75.75h2.75v2.75a.75.75,0,0,0,1.5,0V31.81h2v5.05a2.06,2.06,0,0,0,2.06,2.06h2.18a.75.75,0,1,0,0-1.5h-2.2a.56.56,0,0,1-.56-.56h0V31.81h2v2.74a.75.75,0,0,0,1.5,0V31.81H30.9a.77.77,0,0,0,.75-.75h0V28.31Zm-1.49,2H17.65V17.84H30.12Z" transform="translate(-9.05 -9.075)" fill="#fff"></path><path id="Path_61" data-name="Path 61" d="M20.18,28.52H27.6a.75.75,0,0,0,.75-.74h0V20.36a.76.76,0,0,0-.75-.75H20.18a.74.74,0,0,0-.75.73h0v7.42a.74.74,0,0,0,.74.74Zm.74-7.41h5.93V27H20.92Z" transform="translate(-9.05 -9.075)" fill="#fff"></path></g></g></g></svg>