<svg xmlns="http://www.w3.org/2000/svg" width="63" height="63" viewBox="0 0 63 63"><g id="vr-Website_Technology_Checker" data-name="vr-Website Technology Checker" transform="translate(-1159 -178.059)"><circle id="Ellipse_35" data-name="Ellipse 35" cx="31.5" cy="31.5" r="31.5" transform="translate(1159 178.059)" fill="#0386ff"></circle><g id="wtc_ext_icon" transform="translate(1175.524 193.225)"><path id="Path_250" data-name="Path 250" d="M14.37,3.235a.751.751,0,0,1-.75-.75V-.266H10.87a.756.756,0,0,1-.75-.75v-2.74H7.37a.751.751,0,0,1-.75-.751.751.751,0,0,1,.75-.75h2.74v-2H5.06a.591.591,0,0,0-.57.57V-4.5a.751.751,0,0,1-.745.664A.749.749,0,0,1,3-4.5V-6.68a2.069,2.069,0,0,1,.6-1.463,2.046,2.046,0,0,1,1.46-.608h5.051v-2H7.37a.751.751,0,0,1-.75-.75.751.751,0,0,1,.75-.751h2.72V-15a.742.742,0,0,1,.739-.73H13.61v-2.9a.751.751,0,0,1,.751-.75.751.751,0,0,1,.75.75v2.891h2v-5.2a.592.592,0,0,0-.57-.571H14.17a.752.752,0,0,1-.661-.831A.749.749,0,0,1,14.255-23a.764.764,0,0,1,.086,0h2.17a2.062,2.062,0,0,1,2.06,2.06v5.21h2v-2.9a.751.751,0,0,1,.75-.75.751.751,0,0,1,.75.75v2.88h2.76a.742.742,0,0,1,.73.751v2.74h3a.751.751,0,0,1,.75.751.751.751,0,0,1-.75.75h-3v2h5.33a.573.573,0,0,0,.561-.57V-11.5a.751.751,0,0,1,.75-.751.751.751,0,0,1,.75.751v2.229a2.049,2.049,0,0,1-2.058,2H25.56v.2a10.055,10.055,0,0,0-1.49.169v-7.337H11.6v12.47h5.515a9.966,9.966,0,0,0-.646,1.5H15.12v2.75a.751.751,0,0,1-.75.752Zm3.963-6.79h-4.2l-.01-.02a.741.741,0,0,1-.74-.741v-7.42a.743.743,0,0,1,.74-.73h7.43a.756.756,0,0,1,.75.75v5.327a9.99,9.99,0,0,0-1.5.739v-5.316H14.87v5.89h5.079a10.074,10.074,0,0,0-1.616,1.52Z" transform="translate(-3 23.001)" fill="#fff"></path><g id="Group_53" data-name="Group 53" transform="translate(15.36 18.055)"><path id="Path_251" data-name="Path 251" d="M13.312,4.318H8.9a3.244,3.244,0,0,1,.586,4.617L6.7,13.816a6.933,6.933,0,0,0,6.276-3.391,6.9,6.9,0,0,0,.336-6.107ZM7.059,0A6.849,6.849,0,0,0,1.581,2.807l2.17,3.771A3.234,3.234,0,0,1,6.964,3.672a3.17,3.17,0,0,1,.69.076h5.47A6.944,6.944,0,0,0,7.059,0ZM6.964,10.148A3.231,3.231,0,0,1,3.871,7.842L1.177,3.248a6.974,6.974,0,0,0-.19,7.111A6.866,6.866,0,0,0,6.1,13.71L8.325,9.845a3.2,3.2,0,0,1-1.361.3Zm1.26-5.716a2.419,2.419,0,0,0-.258-.114c-.028-.013-.059-.023-.089-.034-.051-.017-.1-.034-.155-.049L7.68,4.224a2.64,2.64,0,0,0-.328-.067,2.911,2.911,0,0,0-.389-.027A2.777,2.777,0,0,0,4.191,6.91c0,.034,0,.068,0,.1a.845.845,0,0,0,.009.15,2.246,2.246,0,0,0,.04.279,1.87,1.87,0,0,0,.047.2.067.067,0,0,0,.006.021l.017.057A2.768,2.768,0,0,0,8.554,9.188a2.2,2.2,0,0,0,.21-.163c.053-.046.1-.1.154-.144.021-.019.04-.04.059-.059s.032-.034.047-.051a1.636,1.636,0,0,0,.133-.16,2.788,2.788,0,0,0-.933-4.178Z" transform="translate(-0.105)" fill="none" stroke="#fff" stroke-width="1"></path></g></g></g></svg>