<svg xmlns="http://www.w3.org/2000/svg" width="400" height="400" viewBox="0 0 400 400"><g id="Group_6" data-name="Group 6" transform="translate(-1471 -458)"><g id="Group_5" data-name="Group 5"><g id="Group_3" data-name="Group 3" transform="translate(-269 -533)"><g id="Group_1" data-name="Group 1" transform="translate(1740 991)"><g id="vr-Verify_Emails" data-name="vr-Verify Emails"><circle id="Ellipse_2" data-name="Ellipse 2" cx="200" cy="200" r="200" fill="#128c7e"></circle></g></g></g><g id="Group_4" data-name="Group 4" transform="translate(-529.119 500.345)"><path id="Path_2" data-name="Path 2" d="M217.231,241.725a87.738,87.738,0,0,1,10.627-7.5c0-1.161-.8-1.7-1.429-2.233a31.256,31.256,0,1,1,48.045-.536c-2.233,2.5-1.7,3.036.8,4.733A45.4,45.4,0,0,1,296.8,272.981a98.744,98.744,0,0,1,0,12.592,6.8,6.8,0,0,1-6.43,7.233h-.536a6.8,6.8,0,0,1-6.966-6.7v-.268c-.268-5.894.536-11.7-.8-17.593a32.694,32.694,0,0,0-39.382-24.29,33.417,33.417,0,0,0-21.522,16.789,3.947,3.947,0,0,0,.536,5.537,45.866,45.866,0,0,1,11.7,30.452v10.359a6.8,6.8,0,0,1-6.7,6.966,6.983,6.983,0,0,1-6.966-6.7h0c-.268-3.929,0-7.859,0-11.7a32.863,32.863,0,0,0-64.476-7.859,36.185,36.185,0,0,0-1.072,7.5v10.627c.268,3.929-2.233,7.234-6.162,7.5h-.536a7.269,7.269,0,0,1-7.234-6.966v-.536c-.8-15.092,1.429-29.291,12.592-40.99,1.429-1.429.536-2.5,0-3.661-8.127-16.164-27.594-22.861-43.49-14.824A32.613,32.613,0,0,0,91.76,269.587a94.42,94.42,0,0,0-.536,15.092c0,5-2.768,8.127-6.966,8.127s-6.7-3.036-6.966-8.127c-.268-10.627.268-21.165,5.537-30.988A47.786,47.786,0,0,1,99.262,236.1c1.965-1.161,2.768-1.965.8-4.2a31.449,31.449,0,1,1,48.045-.536c-1.965,2.5-1.7,3.3.8,4.733a68.106,68.106,0,0,1,8.662,6.7c-3.394-13.4-.536-24.558,8.93-33.488a29.863,29.863,0,0,1,23.4-7.859,29.381,29.381,0,0,1,23.129,13.4,33.462,33.462,0,0,1,4.2,26.88Zm32.685-12.86A16.646,16.646,0,0,0,267.24,212.7v-1.161a17.173,17.173,0,0,0-17.057-17.325,17.753,17.753,0,0,0-17.593,17.325A16.967,16.967,0,0,0,249.647,228.6Zm-126.72,0A16.968,16.968,0,0,0,141.055,212.7v-1.161a17.325,17.325,0,0,0-34.649,0,17.057,17.057,0,0,0,16.789,17.325Zm63.673,20.9c10,.8,17.593-8.394,17.593-17.057a17.539,17.539,0,0,0-18.128-16.789c-8.93.268-16.164,7.5-16.789,16.789C169.543,243.064,178.473,250.655,186.868,249.762Z" transform="translate(2013 -30.174)" fill="#fefdfc"></path><path id="Path_3" data-name="Path 3" d="M193.581,47.713a55.466,55.466,0,0,0-55.421,55.43,56.261,56.261,0,0,0,7.466,27.684l-7.466,27.684,29.113-6.707a55.082,55.082,0,0,0,26.416,6.707h0a55.428,55.428,0,1,0-.107-110.856Zm0,11.261A45.589,45.589,0,0,1,225.087,71.86a44.473,44.473,0,0,1-31.4,75.773,47.917,47.917,0,0,1-21.325-5.412l-3.679-2.054-4.117.973-10.823,2.679L156.422,134l1.3-4.465-2.384-4.117a45.544,45.544,0,0,1-5.715-21.951A43.935,43.935,0,0,1,193.581,58.974Zm-19.7,18.62a4.929,4.929,0,0,0-3.715,1.732A14.84,14.84,0,0,0,165.4,90.8c0,6.716,5.09,13.529,5.742,14.181.652.973,9.412,15.262,23.71,21,11.8,4.76,14.181,3.679,16.557,3.349,2.679-.321,8.118-3.349,9.529-6.385s.973-6.064.652-6.385c-.33-.652-1.3-.973-2.679-1.732a95.4,95.4,0,0,0-9.529-4.465c-1.411-.348-2.054-.652-3.027.652s-3.688,4.465-4.465,5.412-1.724.973-3.027.321a38.784,38.784,0,0,1-11.145-6.707c-4.117-3.679-6.716-8.118-7.8-9.421a2,2,0,0,1,.643-2.679c.643-.625,1.3-1.732,2.063-2.384a5.617,5.617,0,0,0,1.295-2.375,2.965,2.965,0,0,0,0-2.384c-.322-.652-3.027-7.466-4.465-10.18-.973-2.679-2.054-3.027-3.027-3.027Z" transform="translate(2006.483 -16)" fill="#fefdfc"></path></g></g></g></svg>