<svg xmlns="http://www.w3.org/2000/svg" id="Layer_1" data-name="Layer 1" viewBox="0 0 400 400"><defs><style>.cls-1{fill:#128c7e;}.cls-2{fill:#fff;fill-rule:evenodd;}</style></defs><circle class="cls-1" cx="200" cy="200" r="199"></circle><path class="cls-2" d="M322.45,194.92c0-.08,0-.16,0-.24a3.15,3.15,0,0,0-.16-.64,1.91,1.91,0,0,0-.06-.21c-.08-.24-.18-.45-.26-.64a1,1,0,0,1-.11-.19,3.59,3.59,0,0,0-.4-.64s0-.05-.05-.08l-.06-.05c-.16-.19-.32-.37-.5-.56-.06,0-.08-.08-.14-.11a2.73,2.73,0,0,0-.56-.42A.42.42,0,0,0,320,191l-.19-.13c-.13-.08-.27-.11-.4-.19a.84.84,0,0,1-.21-.08,6,6,0,0,0-.64-.21,2,2,0,0,0-.24,0,5,5,0,0,0-.64-.11h-.24a4.56,4.56,0,0,0-.64,0,1,1,0,0,1-.3,0,5.18,5.18,0,0,0-.58.13l-.29.08a3.78,3.78,0,0,0-.56.21l-.22.08-2.13,1L294.15,201l-36.81,18.18-41.29,20.42-12.34,6.1a5.34,5.34,0,0,0,1.28,10l50.54,10.51.9.18L262.67,283l12.18,32.57a5.3,5.3,0,0,0,5,3.44H280a5.31,5.31,0,0,0,4.93-3.71l37.35-118.18.08-.37a1.77,1.77,0,0,0,0-.32,2.37,2.37,0,0,0,.08-.61v-.27A4.64,4.64,0,0,0,322.45,194.92Zm-64.05,61-36.08-7.52,12.52-6.18a0,0,0,0,0,0,0l17.19-8.5,39.58-19.56,4.48-2.22-5.84,6.83-3.14,3.67Zm35.24-3.57-14.23,45-7.81-20.92-5.09-13.62,37.71-44Z"></path><path class="cls-2" d="M246.21,275.11a97.75,97.75,0,0,1-98.57-3.73l-40.2,12.81,13.06-38.58a95.44,95.44,0,0,1-17.72-55.54,87.86,87.86,0,0,1,.49-9.37c4.85-49.72,46.48-87.22,96.84-87.22s93.08,39.12,97,89c.15,1.66.24,3.3.29,5l12.26-6C305.21,125,257.44,81,200.11,81c-59,0-107.24,45.82-109.84,104.42,0,1.55-.1,3.13-.1,4.67a108.67,108.67,0,0,0,15.76,56.35l.65,1.06-19,56.1L146,285l1,.55a110.76,110.76,0,0,0,105.41.47l-3.9-10.46Z"></path><path class="cls-2" d="M179.7,173.57c.37-.48.69-.9,1-1.3a35,35,0,0,0,1.73-3.28,4.91,4.91,0,0,0-.21-4.8c-.67-1.38-6.21-14.87-8.53-20.34s-4.58-4.55-6.21-4.55-3.44-.24-5.28-.24a10.15,10.15,0,0,0-7.38,3.41c-2.53,2.74-9.65,9.38-9.65,22.87a35.86,35.86,0,0,0,1.41,9.35c2.8,9.62,8.83,17.59,9.87,19,1.38,1.79,19.08,30.36,47.12,41.37.69.26,1.36.53,2,.77l46.54-23c-.13-.05-.27-.13-.43-.21-2.79-1.36-16.33-8-18.87-8.9s-4.37-1.36-6.23,1.38-7.17,8.91-8.75,10.69-3.19,2.05-6,.69-11.65-4.21-22.2-13.59A82.1,82.1,0,0,1,174.34,184c-1.6-2.75-.16-4.24,1.2-5.6S178.29,175.15,179.7,173.57Z"></path></svg>