<svg xmlns="http://www.w3.org/2000/svg" width="63" height="64.349" viewBox="0 0 63 64.349"><g id="Group_20" data-name="Group 20" transform="translate(-2423 821)"><g id="Yellow-Pages-Icon" transform="translate(2423 -821)"><g id="Group_114" data-name="Group 114"><g id="Group_112" data-name="Group 112"><g id="Group_107" data-name="Group 107"><g id="Group_113" data-name="Group 113"><g id="Group_115" data-name="Group 115"><g id="Group_116" data-name="Group 116"><path id="Path_464" data-name="Path 464" d="M31.5,0C48.909,0,63,14.392,63,32.174S48.892,64.349,31.5,64.349,0,49.956,0,32.174,14.108,0,31.5,0Z" fill="#2dce89"></path></g></g></g></g></g></g><rect id="Rectangle_15" data-name="Rectangle 15" width="46.78" height="40.391" transform="translate(7.95 20.337)" fill="none"></rect><g id="Group_18" data-name="Group 18" transform="translate(15.546 25.092)"><path id="Path_11" data-name="Path 11" d="M91.557,162.837a7.028,7.028,0,0,1-2.183-.355,4.88,4.88,0,0,1-1.775-.994l1.349-2.52a4.98,4.98,0,0,0,1.171.728,3.549,3.549,0,0,0,1.366.284,2.344,2.344,0,0,0,1.526-.479,4.37,4.37,0,0,0,1.083-1.6l.834-1.881.337-.444,5.555-13.061h3.319l-6.921,15.99a9.516,9.516,0,0,1-1.544,2.591,4.823,4.823,0,0,1-1.881,1.349A6.424,6.424,0,0,1,91.557,162.837Zm3.017-5.04L87.9,142.5h3.585l5.448,12.76Z" transform="translate(-87.6 -142.304)" fill="#fff"></path><path id="Path_12" data-name="Path 12" d="M186,161.732V141.59h3.3v3.478l-.142,3.922.284,3.922v8.8Zm8.163-5.182a6.646,6.646,0,0,1-3.3-.816,5.8,5.8,0,0,1-2.325-2.5,9.378,9.378,0,0,1-.852-4.259,9.673,9.673,0,0,1,.816-4.277,5.427,5.427,0,0,1,2.307-2.485,6.8,6.8,0,0,1,3.354-.816,7.881,7.881,0,0,1,3.851.941A6.744,6.744,0,0,1,200.676,145a8.655,8.655,0,0,1,0,7.986,6.921,6.921,0,0,1-2.662,2.644A8.073,8.073,0,0,1,194.163,156.55Zm-.408-2.928a4.311,4.311,0,0,0,2.254-.586,4.2,4.2,0,0,0,1.562-1.633,5.377,5.377,0,0,0,0-4.88,4.1,4.1,0,0,0-1.562-1.6,4.685,4.685,0,0,0-4.472,0,4.14,4.14,0,0,0-1.579,1.6,5.377,5.377,0,0,0,0,4.88,4.115,4.115,0,0,0,1.579,1.633A4.272,4.272,0,0,0,193.755,153.622Z" transform="translate(-168.537 -141.394)" fill="#fff"></path></g><path id="Path_13" data-name="Path 13" d="M162.532,81.985a2.662,2.662,0,1,0-2.946,0,4.24,4.24,0,0,0-2.786,3.993h.71a3.549,3.549,0,1,1,7.1,0h.71A4.259,4.259,0,0,0,162.532,81.985Zm-3.425-2.218a1.952,1.952,0,1,1,1.952,1.952,1.952,1.952,0,0,1-1.952-1.952Z" transform="translate(-128.973 -63.422)" fill="#fff"></path><path id="Path_14" data-name="Path 14" d="M191.662,71.98a2.662,2.662,0,0,0-1.473-4.88,2.589,2.589,0,0,0-1.828.745,2.813,2.813,0,0,0-.461.568,2.625,2.625,0,0,1,.621.337,2.29,2.29,0,0,1,.479-.532,2.005,2.005,0,0,1,1.189-.408,1.952,1.952,0,0,1,.532,3.833,2.567,2.567,0,0,1-.532.071.6.6,0,0,1-.177-.018,3.634,3.634,0,0,1-.124.745,1.748,1.748,0,0,1,.3-.035,3.446,3.446,0,0,1,.426.035,3.549,3.549,0,0,1,3.123,3.532h.71a4.259,4.259,0,0,0-2.786-3.993Z" transform="translate(-154.554 -55.192)" fill="#fff"></path><path id="Path_15" data-name="Path 15" d="M141.159,72.506a1.563,1.563,0,0,1,.3.035,3.443,3.443,0,0,1-.124-.745c-.053,0-.124.018-.177.018a2.568,2.568,0,0,1-.532-.071,1.927,1.927,0,0,1-1.42-1.881,1.952,1.952,0,0,1,1.952-1.952,2.005,2.005,0,0,1,1.189.408,1.725,1.725,0,0,1,.479.532,6.922,6.922,0,0,1,.621-.337,2.4,2.4,0,0,0-.461-.568,2.621,2.621,0,0,0-1.828-.745,2.662,2.662,0,0,0-1.473,4.88,4.24,4.24,0,0,0-2.786,3.993h.71a3.549,3.549,0,0,1,3.123-3.532A2.944,2.944,0,0,1,141.159,72.506Z" transform="translate(-112.605 -55.274)" fill="#fff"></path></g><rect id="Rectangle_16" data-name="Rectangle 16" width="33.006" height="1.868" rx="0.934" transform="translate(2437.997 -772.369)" fill="#fff"></rect></g></svg>