<svg xmlns="http://www.w3.org/2000/svg" id="Layer_1" data-name="Layer 1" viewBox="0 0 400 400"><defs><style>.cls-1{fill:red;}.cls-2{fill:#fefdfc;stroke:red;stroke-width:4px;}.cls-3{fill:#fff;}</style></defs><circle id="Ellipse_28" data-name="Ellipse 28" class="cls-1" cx="201.41" cy="201" r="199"></circle><path id="Path_241" data-name="Path 241" class="cls-2" d="M228.76,254.48a79.79,79.79,0,0,1,9.8-6.92,2.63,2.63,0,0,0-1.32-2.06,28.81,28.81,0,1,1,44.29-.49c-2.06,2.3-1.57,2.8.74,4.36a41.87,41.87,0,0,1,19.84,33.92,90,90,0,0,1,0,11.61,6.27,6.27,0,0,1-5.84,6.67h-.58a6.26,6.26,0,0,1-6.42-6.12v-.29a89.74,89.74,0,0,0-.74-16.22,30.15,30.15,0,0,0-36.26-22.41h-.05A30.82,30.82,0,0,0,232.38,272a3.64,3.64,0,0,0,.49,5.11,42.29,42.29,0,0,1,10.79,28.07v9.55a6.28,6.28,0,0,1-6.12,6.43h-.06a6.44,6.44,0,0,1-6.42-6.18h0c-.25-3.62,0-7.24,0-10.78A30.32,30.32,0,0,0,171.62,297a33.77,33.77,0,0,0-1,6.92v9.8a6.17,6.17,0,0,1-5.35,6.89l-.33,0h-.49a6.71,6.71,0,0,1-6.67-6.43v-.49A47.59,47.59,0,0,1,169.4,275.9c1.32-1.32.49-2.31,0-3.37a29.95,29.95,0,0,0-56.31,7.65,87.25,87.25,0,0,0-.5,13.9c0,4.61-2.52,7.49-6.42,7.49s-6.17-2.79-6.43-7.49a55.48,55.48,0,0,1,5.11-28.57A43.93,43.93,0,0,1,120,249.3c1.81-1.07,2.53-1.82.74-3.88a29,29,0,1,1,44.29-.49c-1.81,2.31-1.57,3,.74,4.37a63.49,63.49,0,0,1,8,6.17A29.51,29.51,0,0,1,182,224.6a27.5,27.5,0,0,1,21.57-7.25,27.07,27.07,0,0,1,21.32,12.35A30.85,30.85,0,0,1,228.76,254.48Zm30.13-11.86a15.35,15.35,0,0,0,16-14.7v-1.27a15.83,15.83,0,0,0-15.69-16h0a16.37,16.37,0,0,0-16.22,16,15.64,15.64,0,0,0,15.56,15.72h.17Zm-116.83,0a15.65,15.65,0,0,0,16.46-14.78s0-.08,0-.12v-1.07a16,16,0,0,0-31.95,0,15.72,15.72,0,0,0,15.47,16Zm58.71,19.27A15.8,15.8,0,0,0,217,246.52v-.36a16.11,16.11,0,0,0-32.22,0,15.44,15.44,0,0,0,15.13,15.74Z"></path><path class="cls-3" d="M272.44,82.21A18.55,18.55,0,0,0,259.33,69.1C247.77,66,201.41,66,201.41,66s-46.36,0-57.92,3.1a18.57,18.57,0,0,0-13.11,13.11c-3.09,11.56-3.09,35.68-3.09,35.68s0,24.12,3.09,35.68a18.59,18.59,0,0,0,13.11,13.11c11.56,3.1,57.92,3.1,57.92,3.1s46.36,0,57.92-3.1a18.57,18.57,0,0,0,13.11-13.11c3.1-11.56,3.1-35.68,3.1-35.68S275.54,93.77,272.44,82.21Zm-85.85,57.92V95.65l38.51,22.24Z"></path></svg>